<svg width="19" height="19" viewBox="0 0 19 19" fill="none" xmlns="http://www.w3.org/2000/svg">
<path d="M9.50075 0C4.25423 0 0.000976562 4.25338 0.000976562 9.4999C0.000976562 14.7463 4.25423 19 9.50075 19C14.7473 19 19.0008 14.7463 19.0008 9.4999C19.0008 4.25338 14.7473 0 9.50075 0ZM9.50094 3.33681L15.1227 6.84235H3.87923L9.50094 3.33681ZM15.1927 12.4402H15.1921C15.1921 13.0025 14.7364 13.4582 14.1742 13.4582H4.82766C4.26538 13.4582 3.80975 13.0025 3.80975 12.4402V7.06541C3.80975 7.00594 3.81583 6.94812 3.82571 6.89131L9.19694 10.2406C9.20353 10.2447 9.21056 10.2475 9.21733 10.2513C9.22443 10.2552 9.23165 10.259 9.23887 10.2626C9.2768 10.2822 9.31588 10.298 9.35585 10.3083C9.35996 10.3094 9.36408 10.3099 9.3682 10.3109C9.41202 10.3212 9.45642 10.3277 9.50075 10.3277H9.50107C9.50139 10.3277 9.5017 10.3277 9.5017 10.3277C9.54604 10.3277 9.59044 10.3214 9.63426 10.3109C9.63838 10.3099 9.6425 10.3094 9.64661 10.3083C9.68651 10.298 9.72546 10.2822 9.76359 10.2626C9.77081 10.259 9.77803 10.2552 9.78512 10.2513C9.79184 10.2475 9.79893 10.2447 9.80552 10.2406L15.1767 6.89131C15.1866 6.94812 15.1927 7.00581 15.1927 7.06541V12.4402Z" fill="#0388C0"/>
</svg>
