<svg width="19" height="19" viewBox="0 0 19 19" fill="none" xmlns="http://www.w3.org/2000/svg">
<path d="M9.49995 15.0609C9.90983 15.0609 10.2421 14.7287 10.2421 14.3188C10.2421 13.9089 9.90983 13.5767 9.49995 13.5767C9.09008 13.5767 8.75781 13.9089 8.75781 14.3188C8.75781 14.7287 9.09008 15.0609 9.49995 15.0609Z" fill="#0388C0"/>
<path d="M11.5706 4.32239H7.42977C7.19765 4.32239 7.00879 4.50244 7.00879 4.72335V12.5508C7.00879 12.7719 7.19752 12.9518 7.42977 12.9518H11.5706C11.8027 12.9518 11.9916 12.7718 11.9916 12.5508V4.72335C11.9915 4.50225 11.8027 4.32239 11.5706 4.32239Z" fill="#0388C0"/>
<path d="M9.50066 0C4.25419 0 0.000976562 4.25353 0.000976562 9.49981C0.000976562 14.7461 4.25419 19 9.50066 19C14.7471 19 19.0008 14.7463 19.0008 9.49981C19.0008 4.25328 14.7471 0 9.50066 0ZM13.1967 14.188C13.1967 14.9137 12.6083 15.5021 11.8826 15.5021H7.11901C6.39334 15.5021 5.80491 14.9137 5.80491 14.188V4.77046C5.80491 4.04478 6.39327 3.45635 7.11901 3.45635H11.8826C12.6082 3.45635 13.1967 4.04472 13.1967 4.77046V14.188Z" fill="#0388C0"/>
</svg>
