<svg width="55" height="55" viewBox="0 0 55 55" fill="none" xmlns="http://www.w3.org/2000/svg">
<g clip-path="url(#clip0)">
<path d="M50.49 27.6535L44.9182 18.5462C44.9138 18.5392 44.909 18.5329 44.9049 18.5263C44.9005 18.5194 44.8961 18.5131 44.8917 18.5064C44.8825 18.4926 44.8731 18.479 44.8627 18.4655C44.8589 18.4601 44.8542 18.455 44.8501 18.4494C44.8375 18.4336 44.8255 18.4178 44.8119 18.403C44.8091 18.3999 44.8059 18.3967 44.8028 18.3936C44.7952 18.385 44.7873 18.3765 44.7788 18.368C44.7757 18.3649 44.7725 18.3614 44.7693 18.3579C44.7416 18.3299 44.7116 18.3043 44.681 18.28C44.6751 18.2756 44.6691 18.2709 44.6637 18.2665C44.6397 18.2485 44.6151 18.2315 44.5896 18.2157C44.5861 18.2135 44.5824 18.211 44.5786 18.2088C44.5735 18.2056 44.5688 18.2025 44.5637 18.1996C44.5628 18.1993 44.5625 18.1984 44.5619 18.1981C44.56 18.1968 44.5574 18.1965 44.5555 18.1949C44.524 18.1772 44.4919 18.1615 44.4591 18.1473C44.4543 18.1454 44.4499 18.1429 44.4452 18.141C44.442 18.1394 44.4392 18.1381 44.436 18.1372C44.4001 18.1227 44.3632 18.1104 44.3257 18.0997C44.3203 18.0984 44.3146 18.0965 44.3096 18.0953C44.3077 18.0949 44.3064 18.0943 44.3049 18.0934L28.0109 13.9376C27.9881 13.9323 27.9654 13.9282 27.9424 13.9238C27.5483 13.0355 27.0904 12.3323 26.5644 11.8063C25.2744 10.5163 23.6833 9.28275 20.8863 8.59155C19.0237 8.13148 17.2893 8.10563 17.2253 8.09837C17.1515 8.09017 17.0768 8.08607 17.0024 8.08607H15.2706V6.98021C15.2706 6.15058 14.7639 5.40483 13.9926 5.09959C13.751 5.00436 13.4988 4.95801 13.2493 4.95801C12.701 4.95801 12.1637 5.18126 11.7736 5.59718L7.08182 10.6018C6.71446 10.9934 6.51801 11.5156 6.53598 12.052C6.55395 12.589 6.78478 13.0967 7.17736 13.4631L11.8688 17.842C12.251 18.1984 12.7467 18.3857 13.249 18.3857C13.5212 18.3857 13.7955 18.3311 14.0547 18.2186C14.7929 17.8975 15.2706 17.1688 15.2706 16.3638V15.8839H17.0024C17.7399 15.8839 18.4343 15.9428 19.0842 16.0608L18.7361 16.2563L7.33156 22.5152C7.32399 22.519 7.31705 22.5237 7.30948 22.5282C7.30728 22.5297 7.30475 22.531 7.30192 22.5326C7.29845 22.5348 7.29466 22.5364 7.29088 22.5389C7.28583 22.542 7.28079 22.5455 7.27574 22.5487C7.26439 22.5556 7.25336 22.5635 7.24263 22.571C7.23349 22.5773 7.22403 22.5833 7.21552 22.59C7.21299 22.5915 7.2111 22.5931 7.20889 22.5947C7.19849 22.6026 7.18903 22.6105 7.17925 22.6187C7.16979 22.6262 7.16002 22.6341 7.15087 22.6423C7.1474 22.6448 7.14394 22.648 7.14047 22.6511C7.13574 22.6556 7.13101 22.6603 7.12628 22.665C7.12375 22.6669 7.12186 22.6691 7.11965 22.6713C7.11114 22.6792 7.10263 22.6871 7.09443 22.6956C7.08875 22.7013 7.08371 22.7073 7.07835 22.7126C7.07109 22.7202 7.06447 22.7281 7.05722 22.736C7.05217 22.7416 7.04713 22.7476 7.04208 22.7536C7.03452 22.7621 7.02789 22.7713 7.02127 22.7804C7.0137 22.7892 7.00645 22.7984 6.99983 22.8079C6.99794 22.8107 6.99605 22.8129 6.99415 22.8154C6.98217 22.8318 6.97145 22.8492 6.96104 22.8662C6.95694 22.8725 6.95285 22.8782 6.94906 22.8845L5.30241 25.6465C5.01641 26.1264 5.17376 26.7469 5.65337 27.033C6.13299 27.3183 6.75356 27.1619 7.03925 26.682L8.30403 24.5608L19.8287 27.3722L26.4282 28.9829L19.5704 40.2415L1.65058 35.7219L3.10173 33.2875C3.38773 32.8079 3.23038 32.1876 2.75077 31.9016C2.27147 31.6156 1.6509 31.7724 1.3649 32.2523L-0.781236 35.8524C-0.944576 36.1264 -0.969172 36.4622 -0.846824 36.7571C-0.724477 37.0522 -0.469691 37.272 -0.159722 37.3502L6.80716 39.1075V43.5944C6.80716 44.0604 7.12533 44.4659 7.57814 44.5766L27.7715 49.5033C27.7945 49.509 27.8182 49.5121 27.8418 49.5159C27.8567 49.5188 27.8715 49.5222 27.886 49.5241C27.9276 49.5295 27.9692 49.532 28.0109 49.532C28.0503 49.532 28.0897 49.5289 28.1285 49.5248C28.1373 49.5235 28.1458 49.5222 28.1546 49.521C28.1928 49.5156 28.2306 49.5087 28.2678 49.4986C28.2738 49.497 28.2792 49.4951 28.2852 49.4935C28.3196 49.4838 28.3533 49.4724 28.3864 49.4589C28.393 49.4566 28.3993 49.4541 28.406 49.4516C28.4422 49.4362 28.4775 49.4185 28.5119 49.3986C28.5151 49.3974 28.5182 49.3961 28.5214 49.3945L44.566 40.0226C44.8762 39.8413 45.0673 39.509 45.0673 39.1498V29.1923H49.6279C49.9937 29.1923 50.3308 28.9946 50.5099 28.6752C50.6884 28.3564 50.6811 27.9657 50.49 27.6535ZM41.3947 19.4417L27.8567 27.2499L25.5566 26.6886L25.563 22.9658C25.6027 23.2049 25.6172 23.3559 25.6197 23.3852C25.6825 24.4577 26.5707 25.2785 27.635 25.2785C27.6653 25.2785 27.6955 25.2775 27.7261 25.2763C28.8323 25.228 29.6931 24.2877 29.6581 23.1809C29.6553 23.0967 29.5881 21.0928 29.2302 18.777C29.0839 17.8329 28.9117 16.9765 28.7128 16.2039L41.3947 19.4417ZM13.2487 13.8613V16.3638L8.55693 11.9848L13.2487 6.98021V10.108C13.2487 10.108 16.0652 10.0559 17.0024 10.108C19.1769 10.2284 22.7281 10.6409 25.1344 13.2357C27.1796 15.4411 27.6369 23.2452 27.6369 23.2452C27.6369 23.2452 27.0113 13.8613 17.0024 13.8613C16.8911 13.8613 13.2487 13.8613 13.2487 13.8613ZM19.7073 18.03L21.6352 16.9475C22.3643 17.352 23.0037 17.8707 23.5518 18.5036C23.5508 18.5247 23.5486 18.5449 23.5486 18.566L23.5354 26.1954L10.5854 23.0362L19.7073 18.03ZM8.82874 39.6177L19.799 42.3848C19.881 42.4056 19.9643 42.4153 20.0459 42.4153C20.3928 42.4153 20.723 42.2362 20.9093 41.9304L21.9515 40.2194L24.7731 40.7469C24.8355 40.7586 24.8979 40.7643 24.9597 40.7643C25.4371 40.7643 25.8616 40.425 25.9524 39.9388C26.0552 39.3901 25.6935 38.8619 25.1448 38.7591L23.0766 38.3725L26.9999 31.9313V47.2339L8.82874 42.8004V39.6177ZM43.0448 38.569L29.0221 46.76V28.912L43.0448 20.8241V38.569ZM45.067 27.1701V22.6634L47.8243 27.1701H45.067Z" fill="#1A1613"/>
<path d="M38.6057 31.2929C38.2922 31.1123 37.9057 31.1138 37.5928 31.2964L30.9201 35.1888C30.6092 35.3705 30.4185 35.7028 30.4185 36.0623V42.1753C30.4185 42.5379 30.613 42.8731 30.9283 43.0528C31.0838 43.1418 31.2569 43.1862 31.4294 43.1862C31.6073 43.1862 31.7848 43.1395 31.9434 43.0459L38.6161 39.109C38.9242 38.9274 39.1134 38.5963 39.1134 38.2381V32.1692C39.1137 31.8072 38.9198 31.473 38.6057 31.2929ZM37.0912 37.661L32.4407 40.405V36.6428L37.0912 33.9297V37.661Z" fill="#0388C0"/>
<path d="M27.763 42.2975L25.6219 41.8964C25.0732 41.7943 24.5447 42.1556 24.4423 42.7046C24.3395 43.2533 24.7015 43.7818 25.2501 43.8843L27.3915 44.2848C27.4543 44.2968 27.5167 44.3021 27.5785 44.3021C28.0559 44.3021 28.4804 43.9631 28.5712 43.4769C28.674 42.9279 28.3123 42.4 27.763 42.2975Z" fill="#1A1613"/>
<path d="M31.4303 32.3046C31.6038 32.3046 31.7797 32.2601 31.9402 32.1662L34.7725 30.5072C35.2546 30.2253 35.4161 29.6057 35.1342 29.1239C34.8519 28.6417 34.2326 28.4803 33.7511 28.7622L30.9182 30.4211C30.4364 30.7031 30.2747 31.3227 30.5566 31.8042C30.7451 32.1258 31.0832 32.3046 31.4303 32.3046Z" fill="#0388C0"/>
<path d="M36.9857 26.8886L36.9371 26.9C36.3932 27.028 36.0557 27.5719 36.1831 28.1152C36.2926 28.5813 36.7075 28.8957 37.1667 28.8957C37.243 28.8957 37.3205 28.8871 37.3984 28.8689L37.4473 28.8575C37.9909 28.7301 38.3283 28.1859 38.2009 27.6422C38.0736 27.0986 37.5293 26.7615 36.9857 26.8886Z" fill="#0388C0"/>
<path d="M4.26509 30.5182C4.34171 30.5182 4.41897 30.5097 4.49685 30.4914L4.54573 30.4801C5.08936 30.3527 5.42707 29.8088 5.29936 29.2648C5.17197 28.7212 4.62803 28.3841 4.0844 28.5112L4.03521 28.5225C3.49159 28.6499 3.15419 29.1942 3.28189 29.7378C3.39068 30.2039 3.80628 30.5182 4.26509 30.5182Z" fill="#0388C0"/>
</g>
<defs>
<clipPath id="clip0">
<rect width="55" height="55" fill="white"/>
</clipPath>
</defs>
</svg>
