<svg width="41" height="45" viewBox="0 0 41 45" fill="none" xmlns="http://www.w3.org/2000/svg">
<path d="M35.3905 7.48821C33.9976 7.31209 32.6364 7.0031 31.3451 6.57017C30.9997 6.45447 30.6262 6.64055 30.5105 6.98559C30.3948 7.33097 30.5809 7.70451 30.9259 7.82021C32.2996 8.28094 33.746 8.60916 35.2254 8.79627C37.4439 9.07711 39.0273 11.1247 38.7547 13.3604C38.3973 16.2924 37.7429 20.6687 36.6553 24.8669C35.4705 29.4396 34.08 32.6212 32.5224 34.3233C29.3236 37.8187 25.3133 40.9169 22.5125 42.9002C21.0406 43.9426 19.0631 43.9426 17.5916 42.9002C14.7908 40.9169 10.7804 37.8187 7.58169 34.3233C6.02404 32.6212 4.63323 29.4396 3.44877 24.8669C2.36112 20.6687 1.70675 16.2924 1.34901 13.3604C1.07675 11.1247 2.65981 9.07711 4.87871 8.79627C11.2745 7.9874 15.5135 4.7739 17.9435 2.22061C18.4973 1.63902 19.2461 1.31836 20.0519 1.31836C20.8576 1.31836 21.6064 1.63902 22.1605 2.22061C23.9112 4.06013 25.9347 5.56011 28.1749 6.679C28.5004 6.84174 28.8965 6.70956 29.0593 6.38374C29.2217 6.05793 29.0895 5.66208 28.764 5.49969C26.6608 4.44912 24.7605 3.04012 23.1153 1.31184C22.3102 0.465889 21.2222 0 20.0519 0C18.8815 0 17.7935 0.465889 16.9884 1.31184C14.706 3.70995 10.7238 6.7281 4.71323 7.48821C1.77645 7.85969 -0.319884 10.5658 0.0402617 13.5201C0.654123 18.5552 2.52317 30.7487 6.60906 35.2136C9.88642 38.7948 13.9761 41.9554 16.8294 43.9762C17.7931 44.6587 18.9223 45 20.0519 45C21.181 44.9997 22.3106 44.6587 23.2743 43.9762C26.1276 41.9554 30.2173 38.7948 33.4947 35.2136C37.5809 30.7487 39.4496 18.5552 40.0635 13.5201C40.4236 10.5658 38.3273 7.85969 35.3905 7.48821Z" fill="#1A1613"/>
<path d="M18.5644 6.19211C15.2297 9.07773 11.3367 10.9664 6.99403 11.8054C5.67087 12.0612 4.77754 13.3123 4.96019 14.654C5.26746 16.91 5.89574 21.129 6.64934 24.0377C8.02297 29.3406 9.35129 31.3597 10.0208 32.091C12.2215 34.4956 16.3049 37.7088 18.5431 39.41C18.9873 39.7474 19.5195 39.916 20.0516 39.916C20.5838 39.916 21.1159 39.7474 21.5602 39.41C23.7983 37.7088 27.8818 34.4956 30.0825 32.091C30.752 31.3597 32.0803 29.3406 33.4539 24.0377C34.2079 21.1284 34.8358 16.9096 35.1434 14.654C35.3261 13.3123 34.4324 12.0612 33.1092 11.8054C28.7665 10.9664 24.8736 9.07773 21.5389 6.19211C20.6909 5.45843 19.4124 5.45843 18.5644 6.19211ZM33.8371 14.4758C33.5336 16.7029 32.9146 20.8633 32.1778 23.7071C30.789 29.0677 29.4786 30.798 29.1102 31.2011C26.8995 33.6164 22.5359 37.0122 20.7623 38.3601C20.3438 38.6783 19.7595 38.6783 19.3409 38.3601C17.5673 37.0122 13.2037 33.616 10.9934 31.2011C10.6247 30.798 9.31421 29.0677 7.92547 23.7071C7.18904 20.864 6.57003 16.7033 6.26653 14.4758C6.17795 13.8273 6.60745 13.223 7.24397 13.0998C11.8167 12.2164 15.9156 10.2279 19.4271 7.18912C19.605 7.03496 19.8285 6.95772 20.0516 6.95772C20.2748 6.95772 20.4983 7.03496 20.6761 7.18912C24.1876 10.2279 28.2866 12.2164 32.8593 13.0998C33.4958 13.223 33.9253 13.8273 33.8371 14.4758Z" fill="#1A1613"/>
<path d="M16.3959 20.5723C15.9001 20.1685 14.2268 19.335 13.0286 20.918C11.8307 22.5007 12.8785 23.8816 13.3743 24.2853L15.2859 25.8406C15.5681 26.0703 15.9836 26.028 16.2132 25.7455C16.4429 25.4629 16.4004 25.0478 16.1181 24.8178L14.2065 23.2626C13.984 23.0813 13.4979 22.4911 14.0513 21.7499C14.6048 21.009 15.3412 21.4134 15.5637 21.5947L19.5218 24.8154C19.7831 25.0279 20.1625 25.0094 20.4018 24.7722L26.194 19.0342C26.6152 18.6167 27.2971 18.6202 27.7146 19.0414C28.1317 19.4623 28.1283 20.1445 27.7074 20.5617L20.8083 27.3965C20.2621 27.9232 19.6606 27.7038 19.3732 27.4666L18.278 26.5756C17.9954 26.3459 17.5804 26.3885 17.3503 26.6707C17.1206 26.9529 17.1632 27.3684 17.4458 27.598L18.541 28.4893C18.9664 28.8354 19.5026 29.0263 20.0513 29.0263C20.6867 29.0263 21.2852 28.7801 21.7363 28.3331L28.635 21.4986C29.5726 20.5695 29.5798 19.051 28.6508 18.1134C27.7221 17.1761 26.2036 17.1689 25.266 18.0976L19.8944 23.4191L16.3959 20.5723Z" fill="#0388C0"/>
</svg>
