<svg width="221" height="150" viewBox="0 0 221 150" fill="none" xmlns="http://www.w3.org/2000/svg">
<path d="M61.2718 282.095L197.175 227.049C210.362 221.784 220.807 202.312 220.576 183.823L218.28 -0.000145473L180.637 15.3481L23.8926 78.9437C10.7054 84.2094 0.226225 100.919 0.459757 119.62L2.35721 271.566C2.58809 290.055 2.5987 290.905 2.5987 290.905L40.4278 290.432L61.2718 282.095ZM42.8778 127.167C42.8062 121.429 46.1514 115.436 50.191 113.685L176.949 62.3667L178.369 176.061C178.441 181.799 175.095 187.792 171.056 189.542L44.2976 240.861L42.8778 127.167Z" fill="url(#paint0_linear)" fill-opacity="0.16"/>
<defs>
<linearGradient id="paint0_linear" x1="159.961" y1="74.968" x2="-48.9037" y2="366.363" gradientUnits="userSpaceOnUse">
<stop stop-color="#C4C4C4"/>
<stop offset="1" stop-color="#C4C4C4" stop-opacity="0"/>
</linearGradient>
</defs>
</svg>
