<svg width="223" height="150" viewBox="0 0 223 150" fill="none" xmlns="http://www.w3.org/2000/svg">
<path d="M62.2717 282.095L198.175 227.049C211.362 221.784 221.807 202.312 221.576 183.823L219.28 -0.000145473L181.637 15.3481L24.8924 78.9437C11.7053 84.2094 1.2261 100.919 1.45964 119.62L3.35709 271.566C3.58796 290.055 3.59858 290.905 3.59858 290.905L41.4276 290.432L62.2717 282.095ZM43.8777 127.167C43.806 121.429 47.1513 115.436 51.1908 113.685L177.949 62.3667L179.369 176.061C179.44 181.799 176.095 187.792 172.056 189.542L45.2975 240.861L43.8777 127.167Z" fill="url(#paint0_linear)" fill-opacity="0.16"/>
<defs>
<linearGradient id="paint0_linear" x1="160.961" y1="74.968" x2="-47.9039" y2="366.363" gradientUnits="userSpaceOnUse">
<stop stop-color="#C4C4C4"/>
<stop offset="1" stop-color="#C4C4C4" stop-opacity="0"/>
</linearGradient>
</defs>
</svg>
