<svg width="314" height="293" viewBox="0 0 314 293" fill="none" xmlns="http://www.w3.org/2000/svg">
<path d="M300.394 58.3108C295.085 46.5258 284.487 36.3736 271.378 33.9827C255.533 31.0906 239.991 39.6611 227.32 49.2086C214.651 58.7561 202.431 69.9681 186.823 73.8007C158.911 80.663 131.117 61.8831 102.317 60.4741C83.5088 59.5506 64.4588 66.5248 51.0823 79.2285C1.24593 126.556 23.1102 220.299 76.8595 244.388C120.253 263.836 182.518 273.41 222.304 248.033C260.258 223.825 298.276 149.829 304.361 106.348C304.843 102.934 305.205 99.5232 305.451 96.1286C306.381 83.3349 305.699 70.0983 300.394 58.3108Z" fill="url(#paint0_linear)"/>
<path d="M73.6193 147.766C71.7541 151.889 70.1224 157.524 69.1892 163.049L64.7178 142.393C70.3828 144.312 81.9245 130.411 86.1149 121.177C90.3697 111.782 87.6552 101.244 83.7605 99.606C81.13 98.5012 70.2514 102.666 65.9942 112.06C64.028 116.401 62.3598 122.649 61.6785 128.36L57.145 107.417L57.3397 107.242C61.2855 108.089 68.8936 98.8687 71.6871 92.7024C74.5914 86.2928 72.7371 79.1057 70.0847 77.99C68.2889 77.2344 60.8706 80.0778 57.9651 86.4838C56.6206 89.4526 55.4866 93.7208 55.0243 97.6264L52.0032 83.672C52.1249 83.6683 52.2466 83.6695 52.3597 83.6379C55.2251 82.83 55.1788 73.7777 53.81 68.9316C52.44 64.0842 48.1085 61.0084 46.1411 61.6216C44.8125 62.0377 42.0627 67.0164 43.4315 71.8626C44.6908 76.3097 48.7461 83.1817 51.6187 83.6525C52.2964 87.647 53.1932 92.9092 54.2347 99.039C51.3498 95.9352 47.3408 92.8581 44.125 91.1961C37.8711 87.9694 30.5989 89.4538 29.3517 92.0478C28.5037 93.8011 30.9639 101.358 37.2153 104.585C42.3377 107.227 51.5628 109.442 55.7835 108.119C57.2217 116.562 58.8302 126 60.48 135.64C56.8676 129.778 48.2667 122.601 41.8388 119.283C32.6722 114.552 22.0089 116.726 20.1766 120.531C18.9379 123.103 22.5418 134.178 31.7085 138.909C40.6927 143.544 58.2887 147.284 61.6225 142.327C63.4962 153.277 65.3748 164.238 67.0661 174.054C62.8124 167.492 53.3306 159.636 46.2092 155.96C35.8076 150.592 23.7099 153.058 21.6281 157.377C20.224 160.297 24.3134 172.863 34.7162 178.236C44.7662 183.421 64.3321 187.618 68.5018 182.345C71.2978 198.478 73.3114 209.892 73.438 209.98L78.8657 207.756L73.3735 182.387C80.1201 182.519 91.9818 167.97 96.4508 158.108C101.28 147.451 98.198 135.493 93.7789 133.634C90.7955 132.381 78.4484 137.106 73.6193 147.766Z" fill="white"/>
<path d="M249.949 88.4169C246.277 91.0633 242.057 95.138 238.498 99.4695L244.897 79.3257C248.859 83.808 265.787 77.4958 274.015 71.5704C282.383 65.5379 285.271 55.0451 282.707 51.6869C280.976 49.4202 269.466 47.6195 261.101 53.6507C257.234 56.437 252.68 61.0252 249.248 65.6401L255.735 45.2201L255.992 45.1642C258.991 47.8616 270.18 43.6518 275.669 39.6902C281.379 35.5765 283.344 28.4198 281.598 26.1312C280.418 24.5835 272.57 23.3571 266.861 27.4696C264.218 29.3762 261.111 32.514 258.767 35.6726L263.092 22.0637C263.197 22.1209 263.303 22.1842 263.416 22.2122C266.304 22.9373 270.768 15.0616 271.992 10.1765C273.215 5.29016 270.989 0.465926 268.974 0.020614C267.617 -0.278702 262.752 2.67061 261.531 7.5557C260.409 12.0405 260.506 20.016 262.767 21.8569C261.368 25.6603 259.525 30.6683 257.379 36.5024C256.422 32.3766 254.476 27.7117 252.514 24.6711C248.696 18.7604 241.647 16.4304 239.273 18.0595C237.667 19.1594 236.042 26.9366 239.857 32.845C242.987 37.6863 249.887 44.1981 254.205 45.152C251.248 53.1908 247.95 62.1762 244.583 71.3611C244.371 64.4782 240.478 53.9707 236.552 47.8944C230.955 39.2303 220.626 35.8113 217.143 38.1997C214.788 39.8143 212.402 51.2148 218 59.8815C223.487 68.3692 236.889 80.3684 242.248 77.7294C238.424 88.159 234.601 98.6008 231.183 107.959C230.76 100.148 226.442 88.6177 222.093 81.8856C215.742 72.0546 204.02 68.1721 200.067 70.8842C197.397 72.7165 194.693 85.6526 201.044 95.486C207.18 104.986 222.063 118.366 228.301 115.862C222.698 131.249 218.771 142.15 218.834 142.29L224.651 143.063L232.508 118.325C238.293 121.796 255.822 115.079 264.603 108.751C274.098 101.905 277.375 89.9999 274.469 86.1916C272.5 83.6146 259.441 81.5717 249.949 88.4169Z" fill="#D2DFE7"/>
<path d="M5.77596 128.071C0.331192 132.435 -0.948764 141.719 0.626873 148.316C2.5079 156.195 9.61346 160.941 12.1296 168.429C13.5605 172.673 12.3596 174.707 11.1623 178.788C9.64388 183.965 8.88587 191.344 10.7024 196.556C13.4218 204.367 20.8607 211.263 28.352 214.764C37.6659 219.115 49.2076 216.931 58.5191 221.838C64.9384 225.225 67.9486 233.92 74.6539 236.799C81.5076 239.746 95.7406 237.662 96.7919 228.649C97.9806 218.452 87.8332 211.572 87.4585 201.986C87.2444 196.506 89.6035 190.698 89.6607 185.019C89.7313 177.577 88.4124 168.666 85.1005 161.894C78.8308 149.078 67.4716 137.268 52.601 137.184C49.1395 137.163 45.4443 138.128 41.9962 137.229C37.6111 136.084 36.5636 133.046 33.7055 129.931C29.8254 125.707 21.7343 123.4 15.8954 123.04C11.2524 122.756 9.33971 124.822 5.87331 127.981C6.16532 127.715 6.45854 127.45 6.74811 127.186" fill="url(#paint1_linear)"/>
<path d="M8.90918 132.414L92.5129 235.313L93.4571 234.546L9.85456 131.648" fill="#ABAEDE"/>
<path d="M20.8281 195.391L60.7824 195.915L60.7982 194.698L20.844 194.175" fill="#ABAEDE"/>
<path d="M58.8125 153.349L60.1825 195.325L61.3992 195.285L60.0292 153.309" fill="#ABAEDE"/>
<path d="M8.28516 151.754L28.0372 155.736L28.2781 154.544L8.52606 150.56" fill="#ABAEDE"/>
<path d="M20.0723 131.167L27.5757 155.32L28.7377 154.96L21.2342 130.807" fill="#ABAEDE"/>
<path d="M64.3242 218.149L83.9218 224.586L84.3014 223.429L64.7051 216.991" fill="#ABAEDE"/>
<path d="M76.4424 198.001L82.1816 222.504L83.3667 222.227L77.6262 197.724" fill="#ABAEDE"/>
<path d="M194 231.985C182.786 232.874 173.5 223.582 174.381 212.373C175.074 203.547 182.226 196.396 191.05 195.708C202.256 194.821 211.549 204.1 210.667 215.32C209.966 224.138 202.818 231.289 194 231.985ZM230.319 217.846V209.854C230.319 208 228.82 206.499 226.969 206.499H224.48C222.898 206.499 221.488 205.501 220.972 204.008C220.578 202.868 220.119 201.764 219.602 200.695C218.91 199.271 219.201 197.565 220.313 196.444L222.073 194.688C223.383 193.381 223.383 191.25 222.073 189.946L216.425 184.296C215.109 182.982 212.988 182.982 211.685 184.296L209.925 186.049C208.808 187.174 207.101 187.461 205.671 186.772C204.604 186.254 203.497 185.79 202.358 185.396C200.872 184.878 199.872 183.469 199.872 181.886V179.402C199.872 177.549 198.372 176.052 196.52 176.052H188.53C186.672 176.052 185.173 177.549 185.173 179.402V181.886C185.173 183.469 184.178 184.878 182.679 185.396C181.546 185.79 180.441 186.254 179.372 186.772C177.951 187.461 176.247 187.174 175.122 186.049L173.366 184.296C172.054 182.982 169.93 182.982 168.626 184.296L162.97 189.946C161.66 191.25 161.66 193.381 162.97 194.688L164.726 196.444C165.849 197.565 166.144 199.271 165.449 200.695C164.928 201.764 164.466 202.868 164.079 204.008C163.562 205.501 162.15 206.499 160.566 206.499H158.085C156.229 206.499 154.729 208 154.729 209.854V217.846C154.729 219.7 156.229 221.196 158.085 221.196H160.566C162.15 221.196 163.562 222.192 164.079 223.685C164.466 224.825 164.928 225.923 165.449 226.998C166.144 228.425 165.849 230.129 164.726 231.246L162.97 232.997C161.66 234.314 161.66 236.433 162.97 237.746L168.626 243.394C169.93 244.703 172.054 244.703 173.366 243.394L175.122 241.643C176.247 240.526 177.951 240.229 179.372 240.92C180.441 241.444 181.546 241.897 182.679 242.297C184.178 242.815 185.173 244.224 185.173 245.802V248.29C185.173 250.138 186.672 251.645 188.53 251.645H196.52C198.372 251.645 199.872 250.138 199.872 248.29V245.802C199.872 244.224 200.872 242.815 202.358 242.297C203.497 241.897 204.604 241.444 205.671 240.92C207.101 240.229 208.808 240.526 209.925 241.643L211.685 243.394C212.988 244.703 215.109 244.703 216.425 243.394L222.073 237.746C223.383 236.433 223.383 234.314 222.073 232.997L220.313 231.246C219.201 230.129 218.91 228.425 219.602 226.998C220.119 225.923 220.578 224.825 220.972 223.685C221.488 222.192 222.898 221.196 224.48 221.196H226.969C228.82 221.196 230.319 219.7 230.319 217.846Z" fill="white"/>
<path d="M255.828 111.925C244.613 112.815 235.326 103.523 236.209 92.3118C236.9 83.487 244.055 76.3364 252.878 75.6453C264.082 74.762 273.377 84.043 272.492 95.2623C271.796 104.081 264.646 111.23 255.828 111.925ZM292.148 97.787V89.7956C292.148 87.9402 290.649 86.4387 288.796 86.4387H286.307C284.726 86.4387 283.314 85.441 282.801 83.9469C282.407 82.8093 281.947 81.7033 281.43 80.635C280.734 79.2127 281.029 77.5081 282.141 76.3875L283.901 74.6281C285.21 73.3214 285.21 71.1885 283.901 69.8891L278.254 64.235C276.939 62.9234 274.814 62.9234 273.51 64.235L271.752 65.9932C270.637 67.1162 268.927 67.4021 267.498 66.711C266.432 66.1927 265.323 65.7304 264.185 65.3349C262.697 64.8203 261.699 63.4089 261.699 61.8271V59.3426C261.699 57.4896 260.2 55.9906 258.345 55.9906H250.356C248.499 55.9906 247.002 57.4896 247.002 59.3426V61.8271C247.002 63.4089 246.003 64.8203 244.505 65.3349C243.371 65.7304 242.267 66.1927 241.199 66.711C239.774 67.4021 238.073 67.1162 236.948 65.9932L235.192 64.235C233.882 62.9234 231.757 62.9234 230.453 64.235L224.797 69.8891C223.489 71.1885 223.489 73.3214 224.797 74.6281L226.555 76.3875C227.678 77.5081 227.971 79.2127 227.278 80.635C226.757 81.7033 226.296 82.8093 225.905 83.9469C225.387 85.441 223.977 86.4387 222.394 86.4387H219.909C218.057 86.4387 216.555 87.9402 216.555 89.7956V97.787C216.555 99.64 218.057 101.137 219.909 101.137H222.394C223.977 101.137 225.387 102.133 225.905 103.626C226.296 104.764 226.757 105.865 227.278 106.938C227.971 108.365 227.678 110.072 226.555 111.188L224.797 112.94C223.489 114.255 223.489 116.377 224.797 117.685L230.453 123.337C231.757 124.645 233.882 124.645 235.192 123.337L236.948 121.582C238.073 120.466 239.774 120.167 241.199 120.861C242.267 121.385 243.371 121.836 244.505 122.237C246.003 122.753 247.002 124.164 247.002 125.743V128.231C247.002 130.081 248.499 131.583 250.356 131.583H258.345C260.2 131.583 261.699 130.081 261.699 128.231V125.743C261.699 124.164 262.697 122.753 264.185 122.237C265.323 121.836 266.432 121.385 267.498 120.861C268.927 120.167 270.637 120.466 271.752 121.582L273.51 123.337C274.814 124.645 276.939 124.645 278.254 123.337L283.901 117.685C285.21 116.377 285.21 114.255 283.901 112.94L282.141 111.188C281.029 110.072 280.734 108.365 281.43 106.938C281.947 105.865 282.407 104.764 282.801 103.626C283.314 102.133 284.726 101.137 286.307 101.137H288.796C290.649 101.137 292.148 99.64 292.148 97.787Z" fill="#0388C0"/>
<path d="M281.291 181.425C280.712 176.817 277.128 166.352 272.552 172.934C269.794 176.906 271.617 183.219 269.658 187.797C265.82 183.873 255.943 161.45 247.042 170.778C241.304 176.782 250.08 193.195 252.854 199.495C250.919 197.029 246.289 194.296 243.841 197.561C241.595 200.562 245.509 207.706 246.578 210.717C241.731 208.642 238.452 203.478 233.174 207.224C229.055 210.144 228.993 215.928 229.542 220.336C230.131 225.068 231.765 229.419 231.813 234.261C231.868 239.768 229.88 244.112 229.122 249.502C234.798 238.076 252.021 241.234 262.196 240.537C267.67 240.167 296.445 238.475 285.616 227.108C283.607 225.006 259.093 222.832 268.384 217.165C272.548 214.629 281.162 217.347 285.969 216.798C289.74 216.367 297.342 215.25 300.102 212.594C304.984 207.903 301.374 201.201 296.197 199.201C291.745 197.49 285.969 199.315 282.067 196.696C285.346 192.789 292.123 194.239 295.593 190.896C299.948 186.715 295.556 184.398 291.399 183.586C297.491 180.601 301.62 170.591 291.416 170.128C287.733 169.962 284.909 172 282.954 174.862C281.615 176.811 279.675 181.267 281.196 181.361C280.816 181.152 280.247 180.717 280.187 180.17" fill="#D2DFE7"/>
<path d="M64.8008 200.753C64.8008 204.662 68.0968 207.832 72.1655 207.832H236.139C240.206 207.832 243.505 204.662 243.505 200.753V95.4838C243.505 91.5721 240.206 88.4014 236.139 88.4014H72.1655C68.0968 88.4014 64.8008 91.5721 64.8008 95.4838V200.753Z" fill="url(#paint2_linear)"/>
<path d="M84.2412 194.385C84.2412 198.574 87.6407 201.972 91.8335 201.972H229.959C234.152 201.972 237.548 198.574 237.548 194.385V101.848C237.548 97.6567 234.152 94.2608 229.959 94.2608H91.8335C87.6407 94.2608 84.2412 97.6567 84.2412 101.848V194.385Z" fill="url(#paint3_linear)"/>
<path d="M68.2295 148.117C68.2295 151.615 71.0656 154.45 74.5637 154.45C78.0617 154.45 80.8967 151.615 80.8967 148.117C80.8967 144.618 78.0617 141.783 74.5637 141.783C71.0656 141.783 68.2295 144.618 68.2295 148.117Z" fill="url(#paint4_linear)"/>
<path d="M182.472 177.563C182.472 179.922 180.558 181.835 178.198 181.835C175.84 181.835 173.925 179.922 173.925 177.563V118.671C173.925 116.311 175.84 114.399 178.198 114.399C180.558 114.399 182.472 116.311 182.472 118.671V177.563Z" fill="url(#paint5_linear)"/>
<path d="M147.656 148.117C147.656 162.197 136.244 173.61 122.164 173.61C108.086 173.61 96.6719 162.197 96.6719 148.117C96.6719 134.039 108.086 122.624 122.164 122.624C136.244 122.624 147.656 134.039 147.656 148.117Z" fill="url(#paint6_linear)"/>
<path d="M138.937 148.117C138.937 157.38 131.427 164.888 122.163 164.888C112.9 164.888 105.392 157.38 105.392 148.117C105.392 138.852 112.9 131.345 122.163 131.345C131.427 131.345 138.937 138.852 138.937 148.117Z" fill="url(#paint7_linear)"/>
<path d="M136.364 148.117C136.364 155.956 130.006 162.316 122.163 162.316C114.322 162.316 107.964 155.956 107.964 148.117C107.964 140.269 114.322 133.916 122.163 133.916C130.006 133.916 136.364 140.269 136.364 148.117Z" fill="url(#paint8_linear)"/>
<path d="M121.477 129.755H122.852V124.147H121.477V129.755Z" fill="#D2DFE7"/>
<path d="M128.341 130.924L127.117 130.295L129.671 125.304L130.896 125.933L128.341 130.924Z" fill="#D2DFE7"/>
<path d="M133.096 133.854L132.08 132.925L135.853 128.781L136.87 129.709L133.096 133.854Z" fill="#D2DFE7"/>
<path d="M137.119 137.549L136.29 136.453L140.757 133.062L141.585 134.161L137.119 137.549Z" fill="#D2DFE7"/>
<path d="M139.313 142.157L138.75 140.904L143.858 138.595L144.423 139.852L139.313 142.157Z" fill="#D2DFE7"/>
<path d="M140.697 146.833L140.657 145.46L146.26 145.28L146.302 146.656L140.697 146.833Z" fill="#D2DFE7"/>
<path d="M140.596 151.323L140.862 149.974L146.363 151.053L146.095 152.404L140.596 151.323Z" fill="#D2DFE7"/>
<path d="M130.014 165.221L131.25 164.616L133.716 169.652L132.48 170.257L130.014 165.221Z" fill="#D2DFE7"/>
<path d="M124.57 166.587L125.949 166.612L125.85 172.218L124.472 172.191L124.57 166.587Z" fill="#D2DFE7"/>
<path d="M119.014 166.047L120.331 166.43L118.767 171.814L117.445 171.431L119.014 166.047Z" fill="#D2DFE7"/>
<path d="M113.775 164.497L115.003 165.116L112.483 170.125L111.254 169.507L113.775 164.497Z" fill="#D2DFE7"/>
<path d="M109.776 161.325L110.836 162.203L107.258 166.522L106.201 165.644L109.776 161.325Z" fill="#D2DFE7"/>
<path d="M106.475 157.734L107.117 158.952L102.163 161.575L101.521 160.358L106.475 157.734Z" fill="#D2DFE7"/>
<path d="M104.592 153.657L104.946 154.987L99.5332 156.436L99.1768 155.108L104.592 153.657Z" fill="#D2DFE7"/>
<path d="M159.564 248.273L29.285 270.939L19.4893 214.642L149.77 191.976L159.564 248.273Z" fill="url(#paint9_linear)"/>
<path d="M145.481 209.815C141.698 210.474 138.099 207.943 137.442 204.16C137.115 202.283 137.576 200.45 138.587 198.999L33.9438 217.209C35.3807 218.233 36.4307 219.8 36.7568 221.672C37.415 225.455 34.8843 229.053 31.1015 229.711C29.6877 229.958 28.297 229.756 27.0791 229.21L31.5055 254.651C32.4679 253.726 33.7089 253.068 35.1227 252.824C38.9055 252.168 42.5033 254.699 43.1615 258.48C43.4876 260.359 43.0253 262.193 42.0118 263.644L146.666 245.436C145.224 244.411 144.173 242.845 143.847 240.966C143.188 237.185 145.718 233.587 149.501 232.929C150.298 232.788 151.086 232.8 151.839 232.927L147.682 209.025C147.015 209.403 146.279 209.675 145.481 209.815Z" fill="url(#paint10_linear)"/>
<path d="M107.844 228.268C109.606 238.387 102.833 248.014 92.7134 249.774C82.5977 251.534 72.9687 244.76 71.2093 234.645C69.4475 224.525 76.2234 214.899 86.3403 213.141C96.4548 211.38 106.085 218.152 107.844 228.268Z" fill="url(#paint11_linear)"/>
<path d="M178.609 241.048L53.236 283.097L35.0645 228.918L160.439 186.869L178.609 241.048Z" fill="url(#paint12_linear)"/>
<path d="M158.887 205.153C155.248 206.374 151.308 204.414 150.088 200.776C149.482 198.967 149.662 197.088 150.442 195.501L49.7388 229.274C51.3132 230.07 52.5871 231.46 53.1943 233.264C54.4134 236.904 52.4521 240.841 48.8129 242.063C47.4526 242.519 46.0509 242.531 44.7637 242.175L52.9753 266.659C53.7868 265.601 54.9123 264.763 56.2725 264.307C59.9117 263.085 63.8526 265.048 65.0718 268.686C65.6789 270.495 65.4976 272.378 64.7165 273.966L165.431 240.19C163.853 239.395 162.573 238.001 161.964 236.193C160.745 232.553 162.707 228.616 166.346 227.397C167.113 227.14 167.892 227.03 168.661 227.043L160.944 204.043C160.34 204.514 159.653 204.896 158.887 205.153Z" fill="url(#paint13_linear)"/>
<path d="M124.465 229.072C127.731 238.808 122.483 249.345 112.749 252.609C103.015 255.875 92.4767 250.63 89.2086 240.896C85.9454 231.158 91.1882 220.618 100.924 217.356C110.659 214.088 121.201 219.336 124.465 229.072Z" fill="url(#paint14_linear)"/>
<path d="M108.487 284.95H191.562V283.356H108.487V284.95Z" fill="url(#paint15_linear)"/>
<path d="M117.189 283.356H132.617V235.896H117.189V283.356Z" fill="url(#paint16_linear)"/>
<path d="M142.557 283.356H157.987V221.655H142.557V283.356Z" fill="url(#paint17_linear)"/>
<path d="M167.922 283.356H183.348V207.414H167.922V283.356Z" fill="url(#paint18_linear)"/>
<path d="M120.359 135.763C120.359 135.763 119.657 139.967 120.359 140.67C121.06 141.37 124.565 141.809 125.793 141.724C127.02 141.632 127.894 141.557 127.894 141.11C127.901 139.796 123.771 139.268 125.268 139.53C126.388 139.722 122.325 139.176 122.11 137.341C121.937 135.851 121.672 135.763 121.672 135.763H120.359Z" fill="#2D2D7F"/>
<path d="M134.3 141.587C134.3 141.587 133.976 145.838 134.736 146.473C135.496 147.112 139.027 147.239 140.24 147.042C141.455 146.845 142.32 146.688 142.283 146.242C142.171 144.933 138.011 144.776 139.525 144.905C140.656 145 136.565 144.813 136.184 143.003C135.88 141.535 135.61 141.472 135.61 141.472L134.3 141.587Z" fill="#2D2D7F"/>
<path d="M138.22 144.177H132.289L119.016 99.5571C119.016 99.5571 113.918 96.4107 111.957 96.1686C83.5367 92.6791 90.8783 79.4802 90.8783 79.4802L107.101 79.0507C107.101 79.0507 126.925 87.1309 130.031 92.7801C133.136 98.4293 138.22 144.177 138.22 144.177Z" fill="url(#paint19_linear)"/>
<path d="M124.086 138.278L120.863 107.661C120.863 107.661 119.667 94.2086 115.477 92.2753C111.286 90.3407 95.6369 80.5158 95.6369 80.5158L81.9185 77.0445C81.9185 77.0445 77.4069 87.2004 82.3747 93.7877C87.435 100.498 105.501 99.2896 107.535 104.924C111.702 116.465 118.231 138.278 118.231 138.278H124.086Z" fill="url(#paint20_linear)"/>
<path d="M76.6367 83.208C76.6367 83.208 81.4731 73.3661 82.1545 68.992C83.0816 63.0411 81.1519 51.6661 84.8824 47.5792C86.1842 46.1532 90.0655 43.6054 92.4296 43.6066C99.3867 43.6127 101.593 47.9186 102.063 51.1234C103.538 61.1528 108.517 77.6842 106.818 79.8426C100.251 88.1917 76.6367 83.208 76.6367 83.208Z" fill="url(#paint21_linear)"/>
<path d="M90.5 45.0035C91.3115 41.9314 91.0609 37.0937 91.0609 37.0937L96.7831 38.8287C96.7831 38.8287 96.7831 42.5032 96.7831 43.7284C96.7831 44.6921 96.7831 45.5206 96.7831 45.5206C96.7831 45.5206 96.5069 46.7593 94.1842 46.7593C91.6242 46.7593 90.5 45.0035 90.5 45.0035Z" fill="#F7B739"/>
<path d="M100.724 32.1563C100.247 35.5728 99.5157 40.6222 95.6271 41.132C93.2423 41.4434 90.781 38.8664 90.5303 35.4256C90.1811 30.6293 92.8104 25.9121 95.6271 25.9121C98.4426 25.9121 101.432 27.1045 100.724 32.1563Z" fill="#F7B739"/>
<path d="M91.6241 34.7028C92.0937 34.0239 90.8077 28.5438 94.8764 28.0365C96.3218 27.8552 97.7271 27.9623 98.3038 28.3747C100.828 30.1937 99.9963 34.1127 100.331 34.2003C101.68 34.558 102.863 30.3652 102.026 28.2506C101.189 26.136 99.8576 23.7987 95.6648 23.806C93.5574 23.8108 90.4998 24.5676 88.5738 26.6823C86.9203 28.5 88.4035 31.2437 88.4035 31.2437C89.0568 32.7318 89.4352 35.4255 89.4352 35.4255C89.4352 35.4255 91.3929 35.035 91.6241 34.7028Z" fill="url(#paint22_linear)"/>
<path d="M89.0557 36.1044C89.0557 37.1581 89.5472 38.011 90.1495 38.011C90.7542 38.011 91.2445 37.1581 91.2445 36.1044C91.2445 35.052 90.7542 34.1991 90.1495 34.1991C89.5472 34.1991 89.0557 35.052 89.0557 36.1044Z" fill="#F7B739"/>
<path d="M166.603 85.6636C166.603 86.9739 165.54 88.0374 164.229 88.0374H101.259C99.9501 88.0374 98.8867 86.9739 98.8867 85.6636V43.5314C98.8867 42.221 99.9501 41.1576 101.259 41.1576H164.229C165.54 41.1576 166.603 42.221 166.603 43.5314V85.6636Z" fill="url(#paint23_linear)"/>
<path d="M98.8867 76.762H166.603V66.1229H98.8867V76.762Z" fill="url(#paint24_linear)"/>
<path d="M107.821 48.5842H148.172V45.2178H107.821V48.5842Z" fill="white"/>
<path d="M107.821 60.6589H123.25V54.4889H107.821V60.6589Z" fill="white"/>
<path d="M136.587 60.6589H161.924V54.4889H136.587V60.6589Z" fill="white"/>
<path d="M111.629 74.1799C111.629 74.1799 110.285 71.6747 112.487 71.2245C114.69 70.7768 117.633 70.0322 117.633 70.0322C117.633 70.0322 119.994 71.5433 118.743 72.4692C117.491 73.3964 111.629 74.1799 111.629 74.1799Z" fill="url(#paint25_linear)"/>
<path d="M82.6055 55.32C82.8696 59.2269 86.2691 68.0322 90.7745 72.1069C95.2812 76.1854 95.6426 76.318 99.9327 77.0444C104.219 77.7634 113.084 77.1977 113.084 77.1977V69.3329C113.084 69.3329 102.936 69.3037 100.831 68.8316C93.7129 67.2316 95.6657 49.6636 88.1659 46.7593C84.3771 45.2919 82.35 51.4144 82.6055 55.32Z" fill="url(#paint26_linear)"/>
<path d="M305.783 288.13C305.783 290.33 286.881 292.115 263.563 292.115C240.248 292.115 221.347 290.33 221.347 288.13C221.347 285.929 240.248 284.144 263.563 284.144C286.881 284.144 305.783 285.929 305.783 288.13Z" fill="url(#paint27_linear)"/>
<path d="M235.776 164.149C233.597 168.94 226.77 167.823 222.204 166.637C217.638 165.447 213.335 162.775 210.92 159.798C208.501 156.821 201.261 148.218 201.261 148.218L205.119 143.256C205.119 143.256 215.138 155.382 220.002 156.537C223.236 157.31 234.928 152.151 238.043 153.351C239.377 153.866 237.202 161.017 235.776 164.149Z" fill="url(#paint28_linear)"/>
<path d="M193.974 126.449C185.917 126.449 178.65 129.834 173.51 135.252V174.092C178.65 179.51 185.917 182.895 193.974 182.895C209.558 182.895 222.196 170.259 222.196 154.672C222.196 139.086 209.558 126.449 193.974 126.449Z" fill="url(#paint29_linear)"/>
<path d="M193.972 128.101C185.744 128.101 178.384 131.859 173.51 137.747V143.365C177.503 136.167 185.174 131.278 193.972 131.278C206.868 131.278 217.366 141.773 217.366 154.671C217.366 167.569 206.868 178.063 193.972 178.063C185.174 178.063 177.503 173.172 173.51 165.976V171.593C178.384 177.482 185.744 181.242 193.972 181.242C208.62 181.242 220.54 169.319 220.54 154.671C220.54 140.024 208.62 128.101 193.972 128.101Z" fill="#F57815"/>
<path d="M204.788 160.047C204.788 162.754 203.847 164.824 201.963 166.24C200.08 167.656 197.265 168.367 193.515 168.367C191.592 168.367 189.953 168.237 188.597 167.975C187.244 167.716 185.976 167.335 184.793 166.829V160.877C186.133 161.503 187.641 162.032 189.317 162.457C190.999 162.882 192.472 163.096 193.749 163.096C196.365 163.096 197.674 162.341 197.674 160.827C197.674 160.259 197.499 159.798 197.151 159.446C196.806 159.092 196.207 158.688 195.358 158.239C194.504 157.79 193.373 157.269 191.953 156.668C189.921 155.818 188.429 155.031 187.474 154.305C186.523 153.581 185.828 152.747 185.396 151.811C184.962 150.874 184.745 149.72 184.745 148.348C184.745 146 185.655 144.185 187.474 142.901C189.296 141.616 191.874 140.974 195.216 140.974C198.397 140.974 201.494 141.669 204.504 143.053L202.329 148.254C201.004 147.685 199.77 147.219 198.62 146.86C197.469 146.497 196.293 146.317 195.098 146.317C192.97 146.317 191.907 146.892 191.907 148.042C191.907 148.69 192.25 149.246 192.934 149.72C193.621 150.193 195.121 150.894 197.435 151.822C199.501 152.659 201.014 153.439 201.975 154.161C202.936 154.888 203.644 155.722 204.102 156.668C204.559 157.614 204.788 158.74 204.788 160.047Z" fill="#FBDA75"/>
<path d="M263.91 283.097C263.91 283.097 265.821 286.908 265.359 287.784C264.898 288.659 261.677 290.117 260.479 290.397C259.28 290.674 258.421 290.858 258.289 290.43C257.894 289.175 261.685 287.457 260.333 288.146C259.322 288.662 263.04 286.939 262.7 285.124C262.43 283.645 262.653 283.486 262.653 283.486L263.91 283.097Z" fill="#2D2D7F"/>
<path d="M228.883 282.51C228.883 282.51 229.584 286.716 228.883 287.415C228.182 288.115 224.676 288.555 223.45 288.472C222.224 288.379 221.348 288.303 221.347 287.854C221.341 286.54 225.471 286.014 223.974 286.276C222.854 286.468 226.916 285.922 227.13 284.087C227.305 282.598 227.57 282.51 227.57 282.51H228.883Z" fill="#2D2D7F"/>
<path d="M262.889 262.075C261.889 257.334 260.873 254.237 260.099 252.305C260.496 251.761 260.72 251.205 260.672 250.709C260.478 248.667 258.966 229.195 258.899 220.491C258.887 219.12 258.871 217.833 258.847 216.589H258.852C258.852 216.589 258.697 199.719 256.05 196.9C255.518 196.334 254.072 195.86 252.114 195.461C251.271 194.611 250.671 194.087 250.671 194.087C250.671 194.087 249.914 194.434 248.831 194.916C240.523 193.78 228.231 193.488 228.231 193.488C228.231 193.488 227.741 199.224 227.327 205.037C227.044 207.775 226.911 210.879 226.669 215.135C226.614 216.108 226.552 217.145 226.483 218.252C226.043 225.213 224.905 242.025 225.388 249.747C225.368 250.262 225.355 250.829 225.355 251.472C225.357 256.115 225.355 284.947 225.355 284.947H229.439C229.439 284.947 232.73 272.678 233.353 262.864C233.688 257.586 233.48 254.192 233.216 252.175C233.441 251.901 233.599 251.614 233.652 251.32C234.009 249.3 237.769 230.134 240.033 221.731C240.491 220.042 240.898 218.481 241.279 216.983C241.699 216.973 242.126 216.966 242.551 216.96C242.791 218.287 243.087 219.69 243.469 221.199C245.012 227.315 248.54 241.208 251.305 249.145C251.358 250.053 251.61 251.362 252.132 253.24C253.376 257.715 261.098 285.497 261.098 285.497L265.033 284.403C265.033 284.403 264.919 271.697 262.889 262.075Z" fill="url(#paint30_linear)"/>
<path d="M263.92 111.513C259.936 117.813 256.134 128.297 247.449 128.211C241.038 128.14 232.605 129.024 233.113 139.542C233.452 146.502 241.697 150.834 246.537 154.465C259.948 164.539 278.933 164.216 292.948 155.749C306.618 147.486 318.061 130.705 312.098 114.349C309.949 108.451 305.519 102.948 299.785 100.183C286.407 93.7463 270.766 100.672 263.92 111.513Z" fill="#2D2D7F"/>
<path d="M229.125 178.504C230.045 172.606 232.214 157.99 234.044 155.135C235.577 152.739 238.961 151.904 243.632 151.874C247.696 151.846 256.972 154.213 255.519 167.502C255.038 171.905 258.261 200.46 258.261 200.46C258.261 200.46 245.6 197.34 238.618 196.7C231.641 196.064 226.709 198.832 226.881 197.924C227.733 193.444 228.373 183.336 229.125 178.504Z" fill="url(#paint31_linear)"/>
<path d="M246.848 154.437C246.035 151.364 246.344 153.016 246.155 151.445C246.004 150.129 246.288 145.324 246.288 145.324L240.564 147.058C240.564 147.058 240.564 150.734 240.564 151.958C240.564 152.923 240.564 152.923 240.564 152.923C240.564 152.923 240.837 156.19 243.163 156.19C245.723 156.19 246.848 154.437 246.848 154.437Z" fill="#F7B739"/>
<path d="M236.622 140.387C237.097 143.805 237.831 148.852 241.718 149.363C244.104 149.672 246.567 147.099 246.816 143.655C247.164 138.859 244.494 140.088 241.678 140.088C238.86 140.088 235.916 135.338 236.622 140.387Z" fill="#F7B739"/>
<path d="M248.084 144.976C247.469 145.83 246.569 146.234 246.082 145.88C245.589 145.526 245.693 144.546 246.311 143.696C246.927 142.843 247.825 142.439 248.315 142.793C248.802 143.147 248.697 144.123 248.084 144.976Z" fill="#F7B739"/>
<path d="M214.618 170.822C214.618 170.822 211.629 170.175 209.957 168.504C208.289 166.831 207.425 166.014 208.741 164.745C209.331 164.178 209.331 164.178 210.293 164.194C211.219 164.206 212.103 163.709 215.918 168.564L214.618 170.822Z" fill="#F7B739"/>
<path d="M211.943 172.597C211.943 172.597 212.942 166.066 217.465 167.911C225.179 171.057 234.6 174.029 237.234 171.385C239.874 168.74 248.593 153.437 251.381 154.482C258.834 157.284 255.685 162.407 255.66 164.182C255.561 171.544 242.847 181.167 239.072 182.352C235.299 183.54 211.943 172.597 211.943 172.597Z" fill="url(#paint32_linear)"/>
<defs>
<linearGradient id="paint0_linear" x1="59.9947" y1="234.91" x2="280.178" y2="32.8171" gradientUnits="userSpaceOnUse">
<stop stop-color="#D2DFE7"/>
<stop offset="0.00529099" stop-color="#D2DFE7"/>
<stop offset="0.37037" stop-color="#ECF0F3"/>
<stop offset="1" stop-color="#ECF0F3"/>
</linearGradient>
<linearGradient id="paint1_linear" x1="19.2109" y1="208.953" x2="80.3658" y2="153.273" gradientUnits="userSpaceOnUse">
<stop stop-color="#584FAB"/>
<stop offset="0.227513" stop-color="#584FAB"/>
<stop offset="0.920635" stop-color="#5D54AF"/>
<stop offset="1" stop-color="#5D54AF"/>
</linearGradient>
<linearGradient id="paint2_linear" x1="226.571" y1="220.537" x2="81.7325" y2="75.6989" gradientUnits="userSpaceOnUse">
<stop stop-color="#5D54AF"/>
<stop offset="0.0793651" stop-color="#5D54AF"/>
<stop offset="0.560847" stop-color="#2D2D7E"/>
<stop offset="0.920635" stop-color="#5E2791"/>
<stop offset="1" stop-color="#5E2791"/>
</linearGradient>
<linearGradient id="paint3_linear" x1="223.927" y1="211.149" x2="97.8635" y2="85.0856" gradientUnits="userSpaceOnUse">
<stop stop-color="#ACAEDE"/>
<stop offset="0.206349" stop-color="#ACAEDE"/>
<stop offset="0.851852" stop-color="#D2DFE7"/>
<stop offset="1" stop-color="#D2DFE7"/>
</linearGradient>
<linearGradient id="paint4_linear" x1="79.0412" y1="152.595" x2="70.0844" y2="143.638" gradientUnits="userSpaceOnUse">
<stop stop-color="#584FAB"/>
<stop offset="0.227513" stop-color="#584FAB"/>
<stop offset="0.920635" stop-color="#5D54AF"/>
<stop offset="1" stop-color="#5D54AF"/>
</linearGradient>
<linearGradient id="paint5_linear" x1="160.455" y1="165.861" x2="195.943" y2="130.372" gradientUnits="userSpaceOnUse">
<stop stop-color="#5D54AF"/>
<stop offset="0.0793651" stop-color="#5D54AF"/>
<stop offset="0.560847" stop-color="#2D2D7E"/>
<stop offset="0.920635" stop-color="#5E2791"/>
<stop offset="1" stop-color="#5E2791"/>
</linearGradient>
<linearGradient id="paint6_linear" x1="96.6719" y1="148.117" x2="147.656" y2="148.117" gradientUnits="userSpaceOnUse">
<stop stop-color="#D2DFE7"/>
<stop offset="0.00529099" stop-color="#D2DFE7"/>
<stop offset="0.37037" stop-color="#ECF0F3"/>
<stop offset="1" stop-color="#ECF0F3"/>
</linearGradient>
<linearGradient id="paint7_linear" x1="105.392" y1="148.117" x2="138.937" y2="148.117" gradientUnits="userSpaceOnUse">
<stop stop-color="#5D54AF"/>
<stop offset="0.0793651" stop-color="#5D54AF"/>
<stop offset="0.560847" stop-color="#2D2D7E"/>
<stop offset="0.920635" stop-color="#5E2791"/>
<stop offset="1" stop-color="#5E2791"/>
</linearGradient>
<linearGradient id="paint8_linear" x1="107.964" y1="148.117" x2="136.364" y2="148.117" gradientUnits="userSpaceOnUse">
<stop stop-color="#D2DFE7"/>
<stop offset="0.00529099" stop-color="#D2DFE7"/>
<stop offset="0.37037" stop-color="#ECF0F3"/>
<stop offset="1" stop-color="#ECF0F3"/>
</linearGradient>
<linearGradient id="paint9_linear" x1="24.3865" y1="242.791" x2="154.667" y2="220.125" gradientUnits="userSpaceOnUse">
<stop stop-color="#ACAEDE"/>
<stop offset="0.216931" stop-color="#ACAEDE"/>
<stop offset="0.915344" stop-color="#796FBF"/>
<stop offset="1" stop-color="#796FBF"/>
</linearGradient>
<linearGradient id="paint10_linear" x1="29.2947" y1="241.935" x2="149.762" y2="220.977" gradientUnits="userSpaceOnUse">
<stop stop-color="#D2DFE7"/>
<stop offset="0.00529099" stop-color="#D2DFE7"/>
<stop offset="0.37037" stop-color="#ECF0F3"/>
<stop offset="1" stop-color="#ECF0F3"/>
</linearGradient>
<linearGradient id="paint11_linear" x1="71.2093" y1="234.643" x2="107.843" y2="228.27" gradientUnits="userSpaceOnUse">
<stop stop-color="#ACAEDE"/>
<stop offset="0.216931" stop-color="#ACAEDE"/>
<stop offset="0.915344" stop-color="#796FBF"/>
<stop offset="1" stop-color="#796FBF"/>
</linearGradient>
<linearGradient id="paint12_linear" x1="44.1508" y1="256.009" x2="169.524" y2="213.958" gradientUnits="userSpaceOnUse">
<stop stop-color="#ACAEDE"/>
<stop offset="0.216931" stop-color="#ACAEDE"/>
<stop offset="0.915344" stop-color="#796FBF"/>
<stop offset="1" stop-color="#796FBF"/>
</linearGradient>
<linearGradient id="paint13_linear" x1="48.8725" y1="254.426" x2="164.805" y2="215.541" gradientUnits="userSpaceOnUse">
<stop stop-color="#D2DFE7"/>
<stop offset="0.00529099" stop-color="#D2DFE7"/>
<stop offset="0.37037" stop-color="#ECF0F3"/>
<stop offset="1" stop-color="#ECF0F3"/>
</linearGradient>
<linearGradient id="paint14_linear" x1="89.2086" y1="240.896" x2="124.464" y2="229.071" gradientUnits="userSpaceOnUse">
<stop stop-color="#ACAEDE"/>
<stop offset="0.216931" stop-color="#ACAEDE"/>
<stop offset="0.915344" stop-color="#796FBF"/>
<stop offset="1" stop-color="#796FBF"/>
</linearGradient>
<linearGradient id="paint15_linear" x1="108.487" y1="284.153" x2="191.562" y2="284.153" gradientUnits="userSpaceOnUse">
<stop stop-color="#5D54AF"/>
<stop offset="0.0793651" stop-color="#5D54AF"/>
<stop offset="0.560847" stop-color="#2D2D7E"/>
<stop offset="0.920635" stop-color="#5E2791"/>
<stop offset="1" stop-color="#5E2791"/>
</linearGradient>
<linearGradient id="paint16_linear" x1="117.189" y1="259.626" x2="132.617" y2="259.626" gradientUnits="userSpaceOnUse">
<stop stop-color="#F7B739"/>
<stop offset="0.00529099" stop-color="#F7B739"/>
<stop offset="0.396825" stop-color="#F6AE3D"/>
<stop offset="0.878307" stop-color="#F68823"/>
<stop offset="1" stop-color="#F68823"/>
</linearGradient>
<linearGradient id="paint17_linear" x1="142.557" y1="252.505" x2="157.986" y2="252.505" gradientUnits="userSpaceOnUse">
<stop stop-color="#F7B739"/>
<stop offset="0.00529099" stop-color="#F7B739"/>
<stop offset="0.396825" stop-color="#F6AE3D"/>
<stop offset="0.878307" stop-color="#F68823"/>
<stop offset="1" stop-color="#F68823"/>
</linearGradient>
<linearGradient id="paint18_linear" x1="167.922" y1="245.385" x2="183.349" y2="245.385" gradientUnits="userSpaceOnUse">
<stop stop-color="#F7B739"/>
<stop offset="0.00529099" stop-color="#F7B739"/>
<stop offset="0.396825" stop-color="#F6AE3D"/>
<stop offset="0.878307" stop-color="#F68823"/>
<stop offset="1" stop-color="#F68823"/>
</linearGradient>
<linearGradient id="paint19_linear" x1="90.0266" y1="111.615" x2="138.22" y2="111.615" gradientUnits="userSpaceOnUse">
<stop stop-color="#5D54AF"/>
<stop offset="0.0793651" stop-color="#5D54AF"/>
<stop offset="0.560847" stop-color="#2D2D7E"/>
<stop offset="0.920635" stop-color="#5E2791"/>
<stop offset="1" stop-color="#5E2791"/>
</linearGradient>
<linearGradient id="paint20_linear" x1="80.0423" y1="107.662" x2="124.086" y2="107.662" gradientUnits="userSpaceOnUse">
<stop stop-color="#5D54AF"/>
<stop offset="0.0793651" stop-color="#5D54AF"/>
<stop offset="0.560847" stop-color="#2D2D7E"/>
<stop offset="0.920635" stop-color="#5E2791"/>
<stop offset="1" stop-color="#5E2791"/>
</linearGradient>
<linearGradient id="paint21_linear" x1="76.6367" y1="64.1459" x2="107.166" y2="64.1459" gradientUnits="userSpaceOnUse">
<stop stop-color="#ACAEDE"/>
<stop offset="0.0846561" stop-color="#ACAEDE"/>
<stop offset="0.777778" stop-color="#D2DFE7"/>
<stop offset="1" stop-color="#D2DFE7"/>
</linearGradient>
<linearGradient id="paint22_linear" x1="102.306" y1="29.6158" x2="87.7918" y2="29.6158" gradientUnits="userSpaceOnUse">
<stop stop-color="#5D54AF"/>
<stop offset="0.0793651" stop-color="#5D54AF"/>
<stop offset="0.560847" stop-color="#2D2D7E"/>
<stop offset="0.920635" stop-color="#5E2791"/>
<stop offset="1" stop-color="#5E2791"/>
</linearGradient>
<linearGradient id="paint23_linear" x1="96.3864" y1="58.6684" x2="169.102" y2="70.526" gradientUnits="userSpaceOnUse">
<stop stop-color="#ACAEDE"/>
<stop offset="0.216931" stop-color="#ACAEDE"/>
<stop offset="0.915344" stop-color="#796FBF"/>
<stop offset="1" stop-color="#796FBF"/>
</linearGradient>
<linearGradient id="paint24_linear" x1="98.9184" y1="65.926" x2="166.57" y2="76.9578" gradientUnits="userSpaceOnUse">
<stop stop-color="#5D54AF"/>
<stop offset="0.0793651" stop-color="#5D54AF"/>
<stop offset="0.560847" stop-color="#2D2D7E"/>
<stop offset="0.920635" stop-color="#5E2791"/>
<stop offset="1" stop-color="#5E2791"/>
</linearGradient>
<linearGradient id="paint25_linear" x1="112.722" y1="70.3826" x2="117.162" y2="74.3025" gradientUnits="userSpaceOnUse">
<stop stop-color="#F7B739"/>
<stop offset="0.00529099" stop-color="#F7B739"/>
<stop offset="0.396825" stop-color="#F6AE3D"/>
<stop offset="0.878307" stop-color="#F68823"/>
<stop offset="1" stop-color="#F68823"/>
</linearGradient>
<linearGradient id="paint26_linear" x1="82.5836" y1="61.973" x2="113.085" y2="61.973" gradientUnits="userSpaceOnUse">
<stop stop-color="#ACAEDE"/>
<stop offset="0.216931" stop-color="#ACAEDE"/>
<stop offset="0.915344" stop-color="#796FBF"/>
<stop offset="1" stop-color="#796FBF"/>
</linearGradient>
<linearGradient id="paint27_linear" x1="221.347" y1="288.13" x2="305.783" y2="288.13" gradientUnits="userSpaceOnUse">
<stop stop-color="#D2DFE7"/>
<stop offset="0.00529099" stop-color="#D2DFE7"/>
<stop offset="0.449735" stop-color="#ECF0F3"/>
<stop offset="0.846561" stop-color="white"/>
<stop offset="1" stop-color="white"/>
</linearGradient>
<linearGradient id="paint28_linear" x1="201.261" y1="155.46" x2="238.459" y2="155.46" gradientUnits="userSpaceOnUse">
<stop stop-color="#3C348F"/>
<stop offset="0.222222" stop-color="#3C348F"/>
<stop offset="0.920635" stop-color="#5D54AF"/>
<stop offset="1" stop-color="#5D54AF"/>
</linearGradient>
<linearGradient id="paint29_linear" x1="182.158" y1="133.542" x2="207.317" y2="176.886" gradientUnits="userSpaceOnUse">
<stop stop-color="#F7B739"/>
<stop offset="0.00529099" stop-color="#F7B739"/>
<stop offset="0.396825" stop-color="#F6AE3D"/>
<stop offset="0.878307" stop-color="#F68823"/>
<stop offset="1" stop-color="#F68823"/>
</linearGradient>
<linearGradient id="paint30_linear" x1="225.271" y1="239.492" x2="265.034" y2="239.492" gradientUnits="userSpaceOnUse">
<stop stop-color="#3C348F"/>
<stop offset="0.222222" stop-color="#3C348F"/>
<stop offset="0.920635" stop-color="#5D54AF"/>
<stop offset="1" stop-color="#5D54AF"/>
</linearGradient>
<linearGradient id="paint31_linear" x1="226.876" y1="176.167" x2="258.261" y2="176.167" gradientUnits="userSpaceOnUse">
<stop stop-color="#584FAB"/>
<stop offset="0.227513" stop-color="#584FAB"/>
<stop offset="0.920635" stop-color="#5D54AF"/>
<stop offset="1" stop-color="#5D54AF"/>
</linearGradient>
<linearGradient id="paint32_linear" x1="211.943" y1="168.437" x2="256.341" y2="168.437" gradientUnits="userSpaceOnUse">
<stop stop-color="#3C348F"/>
<stop offset="0.222222" stop-color="#3C348F"/>
<stop offset="0.920635" stop-color="#5D54AF"/>
<stop offset="1" stop-color="#5D54AF"/>
</linearGradient>
</defs>
</svg>
