<svg width="485" height="455" viewBox="0 0 485 455" fill="none" xmlns="http://www.w3.org/2000/svg">
<path d="M339.167 300.253C287.743 329.943 204.103 329.793 152.355 299.917C100.607 270.039 100.345 221.751 151.77 192.06C203.196 162.369 286.834 162.52 338.582 192.397C390.331 222.274 390.594 270.563 339.167 300.253Z" fill="#E5F3F9"/>
<path d="M226.132 346.056C174.706 375.748 91.068 375.596 39.3195 345.72C-12.429 315.842 -12.6903 267.554 38.7351 237.863C90.1604 208.173 173.799 208.323 225.547 238.201C277.296 268.077 277.557 316.366 226.132 346.056Z" fill="#E5F3F9"/>
<path d="M445.788 384.858C394.363 414.548 310.724 414.397 258.976 384.521C207.227 354.643 206.965 306.355 258.391 276.665C309.815 246.974 393.455 247.124 445.202 277.002C496.952 306.878 497.213 355.167 445.788 384.858Z" fill="#E5F3F9"/>
<path d="M434.326 236.758C434.326 221.897 448.604 203.24 461.14 181.593C458.898 182.777 456.72 184.021 454.561 185.309C451.78 186.949 448.999 188.629 446.239 190.33C446.716 189.729 447.214 189.126 447.753 188.567C449.061 187.156 450.536 185.91 451.884 184.54C453.42 183.005 454.79 181.322 456.242 179.704C459.749 175.802 463.651 172.254 467.865 169.161C472.43 160.03 476.207 150.441 478.179 140.439C477.847 140.728 477.515 140.998 477.183 141.289C475.024 143.156 472.887 145.066 470.562 146.685C468.322 148.241 465.893 149.529 463.527 150.857C460.518 152.516 457.55 154.281 454.748 156.233C457.507 152.745 460.58 149.487 463.901 146.518C466.951 143.82 470.189 141.372 473.261 138.694C475.378 136.847 477.39 134.917 479.321 132.882C479.882 127.301 479.819 121.594 478.968 115.783C478.594 116.094 478.2 116.384 477.807 116.676C471.081 121.655 463.796 125.973 457.944 131.971C457.197 132.739 456.471 133.526 455.765 134.357C458.131 129.728 461.099 125.432 464.585 121.594C468.383 117.422 472.784 113.832 476.229 109.369C476.623 108.871 476.996 108.352 477.328 107.834C474.569 97.9959 469.773 91.168 464.378 86.4773C462.116 90.1102 460.206 93.9906 458.421 97.8507C456.927 101.047 455.475 104.305 454.374 107.646C454.851 99.4286 457.425 91.4167 461.224 83.9666C457.404 81.269 453.42 79.4626 449.725 78.2584C448.003 81.269 446.487 84.4235 445.201 87.6399C445.43 84.1938 445.845 80.7502 446.487 77.3457C439.576 75.6227 434.326 75.9344 434.326 75.9344V236.758Z" fill="#E5F3F9"/>
<path d="M434.326 236.758C434.326 223.453 415.564 206.706 401.845 180.223C407.719 181.946 413.427 184.166 418.926 186.845C419.216 186.99 419.528 187.134 419.819 187.279C417.971 183.938 415.793 180.804 413.032 178.168C408.55 173.872 402.863 171.155 397.488 168.104C396.968 167.812 396.429 167.501 395.91 167.19C392.756 159.117 390.265 150.276 388.895 140.5C391.655 141.413 394.354 142.492 396.906 143.863C402.801 147.018 407.677 151.624 412.68 156.108C412.493 155.816 412.285 155.506 412.098 155.215C406.661 147.121 398.754 140.978 390.555 135.726C389.746 135.208 388.957 134.71 388.17 134.191C387.651 128.028 387.567 121.489 388.045 114.599C390.058 115.678 391.988 116.903 393.856 118.209C400.122 122.548 405.769 127.716 410.666 133.526C410.583 133.381 410.521 133.237 410.458 133.071C409.255 130.206 407.947 127.362 406.308 124.728C402.572 118.771 397.198 114.102 392.216 109.161C391.241 108.187 390.245 107.169 389.311 106.131C391.593 97.5818 396.802 91.3965 402.904 86.9128C405.769 90.1923 408.591 93.4718 411.102 96.9999C412.949 99.5738 414.61 102.292 416.083 105.094C414.817 97.5604 411.871 90.3804 408.011 83.6548C411.724 81.5795 415.543 80.0432 419.092 78.9021C421.418 82.5553 423.368 86.4369 424.924 90.5041C425.049 86.1238 424.841 81.7461 424.094 77.4909C428.95 76.3295 432.79 75.9344 434.326 75.9344V236.758Z" fill="#E5F3F9"/>
<path d="M435.876 182.31L435.63 167.784C438.09 164.025 440.809 160.42 443.685 156.93C446.769 153.276 450.003 149.742 453.347 146.306C456.714 142.894 460.176 139.57 463.729 136.342C467.286 133.12 470.915 129.969 474.662 126.961C470.808 129.831 467.065 132.853 463.387 135.951C459.714 139.056 456.122 142.261 452.618 145.566C449.137 148.895 445.755 152.333 442.508 155.912C440.095 158.636 437.763 161.442 435.572 164.371L435.28 147.211C438.389 143.846 441.448 140.437 444.301 136.86C447.261 133.242 450.043 129.486 452.719 125.663C455.404 121.844 457.92 117.913 460.313 113.912C462.697 109.907 464.964 105.83 466.957 101.621C464.808 105.752 462.396 109.735 459.873 113.638C457.339 117.537 454.69 121.358 451.88 125.054C449.077 128.755 446.177 132.381 443.109 135.858C440.593 138.784 437.934 141.577 435.231 144.323L435.009 131.207L435.265 131.335C436.943 127.68 438.589 124.016 440.092 120.293C441.62 116.581 443.06 112.838 444.422 109.066C447.152 101.53 449.627 93.9035 451.731 86.1781C449.296 93.8025 446.499 101.304 443.454 108.691C441.937 112.388 440.341 116.049 438.665 119.672C437.484 122.265 436.225 124.82 434.943 127.362L434.335 91.5404L433.723 127.653C430.412 121.708 427.568 115.451 424.908 109.137C421.867 101.845 419.06 94.4437 416.473 86.9645C418.731 94.551 421.213 102.073 423.942 109.517C425.323 113.231 426.736 116.939 428.302 120.591C429.869 124.244 431.524 127.867 433.436 131.393L433.661 131.263L433.463 142.935C431.668 139.701 429.787 136.52 427.748 133.444C425.038 129.31 422.198 125.268 419.177 121.369C416.173 117.458 413.05 113.642 409.804 109.937C406.553 106.236 403.202 102.624 399.693 99.1749C403.079 102.743 406.295 106.469 409.408 110.272C412.515 114.08 415.491 117.992 418.343 121.987C421.212 125.97 423.889 130.084 426.429 134.271C428.985 138.439 431.246 142.769 433.391 147.139L433.103 164.086C431.031 161.083 428.774 158.23 426.401 155.487C423.136 151.818 419.674 148.347 416.086 145.023C412.469 141.729 408.731 138.578 404.891 135.564C401.045 132.557 397.117 129.657 393.052 126.961C397.017 129.799 400.836 132.832 404.565 135.966C408.285 139.108 411.895 142.376 415.371 145.776C418.819 149.203 422.123 152.764 425.213 156.494C428.089 160.065 430.745 163.795 433.042 167.717L432.818 180.931C431.007 178.856 429.09 176.892 427.06 175.056C424.094 172.44 420.995 169.992 417.753 167.759C414.506 165.537 411.163 163.468 407.733 161.558C404.301 159.659 400.8 157.883 397.201 156.335C400.727 158.039 404.139 159.965 407.472 162.008C410.799 164.058 414.029 166.259 417.145 168.601C420.255 170.951 423.203 173.501 425.994 176.19C428.463 178.627 430.72 181.249 432.765 184.009L431.222 274.883H437.448L435.915 184.601C441.572 181.115 446.837 177.111 451.836 172.826C457.141 168.251 462.207 163.415 466.957 158.292C461.961 163.172 456.672 167.741 451.179 172.022C446.303 175.801 441.209 179.298 435.876 182.31Z" fill="#BEE1F4"/>
<path d="M337.647 178.505C337.647 178.505 305.272 175.849 288.196 151.941C275.348 133.955 286.398 117.521 314.007 131.038C314.007 131.038 272.785 109.968 284.892 86.3422C293.798 68.9664 316.596 89.9107 316.596 89.9107C316.596 89.9107 276.658 56.2259 296.839 42.4667C311.175 32.6913 323.211 56.8368 323.211 56.8368C323.211 56.8368 316.021 14.6465 337.647 14.6465V178.505Z" fill="#E5F3F9"/>
<path d="M337.647 14.6465C337.647 14.6465 362.562 10.0341 352.935 56.3635C352.935 56.3635 365.37 30.6918 380.612 38.9145C395.855 47.1385 359.129 89.0549 359.129 89.0549C359.129 89.0549 379.811 68.1964 392.245 83.0374C404.68 97.8797 358.551 131.774 358.551 131.774C358.551 131.774 378.406 120.343 387.632 130.369C396.858 140.398 360.465 178.505 337.647 178.505V14.6465Z" fill="#E5F3F9"/>
<path d="M358.725 150.816C355.394 153.044 351.907 155.02 348.359 156.836C345.604 158.228 342.764 159.417 339.88 160.454L339.222 120.431C343.147 118.862 347.023 117.177 350.69 115.091C354.794 112.882 358.692 110.316 362.413 107.538C366.15 104.777 369.672 101.737 372.978 98.4881C376.281 95.2415 379.401 91.7979 382.124 88.0576C379.269 91.6956 376.034 95.0117 372.63 98.1221C369.225 101.232 365.621 104.119 361.823 106.718C358.039 109.333 354.101 111.723 349.985 113.748C346.507 115.566 342.863 117.014 339.188 118.347L338.674 87.0806C342.354 84.5282 345.963 81.8736 349.217 78.8125C350.989 77.2989 352.567 75.5797 354.231 73.9576C355.782 72.2257 357.397 70.5531 358.845 68.7342C361.821 65.1706 364.567 61.4216 367.043 57.5071C369.524 53.5977 371.791 49.547 373.657 45.317C371.638 49.4738 369.231 53.4286 366.622 57.2282C364.016 61.0328 361.153 64.6556 358.08 68.074C356.583 69.8197 354.924 71.4166 353.332 73.0689C351.629 74.6102 350.016 76.2474 348.217 77.6726C345.222 80.2919 341.956 82.5615 338.636 84.7213L337.647 24.4673L336.656 84.7857C333.355 82.79 330.131 80.6428 327.092 78.2293C323.598 75.4471 320.202 72.5198 317.032 69.3464C313.842 66.1969 310.786 62.9023 307.884 59.4713C304.991 56.0365 302.217 52.4894 299.674 48.777C302.077 52.5816 304.72 56.2372 307.493 59.7907C310.272 63.339 313.216 66.7624 316.31 70.0533C319.381 73.3681 322.698 76.4519 326.137 79.4032C329.423 82.2219 332.958 84.7428 336.618 87.0958L336.1 118.592C332.375 117.737 328.717 116.524 325.188 114.954C321.147 113.065 317.238 110.859 313.505 108.364C309.796 105.837 306.23 103.087 302.826 100.139C299.433 97.1829 296.161 94.0688 293.141 90.7173C296.035 94.1811 299.194 97.4215 302.489 100.514C305.794 103.599 309.276 106.5 312.926 109.193C316.6 111.851 320.478 114.239 324.538 116.322C328.211 118.125 332.071 119.56 336.068 120.601L335.412 160.499C332.072 159.386 328.763 158.149 325.54 156.69C321.5 154.873 317.515 152.905 313.66 150.694C309.793 148.505 306.004 146.167 302.313 143.678C298.627 141.183 295.016 138.567 291.557 135.753C294.907 138.695 298.423 141.452 302.023 144.092C305.627 146.725 309.341 149.215 313.146 151.565C316.941 153.934 320.882 156.071 324.9 158.064C328.294 159.757 331.81 161.207 335.38 162.533L334.615 209.086H340.679L339.913 162.489C343.058 161.235 346.126 159.82 349.064 158.178C352.595 156.18 356.035 154.034 359.298 151.649C362.57 149.277 365.731 146.765 368.768 144.113C371.799 141.457 374.735 138.692 377.484 135.753C374.614 138.573 371.571 141.209 368.443 143.726C365.309 146.239 362.064 148.604 358.725 150.816Z" fill="#BEE1F4"/>
<path d="M136.235 202.235C136.235 202.235 112.931 193.842 105.115 172.847C99.2351 157.053 110.638 147.152 128.273 162.593C128.273 162.593 102.118 138.885 115.73 123.901C125.741 112.882 138.357 132.833 138.357 132.833C138.357 132.833 115.658 100.095 133.248 93.9791C145.745 89.6355 149.803 109.802 149.803 109.802C149.803 109.802 152.901 77.3166 168.82 81.616L136.235 202.235Z" fill="#E5F3F9"/>
<path d="M168.82 81.616C168.82 81.616 188.079 83.1762 171.778 115.366C171.778 115.366 186.037 98.9412 195.623 108.025C205.206 117.11 169.836 140.662 169.836 140.662C169.836 140.662 189.209 129.42 195.411 142.819C201.613 156.216 160.916 171.994 160.916 171.994C160.916 171.994 177.804 167.527 182.602 176.744C187.399 185.959 153.031 206.773 136.235 202.235L168.82 81.616Z" fill="#E5F3F9"/>
<path d="M157.258 186.046C154.362 187.023 151.402 187.784 148.429 188.415C146.125 188.893 143.798 189.203 141.467 189.392L148.944 159.8C152.145 159.425 155.334 158.957 158.448 158.149C161.908 157.338 165.287 156.226 168.579 154.92C171.879 153.631 175.075 152.094 178.155 150.36C181.233 148.627 184.214 146.714 186.962 144.501C184.137 146.61 181.096 148.409 177.972 150.022C174.848 151.634 171.619 153.043 168.307 154.2C165.002 155.372 161.628 156.349 158.196 157.022C155.273 157.667 152.303 158.009 149.333 158.259L155.172 135.142C158.389 133.993 161.572 132.757 164.578 131.151C166.182 130.389 167.686 129.438 169.233 128.573C170.721 127.608 172.243 126.697 173.669 125.647C176.569 123.616 179.335 121.403 181.937 119.012C184.54 116.629 187.014 114.098 189.23 111.355C186.917 114.013 184.358 116.446 181.682 118.724C179.007 121.007 176.18 123.103 173.237 125.008C171.787 125.997 170.249 126.842 168.748 127.741C167.19 128.538 165.676 129.421 164.069 130.113C161.343 131.446 158.487 132.467 155.613 133.396L166.868 88.8454L154.144 133.049C152.11 130.925 150.163 128.703 148.408 126.321C146.389 123.579 144.469 120.748 142.768 117.783C141.046 114.83 139.451 111.797 137.999 108.694C136.552 105.589 135.215 102.428 134.08 99.1888C135.093 102.468 136.312 105.685 137.646 108.851C138.987 112.015 140.474 115.122 142.095 118.159C143.698 121.209 145.527 124.141 147.47 126.996C149.328 129.725 151.431 132.283 153.655 134.743L147.011 157.824C144.439 156.455 141.987 154.835 139.701 152.976C137.102 150.782 134.665 148.381 132.413 145.802C130.185 143.204 128.107 140.47 126.187 137.624C124.277 134.773 122.489 131.831 120.932 128.763C122.372 131.888 124.054 134.901 125.864 137.833C127.683 140.762 129.67 143.589 131.821 146.296C133.997 148.985 136.378 151.514 138.952 153.856C141.296 155.912 143.852 157.736 146.587 159.298L138.17 188.537C135.933 187.053 133.743 185.484 131.66 183.77C129.049 181.629 126.506 179.387 124.108 176.993C121.697 174.613 119.373 172.138 117.151 169.573C114.934 167.003 112.795 164.358 110.81 161.599C112.69 164.433 114.73 167.159 116.855 169.819C118.984 172.475 121.222 175.046 123.558 177.532C125.879 180.031 128.356 182.388 130.916 184.654C133.078 186.576 135.378 188.342 137.742 190.027L127.921 224.143L132.384 225.348L141.087 190.896C143.652 190.599 146.192 190.167 148.683 189.543C151.678 188.774 154.637 187.879 157.514 186.772C160.393 185.677 163.22 184.455 165.983 183.11C168.742 181.755 171.454 180.304 174.062 178.688C171.388 180.193 168.625 181.528 165.821 182.759C163.015 183.985 160.155 185.08 157.258 186.046Z" fill="#BEE1F4"/>
<path d="M100.787 249.605C93.9577 236.406 98.0652 213.274 99.2505 188.288C97.8039 190.368 96.4406 192.475 95.1152 194.611C93.3985 197.345 91.7006 200.116 90.0319 202.895C90.1783 202.143 90.3449 201.378 90.5658 200.632C91.0796 198.779 91.8155 196.995 92.3835 195.159C93.0425 193.09 93.4868 190.967 94.0334 188.861C95.355 183.785 97.1892 178.839 99.5106 174.158C99.3692 163.948 98.3177 153.697 95.4712 143.906C95.3096 144.316 95.1392 144.709 94.9776 145.119C93.9185 147.77 92.8986 150.448 91.5769 152.954C90.302 155.367 88.7367 157.625 87.2459 159.892C85.3361 162.75 83.5108 165.681 81.919 168.701C82.7685 164.335 83.998 160.03 85.5835 155.868C87.0541 152.071 88.8036 148.406 90.302 144.617C91.3333 142.004 92.2333 139.364 93.0134 136.671C90.9458 131.456 88.2671 126.414 84.8412 121.645C84.6519 122.093 84.436 122.533 84.2189 122.972C80.5355 130.485 76.0492 137.667 73.6079 145.684C73.2974 146.71 73.0146 147.744 72.7697 148.805C72.7445 143.608 73.4059 138.428 74.7377 133.415C76.1944 127.966 78.4514 122.755 79.4613 117.208C79.5824 116.585 79.6758 115.952 79.7314 115.339C72.7596 107.87 65.3637 104.008 58.416 102.322C58.0764 106.587 58.1635 110.912 58.3516 115.161C58.4942 118.686 58.7013 122.249 59.2592 125.723C55.9065 118.203 54.5116 109.905 54.4599 101.542C49.8284 100.902 45.4596 101.128 41.6259 101.756C41.4783 105.221 41.583 108.719 41.9175 112.168C40.5378 109.002 39.3235 105.752 38.3313 102.433C31.4012 104.08 26.8809 106.769 26.8809 106.769L100.787 249.605Z" fill="#E5F3F9"/>
<path d="M100.787 249.605C94.6719 237.789 70.3131 231.536 45.9593 214.321C51.9666 213.15 58.0573 212.5 64.1719 212.351C64.4963 212.346 64.8397 212.332 65.1641 212.327C61.9881 210.208 58.6127 208.427 54.9507 207.355C48.9939 205.599 42.6949 205.797 36.5184 205.559C35.9239 205.539 35.3016 205.511 34.6982 205.472C28.1859 199.751 21.9109 193.044 16.2015 184.992C19.0733 184.534 21.9652 184.252 24.8622 184.296C31.5475 184.389 37.9954 186.239 44.4975 187.923C44.1996 187.75 43.8714 187.57 43.5722 187.397C35.0239 182.707 25.1778 180.884 15.4833 179.989C14.5264 179.901 13.5961 179.82 12.6582 179.722C9.36358 174.485 6.28603 168.717 3.54429 162.379C5.82781 162.412 8.10503 162.612 10.3646 162.914C17.9246 163.887 25.3129 165.883 32.3339 168.793C32.1925 168.702 32.0713 168.601 31.94 168.483C29.5543 166.492 27.0864 164.568 24.4192 162.98C18.3639 159.406 11.4439 157.73 4.7498 155.632C3.43574 155.214 2.08254 154.768 0.777309 154.276C-1.125 145.633 0.658643 137.746 4.01892 130.96C8.06842 132.557 12.0826 134.171 15.9339 136.151C18.7577 137.588 21.4818 139.241 24.0784 141.051C19.4911 134.941 13.5746 129.919 7.05605 125.72C9.40143 122.169 12.0876 119.05 14.7145 116.407C18.4573 118.582 21.9741 121.133 25.2258 124.03C23.3235 120.084 21.1271 116.289 18.509 112.853C22.2871 109.589 25.5161 107.476 26.8807 106.769L100.787 249.605Z" fill="#E5F3F9"/>
<path d="M77.1424 200.534L70.2477 187.746C70.7059 183.278 71.4645 178.826 72.415 174.405C73.4741 169.743 74.7213 165.118 76.1124 160.53C77.535 155.951 79.0839 151.408 80.7552 146.909C82.434 142.411 84.2088 137.946 86.1541 133.553C84.0511 137.874 82.1159 142.277 80.2729 146.719C78.4363 151.165 76.7208 155.661 75.1265 160.207C73.5637 164.762 72.1399 169.372 70.9015 174.04C70.0091 177.57 69.229 181.135 68.6281 184.741L60.4837 169.636C61.698 165.218 62.848 160.785 63.7379 156.296C64.7036 151.723 65.4483 147.108 66.0694 142.482C66.6993 137.859 67.1272 133.21 67.4137 128.558C67.6902 123.905 67.829 119.242 67.6662 114.588C67.6561 119.243 67.3443 123.89 66.8962 128.516C66.438 133.143 65.8409 137.754 65.0444 142.328C64.2555 146.903 63.3466 151.456 62.2181 155.955C61.3294 159.709 60.2514 163.413 59.1128 167.093L52.8871 155.547L53.1736 155.542C52.9855 151.524 52.7621 147.513 52.3859 143.516C52.0375 139.519 51.597 135.531 51.0731 131.557C50.0355 123.607 48.7277 115.696 47.0463 107.87C48.3869 115.761 49.3501 123.708 50.0405 131.669C50.3915 135.648 50.6578 139.633 50.8333 143.62C50.9772 146.468 51.0315 149.315 51.063 152.162L34.0597 120.626L50.1112 152.98C44.4397 149.223 39.0382 144.973 33.7744 140.586C27.7216 135.508 21.8279 130.224 16.0944 124.771C21.5855 130.47 27.247 136.011 33.0902 141.367C36.0251 144.031 38.9827 146.676 42.0526 149.199C45.1226 151.724 48.2569 154.182 51.5768 156.434L51.7156 156.216L56.905 166.673C53.8237 164.626 50.6919 162.666 47.4667 160.869C43.161 158.443 38.7807 156.16 34.3058 154.083C29.8398 151.99 25.3131 150.036 20.7271 148.239C16.1399 146.446 11.5034 144.775 6.80127 143.327C11.4491 144.94 16.0174 146.769 20.5289 148.717C25.0379 150.672 29.48 152.778 33.8476 155.016C38.2266 157.235 42.4957 159.657 46.674 162.21C50.8598 164.737 54.8588 167.543 58.772 170.44L66.3042 185.623C63.084 183.908 59.7679 182.412 56.4001 181.065C51.8141 179.309 47.1448 177.816 42.4301 176.513C37.704 175.25 32.9362 174.169 28.1407 173.256C23.3426 172.353 18.5206 171.584 13.672 171.056C18.4979 171.754 23.2845 172.695 28.0346 173.764C32.7835 174.844 37.4919 176.089 42.141 177.51C46.7775 178.97 51.3508 180.614 55.808 182.505C60.0027 184.357 64.0762 186.449 67.9187 188.878L73.7922 200.715C71.2323 199.704 68.6256 198.84 65.9785 198.144C62.1411 197.184 58.2645 196.434 54.3589 195.941C50.4546 195.459 46.5338 195.158 42.6106 195.039C38.6898 194.928 34.7628 194.958 30.8559 195.238C34.7703 195.131 38.686 195.274 42.5841 195.556C46.4821 195.847 50.3624 196.319 54.2049 196.966C58.0487 197.625 61.8368 198.535 65.5531 199.641C68.8654 200.671 72.0742 201.963 75.1593 203.472L115.55 284.892L121.08 282.03L78.2305 202.552C81.6514 196.857 84.4878 190.88 86.9581 184.778C89.5674 178.275 91.8446 171.652 93.709 164.919C91.5138 171.55 88.916 178.038 86.0064 184.365C83.4123 189.963 80.4938 195.409 77.1424 200.534Z" fill="#BEE1F4"/>
<path d="M133.89 376.975C113.628 388.672 80.6743 388.613 60.2854 376.842C39.8965 365.07 39.793 346.044 60.0544 334.346C80.3158 322.647 113.27 322.706 133.66 334.48C154.049 346.251 154.152 365.277 133.89 376.975Z" fill="#E5F3F9"/>
<path d="M121.591 408.214C113.971 412.612 101.579 412.589 93.9107 408.164C86.2434 403.737 86.2043 396.582 93.8249 392.183C101.444 387.784 113.836 387.807 121.504 392.232C129.171 396.659 129.21 403.814 121.591 408.214Z" fill="#E5F3F9"/>
<path d="M51.8674 395.894C48.0577 398.095 41.8623 398.083 38.0274 395.869C34.1938 393.656 34.1748 390.077 37.9845 387.879C41.7941 385.679 47.9896 385.691 51.8245 387.905C55.6581 390.118 55.677 393.695 51.8674 395.894Z" fill="#E5F3F9"/>
<path d="M355.141 429.492C303.715 459.183 220.077 459.03 168.328 429.155C116.58 399.279 116.317 350.989 167.744 321.298C219.168 291.608 302.808 291.76 354.555 321.636C406.303 351.513 406.566 399.802 355.141 429.492Z" fill="#E5F3F9"/>
<path d="M324.409 173.437L324.292 237.897L249.567 281.322L249.686 216.862L324.409 173.437Z" fill="#EC827D"/>
<path d="M249.685 216.862L249.566 281.322L137.918 216.862L138.037 152.401L249.685 216.862Z" fill="#E56363"/>
<path d="M324.409 173.437L249.685 216.862L138.038 152.402L212.761 108.977L324.409 173.437Z" fill="#F99898"/>
<path d="M185.929 263.368L185.811 297.138L111.087 340.563L111.205 306.793L185.929 263.368Z" fill="#FBD15B"/>
<path d="M111.205 306.793L111.087 340.563L30.5366 294.057L30.6553 260.286L111.205 306.793Z" fill="#EFBC3F"/>
<path d="M185.929 263.368L111.205 306.793L30.6553 260.286L105.378 216.862L185.929 263.368Z" fill="#FCDD92"/>
<path d="M291.179 158.839L288.851 160.193C289.27 159.949 289.531 159.431 289.533 158.692L291.862 157.339C291.859 158.077 291.599 158.596 291.179 158.839Z" fill="#A5B7C6"/>
<path d="M289.664 105.898L291.992 104.544L291.862 157.339L289.533 158.692L289.664 105.898Z" fill="#A5B7C6"/>
<path d="M289.659 100.502L226.614 64.1027C225.962 63.7253 225.372 63.69 224.947 63.9374L222.618 65.2906C223.043 65.0432 223.633 65.0798 224.285 65.4559L287.329 101.855C288.616 102.597 289.668 104.407 289.664 105.898L291.992 104.543C291.997 103.054 290.945 101.245 289.659 100.502Z" fill="#BFCED8"/>
<path d="M287.329 101.855C288.617 102.597 289.668 104.407 289.664 105.898L289.533 158.692C289.529 160.183 288.471 160.774 287.184 160.03L224.14 123.632C222.842 122.884 221.801 121.081 221.806 119.589L221.936 66.7955C221.94 65.3048 222.988 64.7077 224.285 65.4562L287.329 101.855Z" fill="#112B46"/>
<path d="M224.27 70.764L224.155 118.322L287.199 154.72L287.315 107.162L224.27 70.764Z" fill="#878CF0"/>
<path d="M288.153 161.392L288.145 164.086C288.144 164.573 287.827 165.059 287.191 165.429L287.198 162.735C287.833 162.365 288.151 161.879 288.153 161.392Z" fill="#A5B7C6"/>
<path d="M242.008 188.932L242.001 191.625C240.723 192.368 238.62 192.368 237.333 191.625L237.34 188.932C238.628 189.675 240.729 189.675 242.008 188.932Z" fill="#A5B7C6"/>
<path d="M173.315 153.866L173.323 151.172C173.322 151.663 173.644 152.157 174.296 152.533L174.289 155.227C173.637 154.85 173.314 154.357 173.315 153.866Z" fill="#8FA6B5"/>
<path d="M287.199 162.735L287.191 165.428L242 191.625L242.008 188.931L287.199 162.735Z" fill="#A5B7C6"/>
<path d="M237.34 188.931L237.332 191.625L174.289 155.226L174.296 152.533L237.34 188.931Z" fill="#8FA6B5"/>
<path d="M287.183 160.03C288.471 160.773 288.477 161.992 287.198 162.735L242.008 188.932C240.729 189.675 238.627 189.675 237.34 188.932L174.296 152.533C172.998 151.783 173.002 150.571 174.281 149.829L219.472 123.632C220.75 122.889 222.842 122.884 224.14 123.632L287.183 160.03Z" fill="#BFCED8"/>
<path d="M236.038 166.855L212.802 153.439C212.158 153.067 211.117 153.061 210.468 153.439L198.464 160.348C197.826 160.72 197.828 161.33 198.472 161.701L221.709 175.116C222.363 175.493 223.404 175.487 224.043 175.116L236.046 168.207C236.696 167.828 236.692 167.231 236.038 166.855Z" fill="#A5B7C6"/>
<path d="M224.833 127.746L224.83 128.419L220.586 130.885L220.588 130.213L224.833 127.746Z" fill="#516193"/>
<path d="M220.587 130.213L220.586 130.885L216.409 128.474L216.41 127.8L220.587 130.213Z" fill="#516193"/>
<path d="M224.833 127.746L220.588 130.213L216.411 127.8L220.656 125.334L224.833 127.746Z" fill="#112B46"/>
<path d="M230.19 130.839L230.189 131.513L225.945 133.979L225.946 133.305L230.19 130.839Z" fill="#516193"/>
<path d="M225.946 133.305L225.945 133.979L221.758 131.562L221.759 130.888L225.946 133.305Z" fill="#516193"/>
<path d="M230.19 130.839L225.946 133.305L221.759 130.888L226.003 128.422L230.19 130.839Z" fill="#112B46"/>
<path d="M235.538 133.928L235.536 134.6L231.292 137.067L231.295 136.394L235.538 133.928Z" fill="#516193"/>
<path d="M231.295 136.394L231.292 137.067L227.115 134.656L227.118 133.982L231.295 136.394Z" fill="#516193"/>
<path d="M235.539 133.928L231.295 136.394L227.118 133.982L231.362 131.515L235.539 133.928Z" fill="#112B46"/>
<path d="M240.887 137.015L240.884 137.688L236.641 140.155L236.642 139.481L240.887 137.015Z" fill="#516193"/>
<path d="M236.642 139.481L236.64 140.155L232.463 137.743L232.465 137.07L236.642 139.481Z" fill="#516193"/>
<path d="M240.887 137.015L236.642 139.481L232.465 137.07L236.709 134.603L240.887 137.015Z" fill="#112B46"/>
<path d="M246.234 140.102L246.232 140.776L241.988 143.242L241.99 142.568L246.234 140.102Z" fill="#516193"/>
<path d="M241.991 142.568L241.988 143.242L237.811 140.83L237.814 140.157L241.991 142.568Z" fill="#516193"/>
<path d="M246.234 140.102L241.99 142.568L237.813 140.157L242.057 137.691L246.234 140.102Z" fill="#112B46"/>
<path d="M251.593 143.196L251.59 143.87L247.346 146.336L247.349 145.662L251.593 143.196Z" fill="#516193"/>
<path d="M247.349 145.662L247.346 146.336L243.169 143.924L243.172 143.25L247.349 145.662Z" fill="#516193"/>
<path d="M251.593 143.196L247.349 145.662L243.172 143.25L247.416 140.785L251.593 143.196Z" fill="#112B46"/>
<path d="M256.94 146.283L256.939 146.957L252.695 149.424L252.696 148.749L256.94 146.283Z" fill="#516193"/>
<path d="M252.696 148.749L252.695 149.424L248.517 147.011L248.519 146.338L252.696 148.749Z" fill="#516193"/>
<path d="M256.94 146.283L252.696 148.75L248.519 146.339L252.763 143.872L256.94 146.283Z" fill="#112B46"/>
<path d="M262.288 149.371L262.285 150.043L258.042 152.51L258.043 151.837L262.288 149.371Z" fill="#516193"/>
<path d="M258.043 151.837L258.042 152.51L253.865 150.099L253.867 149.426L258.043 151.837Z" fill="#516193"/>
<path d="M262.288 149.371L258.043 151.837L253.867 149.426L258.111 146.96L262.288 149.371Z" fill="#112B46"/>
<path d="M267.646 152.465L267.644 153.137L263.4 155.604L263.402 154.93L267.646 152.465Z" fill="#516193"/>
<path d="M263.402 154.93L263.4 155.604L259.213 153.185L259.215 152.513L263.402 154.93Z" fill="#516193"/>
<path d="M267.646 152.465L263.402 154.93L259.215 152.513L263.459 150.046L267.646 152.465Z" fill="#112B46"/>
<path d="M272.994 155.551L272.993 156.225L268.748 158.692L268.75 158.019L272.994 155.551Z" fill="#516193"/>
<path d="M268.75 158.019L268.747 158.692L264.57 156.281L264.573 155.607L268.75 158.019Z" fill="#516193"/>
<path d="M272.994 155.551L268.75 158.019L264.573 155.607L268.817 153.14L272.994 155.551Z" fill="#112B46"/>
<path d="M283.7 161.732L283.698 162.407L279.453 164.872L279.456 164.199L283.7 161.732Z" fill="#516193"/>
<path d="M279.456 164.199L279.453 164.872L269.919 159.368L269.92 158.694L279.456 164.199Z" fill="#516193"/>
<path d="M283.7 161.733L279.456 164.199L269.92 158.694L274.164 156.229L283.7 161.733Z" fill="#112B46"/>
<path d="M224.784 133.982L224.781 134.656L220.549 137.116L220.55 136.442L224.784 133.982Z" fill="#516193"/>
<path d="M220.55 136.442L220.548 137.116L211.012 131.611L211.014 130.936L220.55 136.442Z" fill="#516193"/>
<path d="M224.783 133.982L220.55 136.442L211.014 130.936L215.248 128.477L224.783 133.982Z" fill="#112B46"/>
<path d="M230.131 137.07L230.13 137.742L225.896 140.203L225.897 139.53L230.131 137.07Z" fill="#516193"/>
<path d="M225.897 139.53L225.896 140.203L221.719 137.792L221.72 137.119L225.897 139.53Z" fill="#516193"/>
<path d="M230.131 137.069L225.897 139.53L221.72 137.119L225.954 134.658L230.131 137.069Z" fill="#112B46"/>
<path d="M235.479 140.157L235.476 140.83L231.243 143.291L231.245 142.617L235.479 140.157Z" fill="#516193"/>
<path d="M231.245 142.617L231.243 143.291L227.066 140.879L227.068 140.205L231.245 142.617Z" fill="#516193"/>
<path d="M235.48 140.157L231.246 142.617L227.069 140.205L231.303 137.746L235.48 140.157Z" fill="#112B46"/>
<path d="M240.826 143.244L240.825 143.919L236.591 146.378L236.594 145.705L240.826 143.244Z" fill="#516193"/>
<path d="M236.594 145.705L236.592 146.378L232.415 143.967L232.417 143.294L236.594 145.705Z" fill="#516193"/>
<path d="M240.827 143.244L236.594 145.705L232.417 143.294L236.65 140.833L240.827 143.244Z" fill="#112B46"/>
<path d="M246.185 146.339L246.182 147.012L241.95 149.472L241.951 148.799L246.185 146.339Z" fill="#516193"/>
<path d="M241.951 148.799L241.95 149.472L237.773 147.061L237.774 146.388L241.951 148.799Z" fill="#516193"/>
<path d="M246.185 146.339L241.951 148.799L237.774 146.388L242.008 143.927L246.185 146.339Z" fill="#112B46"/>
<path d="M251.534 149.426L251.531 150.099L247.297 152.559L247.3 151.885L251.534 149.426Z" fill="#516193"/>
<path d="M247.3 151.885L247.297 152.559L243.12 150.147L243.123 149.474L247.3 151.885Z" fill="#516193"/>
<path d="M251.533 149.426L247.3 151.885L243.123 149.474L247.356 147.014L251.533 149.426Z" fill="#112B46"/>
<path d="M256.881 152.513L256.878 153.185L252.645 155.647L252.647 154.973L256.881 152.513Z" fill="#516193"/>
<path d="M252.647 154.973L252.644 155.647L248.469 153.236L248.47 152.562L252.647 154.973Z" fill="#516193"/>
<path d="M256.881 152.513L252.647 154.973L248.47 152.562L252.704 150.102L256.881 152.513Z" fill="#112B46"/>
<path d="M262.239 155.606L262.236 156.28L258.004 158.741L258.005 158.068L262.239 155.606Z" fill="#516193"/>
<path d="M258.005 158.068L258.004 158.741L253.815 156.323L253.818 155.649L258.005 158.068Z" fill="#516193"/>
<path d="M262.239 155.607L258.006 158.068L253.818 155.65L258.052 153.189L262.239 155.607Z" fill="#112B46"/>
<path d="M267.586 158.694L267.585 159.368L263.351 161.827L263.352 161.155L267.586 158.694Z" fill="#516193"/>
<path d="M263.352 161.155L263.351 161.827L259.174 159.416L259.176 158.744L263.352 161.155Z" fill="#516193"/>
<path d="M267.586 158.694L263.352 161.155L259.177 158.744L263.409 156.283L267.586 158.694Z" fill="#112B46"/>
<path d="M272.935 161.782L272.932 162.455L268.698 164.915L268.701 164.242L272.935 161.782Z" fill="#516193"/>
<path d="M268.701 164.242L268.698 164.915L264.522 162.504L264.524 161.831L268.701 164.242Z" fill="#516193"/>
<path d="M272.935 161.782L268.701 164.242L264.524 161.831L268.758 159.371L272.935 161.782Z" fill="#112B46"/>
<path d="M278.292 164.876L278.29 165.548L274.057 168.01L274.059 167.335L278.292 164.876Z" fill="#516193"/>
<path d="M274.059 167.335L274.057 168.01L269.87 165.591L269.871 164.917L274.059 167.335Z" fill="#516193"/>
<path d="M278.292 164.876L274.059 167.335L269.871 164.917L274.105 162.457L278.292 164.876Z" fill="#112B46"/>
<path d="M219.386 137.119L219.385 137.791L215.151 140.252L215.153 139.579L219.386 137.119Z" fill="#516193"/>
<path d="M215.153 139.579L215.151 140.252L205.615 134.747L205.618 134.074L215.153 139.579Z" fill="#516193"/>
<path d="M219.386 137.119L215.153 139.579L205.618 134.074L209.851 131.614L219.386 137.119Z" fill="#112B46"/>
<path d="M224.735 140.205L224.733 140.879L220.5 143.339L220.501 142.665L224.735 140.205Z" fill="#516193"/>
<path d="M220.501 142.665L220.499 143.339L216.322 140.928L216.324 140.254L220.501 142.665Z" fill="#516193"/>
<path d="M224.735 140.205L220.501 142.665L216.324 140.254L220.558 137.794L224.735 140.205Z" fill="#112B46"/>
<path d="M230.082 143.294L230.08 143.967L225.847 146.427L225.848 145.754L230.082 143.294Z" fill="#516193"/>
<path d="M225.848 145.754L225.846 146.427L221.669 144.016L221.672 143.342L225.848 145.754Z" fill="#516193"/>
<path d="M230.081 143.294L225.848 145.754L221.672 143.342L225.904 140.882L230.081 143.294Z" fill="#112B46"/>
<path d="M235.43 146.382L235.427 147.054L231.193 149.515L231.196 148.841L235.43 146.382Z" fill="#516193"/>
<path d="M231.196 148.841L231.194 149.515L227.018 147.102L227.019 146.43L231.196 148.841Z" fill="#516193"/>
<path d="M235.43 146.382L231.197 148.841L227.02 146.43L231.253 143.969L235.43 146.382Z" fill="#112B46"/>
<path d="M240.789 149.474L240.786 150.147L236.552 152.607L236.555 151.935L240.789 149.474Z" fill="#516193"/>
<path d="M236.555 151.935L236.552 152.607L232.375 150.196L232.378 149.524L236.555 151.935Z" fill="#516193"/>
<path d="M240.789 149.474L236.555 151.935L232.378 149.524L236.612 147.063L240.789 149.474Z" fill="#112B46"/>
<path d="M246.135 152.562L246.134 153.236L241.9 155.696L241.902 155.023L246.135 152.562Z" fill="#516193"/>
<path d="M241.902 155.023L241.901 155.696L237.724 153.284L237.726 152.61L241.902 155.023Z" fill="#516193"/>
<path d="M246.136 152.562L241.902 155.023L237.727 152.61L241.959 150.15L246.136 152.562Z" fill="#112B46"/>
<path d="M251.484 155.65L251.482 156.324L247.248 158.783L247.251 158.11L251.484 155.65Z" fill="#516193"/>
<path d="M247.25 158.11L247.248 158.783L243.071 156.372L243.073 155.699L247.25 158.11Z" fill="#516193"/>
<path d="M251.484 155.649L247.25 158.11L243.073 155.699L247.306 153.237L251.484 155.649Z" fill="#112B46"/>
<path d="M256.841 158.743L256.84 159.416L252.606 161.876L252.609 161.204L256.841 158.743Z" fill="#516193"/>
<path d="M252.609 161.204L252.607 161.876L248.419 159.459L248.421 158.786L252.609 161.204Z" fill="#516193"/>
<path d="M256.841 158.743L252.609 161.204L248.42 158.786L252.654 156.326L256.841 158.743Z" fill="#112B46"/>
<path d="M262.19 161.831L262.189 162.504L257.954 164.964L257.956 164.29L262.19 161.831Z" fill="#516193"/>
<path d="M257.956 164.29L257.953 164.964L253.776 162.552L253.779 161.879L257.956 164.29Z" fill="#516193"/>
<path d="M262.19 161.831L257.956 164.29L253.779 161.879L258.013 159.419L262.19 161.831Z" fill="#112B46"/>
<path d="M272.896 168.013L272.894 168.686L268.661 171.146L268.662 170.472L272.896 168.013Z" fill="#516193"/>
<path d="M268.662 170.472L268.661 171.146L259.125 165.641L259.128 164.967L268.662 170.472Z" fill="#516193"/>
<path d="M272.896 168.013L268.662 170.472L259.127 164.967L263.36 162.506L272.896 168.013Z" fill="#112B46"/>
<path d="M219.338 143.342L219.335 144.016L215.102 146.476L215.104 145.802L219.338 143.342Z" fill="#516193"/>
<path d="M215.104 145.802L215.102 146.476L200.219 137.882L200.222 137.21L215.104 145.802Z" fill="#516193"/>
<path d="M219.338 143.342L215.104 145.802L200.222 137.21L204.455 134.749L219.338 143.342Z" fill="#112B46"/>
<path d="M224.685 146.429L224.684 147.102L220.45 149.562L220.453 148.89L224.685 146.429Z" fill="#516193"/>
<path d="M220.452 148.89L220.45 149.562L216.273 147.152L216.274 146.479L220.452 148.89Z" fill="#516193"/>
<path d="M224.685 146.429L220.453 148.89L216.274 146.479L220.508 144.018L224.685 146.429Z" fill="#112B46"/>
<path d="M230.032 149.517L230.031 150.19L225.797 152.651L225.8 151.976L230.032 149.517Z" fill="#516193"/>
<path d="M225.8 151.976L225.798 152.651L221.621 150.239L221.623 149.565L225.8 151.976Z" fill="#516193"/>
<path d="M230.033 149.517L225.8 151.976L221.623 149.565L225.857 147.106L230.033 149.517Z" fill="#112B46"/>
<path d="M235.391 152.61L235.39 153.284L231.156 155.744L231.157 155.071L235.391 152.61Z" fill="#516193"/>
<path d="M231.157 155.071L231.156 155.744L226.979 153.333L226.982 152.659L231.157 155.071Z" fill="#516193"/>
<path d="M235.391 152.61L231.157 155.071L226.981 152.659L231.214 150.199L235.391 152.61Z" fill="#112B46"/>
<path d="M240.739 155.699L240.737 156.372L236.503 158.832L236.505 158.159L240.739 155.699Z" fill="#516193"/>
<path d="M236.506 158.159L236.503 158.832L232.328 156.421L232.329 155.748L236.506 158.159Z" fill="#516193"/>
<path d="M240.739 155.699L236.506 158.159L232.329 155.748L236.562 153.288L240.739 155.699Z" fill="#112B46"/>
<path d="M246.086 158.786L246.085 159.459L241.851 161.919L241.854 161.245L246.086 158.786Z" fill="#516193"/>
<path d="M241.854 161.245L241.851 161.919L237.674 159.507L237.677 158.834L241.854 161.245Z" fill="#516193"/>
<path d="M246.087 158.786L241.854 161.245L237.677 158.834L241.911 156.374L246.087 158.786Z" fill="#112B46"/>
<path d="M251.445 161.879L251.444 162.552L247.21 165.013L247.211 164.339L251.445 161.879Z" fill="#516193"/>
<path d="M247.211 164.339L247.21 165.013L243.021 162.596L243.024 161.922L247.211 164.339Z" fill="#516193"/>
<path d="M251.445 161.879L247.211 164.339L243.024 161.922L247.258 159.462L251.445 161.879Z" fill="#112B46"/>
<path d="M256.793 164.967L256.791 165.641L252.557 168.101L252.56 167.428L256.793 164.967Z" fill="#516193"/>
<path d="M252.56 167.428L252.557 168.101L248.381 165.689V165.016L252.56 167.428Z" fill="#516193"/>
<path d="M256.793 164.967L252.56 167.428L248.381 165.016L252.615 162.554L256.793 164.967Z" fill="#112B46"/>
<path d="M267.499 171.148L267.498 171.821L263.264 174.281L263.265 173.608L267.499 171.148Z" fill="#516193"/>
<path d="M263.265 173.608L263.264 174.281L253.729 168.776L253.73 168.103L263.265 173.608Z" fill="#516193"/>
<path d="M267.499 171.148L263.265 173.608L253.73 168.103L257.964 165.643L267.499 171.148Z" fill="#112B46"/>
<path d="M203.235 140.297L203.232 140.971L198.99 143.437L198.991 142.764L203.235 140.297Z" fill="#516193"/>
<path d="M198.991 142.764L198.99 143.437L194.812 141.026L194.814 140.351L198.991 142.764Z" fill="#516193"/>
<path d="M203.235 140.297L198.991 142.764L194.814 140.351L199.058 137.885L203.235 140.297Z" fill="#112B46"/>
<path d="M208.594 143.391L208.592 144.064L204.347 146.531L204.35 145.858L208.594 143.391Z" fill="#516193"/>
<path d="M204.349 145.858L204.347 146.531L200.16 144.113L200.161 143.441L204.349 145.858Z" fill="#516193"/>
<path d="M208.593 143.391L204.35 145.858L200.161 143.441L204.406 140.974L208.593 143.391Z" fill="#112B46"/>
<path d="M213.941 146.479L213.939 147.151L209.695 149.618L209.697 148.944L213.941 146.479Z" fill="#516193"/>
<path d="M209.697 148.944L209.695 149.618L205.517 147.206L205.52 146.533L209.697 148.944Z" fill="#516193"/>
<path d="M213.94 146.479L209.697 148.944L205.52 146.533L209.763 144.066L213.94 146.479Z" fill="#112B46"/>
<path d="M240.69 161.922L240.688 162.596L236.444 165.063L236.446 164.389L240.69 161.922Z" fill="#516193"/>
<path d="M236.447 164.389L236.444 165.063L210.866 150.294L210.868 149.621L236.447 164.389Z" fill="#516193"/>
<path d="M240.69 161.922L236.446 164.388L210.868 149.621L215.112 147.154L240.69 161.922Z" fill="#112B46"/>
<path d="M246.049 165.016L246.046 165.688L241.802 168.155L241.805 167.482L246.049 165.016Z" fill="#516193"/>
<path d="M241.805 167.482L241.802 168.155L237.615 165.738L237.617 165.065L241.805 167.482Z" fill="#516193"/>
<path d="M246.049 165.016L241.805 167.482L237.617 165.065L241.861 162.597L246.049 165.016Z" fill="#112B46"/>
<path d="M251.396 168.104L251.395 168.776L247.149 171.243L247.152 170.57L251.396 168.104Z" fill="#516193"/>
<path d="M247.152 170.57L247.149 171.243L242.974 168.832L242.975 168.158L247.152 170.57Z" fill="#516193"/>
<path d="M251.396 168.104L247.152 170.57L242.975 168.158L247.219 165.692L251.396 168.104Z" fill="#112B46"/>
<path d="M262.103 174.284L262.1 174.958L257.856 177.424L257.858 176.75L262.103 174.284Z" fill="#516193"/>
<path d="M257.858 176.75L257.856 177.424L248.321 171.918L248.323 171.245L257.858 176.75Z" fill="#516193"/>
<path d="M262.103 174.284L257.858 176.75L248.324 171.246L252.568 168.779L262.103 174.284Z" fill="#112B46"/>
<path d="M231.559 116.223L280.351 144.395V109.261H280.35L231.559 81.0895V116.223Z" fill="#BEE1F4"/>
<path d="M277.069 112.605L259.625 102.534V127.02L277.069 137.09V112.605Z" fill="#EC827D"/>
<path d="M236.406 90.566L255.954 101.851V100.416L236.406 89.1282V90.566Z" fill="#878CF0"/>
<path d="M236.406 93.8821L255.954 105.168V103.732L236.406 92.4443V93.8821Z" fill="#878CF0"/>
<path d="M236.406 97.1993L255.954 108.486V107.049L236.406 95.7615V97.1993Z" fill="#878CF0"/>
<path d="M236.406 100.515L255.954 111.802V110.365L236.406 99.0789V100.515Z" fill="#878CF0"/>
<path d="M236.406 103.833L255.954 115.119V113.683L236.406 102.395V103.833Z" fill="#878CF0"/>
<path d="M236.406 107.15L255.954 118.435V116.999L236.406 105.712V107.15Z" fill="#878CF0"/>
<path d="M236.406 113.784L250.017 121.642V120.205L236.406 112.346V113.784Z" fill="#878CF0"/>
<path d="M236.406 110.466L255.954 121.752V120.315L236.406 109.03V110.466Z" fill="#878CF0"/>
<path d="M266.88 108.921L261.726 116.253L272.032 122.203L266.88 108.921Z" fill="#56548C"/>
<path d="M262.227 116.142L271.354 121.413L266.79 109.649L262.227 116.142ZM272.709 122.992L261.226 116.364L266.968 108.194L272.709 122.992Z" fill="#EC827D"/>
<path d="M271.003 113.458L265.851 120.788L276.157 126.739L271.003 113.458Z" fill="#56548C"/>
<path d="M266.352 120.679L275.479 125.949L270.915 114.185L266.352 120.679ZM276.835 127.529L265.351 120.899L271.093 112.731L276.835 127.529Z" fill="#EC827D"/>
<path d="M275.021 128.494C275.021 131.057 273.224 132.095 271.003 130.815C268.785 129.532 266.985 126.417 266.985 123.854C266.985 121.292 268.785 120.254 271.003 121.534C273.224 122.817 275.021 125.932 275.021 128.494Z" fill="#56548C"/>
<path d="M269.211 121.33C268.888 121.33 268.592 121.404 268.336 121.553C267.687 121.927 267.331 122.743 267.331 123.854C267.331 126.303 269.057 129.29 271.178 130.514C272.137 131.068 273.023 131.171 273.673 130.796C274.32 130.422 274.677 129.605 274.677 128.495C274.677 126.046 272.951 123.058 270.83 121.835C270.252 121.5 269.699 121.33 269.211 121.33ZM272.8 131.711C272.189 131.711 271.518 131.511 270.832 131.114C268.52 129.778 266.64 126.522 266.64 123.854C266.64 122.486 267.119 121.457 267.99 120.954C268.86 120.45 269.992 120.55 271.176 121.235C273.488 122.571 275.367 125.827 275.367 128.495C275.367 129.863 274.889 130.892 274.019 131.395C273.653 131.606 273.242 131.711 272.8 131.711Z" fill="#EC827D"/>
<path d="M85.0686 273.74L78.2799 269.796C77.4619 269.321 76.9545 268.312 76.9507 266.878L83.7394 270.824C83.7432 272.258 84.2506 273.266 85.0686 273.74Z" fill="#8FA6B5"/>
<path d="M120.598 132.737L127.385 136.682C126.558 136.201 125.412 136.268 124.149 136.998L117.36 133.053C118.623 132.323 119.77 132.256 120.598 132.737Z" fill="#BFCED8"/>
<path d="M77.373 266.633L77.1509 162.489L83.0901 165.941L83.3122 270.087L77.373 266.633Z" fill="#8FA6B5"/>
<path d="M76.7246 161.751L76.9506 266.878L83.7393 270.824L83.5133 165.697L76.7246 161.751ZM77.5767 163.227L82.6676 166.185L82.8872 269.348L77.7976 266.39L77.5767 163.227Z" fill="#BFCED8"/>
<path d="M88.049 157.84L81.2603 153.895L117.36 133.053L124.149 136.998L88.049 157.84Z" fill="#BFCED8"/>
<path d="M83.5134 165.698L76.7246 161.752C76.7158 158.865 78.7494 155.344 81.2602 153.895L88.0489 157.84C85.5381 159.289 83.5045 162.811 83.5134 165.698Z" fill="#BFCED8"/>
<path d="M124.148 136.997C126.659 135.548 128.705 136.715 128.714 139.6L128.94 244.727C128.948 247.613 126.914 251.133 124.403 252.584L88.3049 273.425C85.7942 274.875 83.748 273.709 83.7392 270.824L83.5132 165.697C83.5044 162.811 85.538 159.289 88.0487 157.84L124.148 136.997Z" fill="#2C2264"/>
<path d="M126.471 150.015L85.8105 173.489L85.9822 256.27L126.643 232.795L126.471 150.015Z" fill="#878CF0"/>
<path d="M109.235 246.893C106.723 248.342 104.691 251.863 104.7 254.749C104.707 257.646 106.754 258.812 109.264 257.363C111.786 255.906 113.819 252.386 113.811 249.489C113.802 246.603 111.756 245.437 109.235 246.893Z" fill="#56548C"/>
<path d="M106.817 149.657C106.283 149.964 105.843 150.713 105.845 151.338C105.847 151.95 106.289 152.201 106.822 151.894C107.366 151.58 107.794 150.825 107.792 150.213C107.791 149.589 107.359 149.343 106.817 149.657Z" fill="#4D338B"/>
<path d="M110.866 151.447L102.79 156.11C102.298 156.393 101.899 157.072 101.9 157.638C101.901 158.203 102.303 158.432 102.795 158.148L110.871 153.485C111.363 153.199 111.762 152.51 111.761 151.945C111.759 151.38 111.358 151.163 110.866 151.447Z" fill="#4D338B"/>
<path d="M78.8198 183.678L79.9509 183.019C80.1705 182.893 80.4735 182.91 80.8054 183.102L79.6744 183.76C79.3424 183.568 79.0395 183.549 78.8198 183.678Z" fill="white"/>
<path d="M81.6629 185.945L80.5307 186.602C80.7452 186.477 80.8791 186.214 80.8791 185.837C80.8816 185.07 80.34 184.144 79.6748 183.76L80.8058 183.102C81.4711 183.486 82.0126 184.413 82.0113 185.178C82.0101 185.555 81.8763 185.82 81.6629 185.945Z" fill="white"/>
<path d="M79.6745 183.76C80.3397 184.144 80.8812 185.07 80.8787 185.836C80.8775 186.601 80.3321 186.899 79.6656 186.515C79.0105 186.137 78.469 185.211 78.4702 184.445C78.4727 183.68 79.0181 183.38 79.6745 183.76Z" fill="#BFCED8"/>
<path d="M78.8062 189.804L79.9372 189.148C80.1556 189.02 80.4573 189.036 80.788 189.226L79.6557 189.885C79.3263 189.693 79.0245 189.678 78.8062 189.804Z" fill="white"/>
<path d="M81.6396 192.077L80.5086 192.735C80.7257 192.609 80.8608 192.34 80.862 191.96C80.8633 191.206 80.3218 190.268 79.6553 189.885L80.7876 189.226C81.4541 189.611 81.9943 190.549 81.993 191.302C81.9918 191.683 81.8567 191.95 81.6396 192.077Z" fill="white"/>
<path d="M79.6556 189.885C80.3221 190.269 80.8636 191.206 80.8624 191.96C80.8599 192.726 80.3145 193.037 79.6493 192.652C78.9929 192.273 78.4514 191.335 78.4526 190.57C78.4552 189.815 79.0005 189.505 79.6556 189.885Z" fill="#BFCED8"/>
<path d="M81.3322 179.606L80.2012 180.265C80.3325 180.188 80.4133 180.026 80.4145 179.798L81.5456 179.141C81.5456 179.37 81.4635 179.531 81.3322 179.606Z" fill="white"/>
<path d="M80.4284 174.592L81.5607 173.935L81.5456 179.141L80.4146 179.798L80.4284 174.592Z" fill="white"/>
<path d="M79.1963 173.286L80.3286 172.63C80.4573 172.554 80.6366 172.564 80.8348 172.679L79.7037 173.336C79.5043 173.222 79.3263 173.212 79.1963 173.286Z" fill="white"/>
<path d="M79.7036 173.336L80.8346 172.679C81.2335 172.909 81.5617 173.476 81.5605 173.935L80.4282 174.592C80.4294 174.134 80.1025 173.567 79.7036 173.336Z" fill="white"/>
<path d="M79.7034 173.336C80.1023 173.567 80.4293 174.133 80.428 174.592L80.4141 179.797C80.4129 180.258 80.0834 180.445 79.6832 180.215C79.2844 179.983 78.9675 179.424 78.9688 178.963L78.9827 173.759C78.9852 173.299 79.3033 173.106 79.7034 173.336Z" fill="#BFCED8"/>
<path d="M93.2632 181.367L93.3011 194.608L112.967 183.255L112.929 170.013L93.2632 181.367Z" fill="#56548C"/>
<path d="M110.308 165.614C109.609 166.017 109.043 166.998 109.046 167.8C109.048 168.602 109.618 168.918 110.316 168.515L113.954 166.414C114.646 166.017 115.21 165.045 115.209 164.242C115.206 163.439 114.637 163.116 113.945 163.514L110.308 165.614Z" fill="#FBD15B"/>
<path d="M115.207 164.242C115.206 163.439 114.637 163.116 113.945 163.514L110.308 165.614C109.609 166.017 109.043 166.998 109.046 167.8C109.049 168.602 109.618 168.918 110.316 168.515L113.954 166.414C114.646 166.017 115.21 165.045 115.207 164.242ZM93.3012 194.608L112.967 183.255L112.929 170.013L93.2633 181.367L93.3012 194.608ZM116.689 185.368L89.6026 201.006L89.5332 176.161L116.619 160.522L116.689 185.368Z" fill="#BEE1F4"/>
<path d="M113.023 203.436L99.441 211.278L99.4435 212.139L113.026 204.297L113.023 203.436ZM113.016 200.743L99.4334 208.586L99.4359 209.439L113.018 201.597L113.016 200.743ZM113.031 206.136L102.89 211.99L102.892 212.844L113.034 206.988L113.031 206.136ZM113.008 198.052L99.4258 205.893L99.4284 206.747L113.011 198.904L113.008 198.052ZM112.986 189.968L99.4019 197.81L99.4044 198.663L112.988 190.82L112.986 189.968ZM113.001 195.352L99.4183 203.195L99.4208 204.054L113.003 196.213L113.001 195.352ZM112.993 192.659L99.4107 200.502L99.4132 201.362L112.996 193.522L112.993 192.659Z" fill="#BEE1F4"/>
<path d="M201.886 302.469L200.923 301.91L232.279 311.66L233.242 312.22L201.886 302.469Z" fill="#FF82B1"/>
<path d="M147.782 305.684L146.818 305.125L178.173 315.044L179.137 315.604L147.782 305.684Z" fill="#FA9887"/>
<path d="M201.886 302.469L200.923 301.91L232.121 255.875L233.085 256.434L201.886 302.469Z" fill="#FA9887"/>
<path d="M201.887 302.469L233.085 256.434L233.243 312.22L201.887 302.469Z" fill="#E56363"/>
<path d="M190.541 319.213L189.578 318.652L200.923 301.91L201.886 302.469L190.541 319.213Z" fill="#FF82B1"/>
<path d="M179.137 315.604L178.173 315.044L189.578 318.652L190.541 319.213L179.137 315.604Z" fill="#FF82B1"/>
<path d="M147.939 361.47L146.976 360.911L178.173 315.044L179.137 315.604L147.939 361.47Z" fill="#FF82B1"/>
<path d="M201.887 302.469L233.243 312.221L147.939 361.47L179.138 315.604L190.541 319.213L201.887 302.469Z" fill="#EC827D"/>
<path d="M147.781 305.684L179.137 315.604L147.939 361.47L147.781 305.684Z" fill="#E56363"/>
<path d="M233.085 256.434L201.886 302.469L190.541 319.213L179.137 315.604L147.781 305.684L233.085 256.434Z" fill="#F99898"/>
<path d="M147.939 361.47L146.976 360.911L146.818 305.125L147.782 305.684L147.939 361.47Z" fill="#F99898"/>
<path d="M147.782 305.684L146.818 305.125L232.122 255.875L233.085 256.434L147.782 305.684Z" fill="#EC827D"/>
<path d="M276.713 315.039C275.761 315.039 274.92 314.351 274.758 313.382L258.741 217.745C258.561 216.665 259.29 215.641 260.372 215.459C261.452 215.279 262.477 216.008 262.658 217.089L278.674 312.725C278.855 313.807 278.125 314.83 277.044 315.012C276.933 315.029 276.823 315.039 276.713 315.039Z" fill="#56548C"/>
<path d="M304.131 299.21C303.18 299.21 302.339 298.522 302.176 297.552L286.16 201.914C285.979 200.834 286.709 199.81 287.789 199.628C288.866 199.448 289.894 200.177 290.075 201.258L306.092 296.896C306.272 297.978 305.543 299 304.462 299.182C304.351 299.2 304.24 299.21 304.131 299.21Z" fill="#56548C"/>
<path d="M262.855 232.267C262.17 232.267 261.502 231.911 261.134 231.273C260.585 230.324 260.911 229.11 261.862 228.561L289.279 212.73C290.228 212.183 291.443 212.508 291.991 213.457C292.54 214.406 292.214 215.621 291.265 216.17L263.846 232C263.533 232.181 263.192 232.267 262.855 232.267Z" fill="#56548C"/>
<path d="M265.782 249.745C265.097 249.745 264.429 249.388 264.062 248.75C263.513 247.802 263.838 246.588 264.789 246.039L292.206 230.208C293.156 229.66 294.37 229.985 294.918 230.935C295.467 231.884 295.141 233.099 294.192 233.648L266.773 249.479C266.46 249.658 266.119 249.745 265.782 249.745Z" fill="#56548C"/>
<path d="M268.71 267.22C268.023 267.22 267.355 266.864 266.988 266.227C266.44 265.278 266.765 264.063 267.715 263.515L295.134 247.686C296.083 247.137 297.296 247.461 297.845 248.413C298.393 249.362 298.067 250.577 297.118 251.125L269.699 266.954C269.388 267.135 269.046 267.22 268.71 267.22Z" fill="#56548C"/>
<path d="M271.636 284.698C270.95 284.698 270.282 284.342 269.915 283.705C269.367 282.756 269.692 281.541 270.642 280.992L298.06 265.163C299.008 264.616 300.223 264.941 300.771 265.891C301.32 266.84 300.995 268.053 300.045 268.602L272.627 284.432C272.314 284.612 271.973 284.698 271.636 284.698Z" fill="#56548C"/>
<path d="M274.563 302.176C273.878 302.176 273.21 301.819 272.842 301.183C272.293 300.234 272.619 299.019 273.57 298.47L300.987 282.641C301.935 282.093 303.151 282.417 303.699 283.368C304.248 284.317 303.922 285.532 302.973 286.081L275.554 301.91C275.241 302.089 274.9 302.176 274.563 302.176Z" fill="#56548C"/>
<path d="M417.342 321.733L450.086 302.704L450.072 307.624L417.328 326.654L417.342 321.733Z" fill="#487596"/>
<path d="M377.632 298.806L410.375 279.778L450.086 302.704L417.342 321.733L377.632 298.806Z" fill="#3D5E7C"/>
<path d="M417.342 321.733L417.328 326.654L377.617 303.726L377.632 298.806L417.342 321.733Z" fill="#112B46"/>
<path d="M419.964 287.714L424.056 285.336L424.001 305.041L419.908 307.419L419.964 287.714Z" fill="#487596"/>
<path d="M419.963 287.714L419.908 307.419L403.426 297.903L403.483 278.199L419.963 287.714Z" fill="#112B46"/>
<path d="M403.483 278.199L407.575 275.821L424.056 285.336L419.964 287.714L403.483 278.199Z" fill="#0F3247"/>
<path d="M344.511 145.183L348.604 142.804L483.459 220.663L479.365 223.04L344.511 145.183Z" fill="#3D5E7C"/>
<path d="M479.366 223.039L483.459 220.662L483.234 319.5L479.141 321.88L479.366 223.039Z" fill="#3D5E7C"/>
<path d="M479.366 223.039L479.141 321.88L419.964 287.714L403.483 278.199L344.287 244.022L344.511 145.182L479.366 223.039Z" fill="#112B46"/>
<path d="M350.104 233.174L350.29 155.224L473.549 226.387L473.362 304.336L350.104 233.174Z" fill="#878CF0"/>
<path d="M416.138 276.67L408.964 272.526C407.611 271.744 406.513 272.371 406.509 273.926C406.505 275.481 407.594 277.369 408.948 278.151L416.123 282.294C417.476 283.075 418.574 282.449 418.578 280.894C418.583 279.339 417.492 277.45 416.138 276.67Z" fill="#487596"/>
<path d="M412.559 219.033L412.483 245.805L389.183 232.353L389.259 205.579L412.559 219.033Z" fill="#FBD15B"/>
<path d="M392.546 196.618C392.989 196.873 393.35 197.493 393.348 198.008C393.346 198.518 392.983 198.725 392.54 198.469C392.092 198.209 391.731 197.584 391.732 197.075C391.733 196.56 392.097 196.359 392.546 196.618Z" fill="#112B46"/>
<path d="M386.03 194.711C386.473 194.966 386.837 194.759 386.838 194.25C386.841 193.735 386.478 193.114 386.035 192.859C385.586 192.599 385.229 192.803 385.227 193.318C385.225 193.83 385.581 194.451 386.03 194.711ZM392.54 198.469C392.983 198.725 393.347 198.518 393.348 198.008C393.35 197.493 392.989 196.873 392.546 196.618C392.097 196.359 391.733 196.56 391.732 197.075C391.731 197.584 392.092 198.208 392.54 198.469ZM389.286 196.589C389.729 196.845 390.092 196.638 390.094 196.128C390.095 195.613 389.734 194.995 389.29 194.737C388.841 194.478 388.478 194.68 388.477 195.195C388.475 195.705 388.836 196.33 389.286 196.589ZM438.587 221.724C439.436 222.214 440.125 223.409 440.123 224.391L440.101 231.679C440.105 230.779 439.474 229.686 438.695 229.236L385.046 198.26C384.266 197.812 383.632 198.173 383.629 199.074L383.65 191.787C383.652 190.804 384.346 190.409 385.201 190.901L438.587 221.724Z" fill="#BEE1F4"/>
<path d="M430.495 250.591L430.497 249.529L417.882 242.244L417.879 243.307L430.495 250.591ZM434.806 243.01L434.808 241.948L417.911 232.191L417.907 233.254L434.806 243.01ZM434.787 249.713L434.789 248.65L417.892 238.897L417.888 239.958L434.787 249.713ZM434.835 232.957L434.836 231.895L417.94 222.138L417.936 223.201L434.835 232.957ZM434.815 239.66L434.818 238.599L417.921 228.842L417.917 229.905L434.815 239.66ZM434.825 236.311L434.827 235.243L417.93 225.488L417.926 226.556L434.825 236.311ZM434.796 246.366L434.799 245.297L417.901 235.541L417.898 236.609L434.796 246.366ZM412.483 245.805L412.559 219.033L389.259 205.579L389.183 232.353L412.483 245.805ZM438.695 229.236C439.474 229.685 440.105 230.779 440.101 231.679L440.003 266.729C440 267.623 439.365 267.992 438.586 267.541L384.935 236.566C384.158 236.117 383.527 235.019 383.529 234.124L383.629 199.074C383.632 198.173 384.265 197.812 385.045 198.26L438.695 229.236Z" fill="white"/>
<path d="M386.035 192.859C386.478 193.114 386.84 193.735 386.838 194.25C386.837 194.758 386.473 194.965 386.03 194.71C385.581 194.45 385.225 193.829 385.227 193.318C385.228 192.803 385.586 192.599 386.035 192.859Z" fill="#FF82B1"/>
<path d="M389.289 194.737C389.734 194.994 390.095 195.613 390.094 196.129C390.092 196.638 389.729 196.845 389.286 196.589C388.836 196.33 388.475 195.705 388.477 195.195C388.478 194.68 388.841 194.478 389.289 194.737Z" fill="#606BF1"/>
<path d="M417.879 243.307L430.495 250.591L430.498 249.529L417.882 242.244L417.879 243.307ZM417.898 236.609L434.796 246.366L434.799 245.296L417.901 235.541L417.898 236.609ZM417.888 239.958L434.787 249.713L434.789 248.65L417.892 238.896L417.888 239.958ZM417.926 226.556L434.825 236.313L434.827 235.243L417.93 225.487L417.926 226.556ZM417.939 222.138L417.936 223.201L434.835 232.957L434.836 231.894L417.939 222.138ZM417.917 229.905L434.815 239.66L434.818 238.599L417.921 228.842L417.917 229.905ZM417.907 233.254L434.806 243.01L434.808 241.948L417.911 232.191L417.907 233.254Z" fill="#878CF0"/>
<path d="M396.885 211.61L391.732 218.941L402.039 224.891L396.885 211.61Z" fill="#56548C"/>
<path d="M392.232 218.83L401.361 224.101L396.797 212.337L392.232 218.83ZM402.715 225.681L391.231 219.052L396.973 210.882L402.715 225.681Z" fill="white"/>
<path d="M407.445 227.807C407.445 230.37 405.645 231.409 403.427 230.127C401.207 228.846 399.408 225.729 399.408 223.168C399.408 220.606 401.207 219.566 403.427 220.848C405.645 222.129 407.445 225.245 407.445 227.807Z" fill="#EC827D"/>
<path d="M401.634 220.644C401.311 220.644 401.017 220.717 400.758 220.866C400.112 221.239 399.754 222.057 399.754 223.168C399.754 225.616 401.48 228.604 403.599 229.827C404.562 230.384 405.449 230.481 406.095 230.11C406.742 229.736 407.1 228.918 407.1 227.807C407.1 225.358 405.374 222.372 403.255 221.147C402.674 220.813 402.122 220.644 401.634 220.644ZM405.223 231.025C404.612 231.025 403.941 230.823 403.253 230.427C400.943 229.092 399.062 225.837 399.062 223.168C399.062 221.8 399.542 220.769 400.413 220.266C401.284 219.765 402.415 219.866 403.601 220.549C405.911 221.882 407.791 225.137 407.791 227.807C407.791 229.176 407.312 230.206 406.441 230.709C406.076 230.92 405.664 231.025 405.223 231.025Z" fill="white"/>
<path d="M397.247 231.602C397.247 233.274 396.073 233.951 394.625 233.115C393.177 232.279 392.003 230.246 392.003 228.573C392.003 226.902 393.177 226.224 394.625 227.061C396.073 227.897 397.247 229.929 397.247 231.602Z" fill="#606BF1"/>
<path d="M393.455 227.047C393.265 227.047 393.094 227.089 392.944 227.176C392.561 227.397 392.349 227.893 392.349 228.573C392.349 230.132 393.447 232.036 394.798 232.815C395.387 233.155 395.921 233.221 396.306 232.999C396.69 232.777 396.901 232.282 396.901 231.602C396.901 230.043 395.803 228.139 394.452 227.36C394.092 227.152 393.753 227.047 393.455 227.047ZM395.796 233.819C395.377 233.819 394.919 233.684 394.452 233.414C392.885 232.509 391.657 230.383 391.657 228.573C391.657 227.637 391.992 226.926 392.599 226.576C393.206 226.228 393.988 226.292 394.798 226.762C396.364 227.666 397.593 229.791 397.593 231.602C397.593 232.538 397.258 233.248 396.652 233.599C396.395 233.746 396.106 233.819 395.796 233.819Z" fill="white"/>
<path fill-rule="evenodd" clip-rule="evenodd" d="M360.851 324.752V325.404C362.153 326.169 365.076 325.764 365.839 325.404C366.342 324.644 367.705 324.846 368.469 325.148C371.391 325.404 372.46 324.972 373.436 324.258C373.931 323.897 374.817 322.955 374.711 321.954C371.233 322.753 360.851 324.752 360.851 324.752Z" fill="#112B46"/>
<path fill-rule="evenodd" clip-rule="evenodd" d="M365.839 319.696C365.839 319.696 369.032 320.596 370.919 320.864C372.807 321.134 374.155 320.819 374.605 321.494C375.054 322.169 374.066 323.921 372.403 324.505C370.74 325.09 367.324 324.416 366.065 324.686C364.805 324.956 361.614 325.539 360.851 324.752C360.087 323.965 360.851 320.145 360.851 320.145L365.839 319.696Z" fill="#56548C"/>
<path fill-rule="evenodd" clip-rule="evenodd" d="M348.148 315.491L353.858 309.098C356.135 308.446 358.529 308.31 358.226 310.413C357.955 312.279 354.986 313.093 352.944 314.907L351.063 316.578C349.71 317.778 347.98 316.728 348.148 315.491Z" fill="#56548C"/>
<path fill-rule="evenodd" clip-rule="evenodd" d="M384.681 233.408C385.928 232.646 387.574 230.935 388.112 229.59C388.58 228.418 389.055 227.22 389.119 225.962C389.177 224.842 388.897 223.71 388.327 222.745C388.281 222.664 388.228 222.582 388.149 222.532C387.867 222.348 387.532 222.673 387.353 222.96C386.334 224.577 385.42 226.385 384.144 227.807C384.229 227.263 384.439 226.602 384.681 226.107C385.091 225.266 384.375 225.295 384.375 225.295C383.894 225.602 382.506 227.85 382.309 228.684C382.111 229.523 381.609 231.665 381.609 231.665L381.872 231.901C381.664 232.195 381.527 232.378 381.527 232.378C381.527 232.378 383.823 233.929 384.681 233.408Z" fill="#FFC8AF"/>
<path fill-rule="evenodd" clip-rule="evenodd" d="M348.615 238.642C348.615 238.642 340.727 241.508 346.872 249.641L348.615 238.642Z" fill="#20318D"/>
<path fill-rule="evenodd" clip-rule="evenodd" d="M353.586 222.689C355.281 222.411 357.594 222.358 359.23 222.841C361.985 223.655 363.49 225.415 364.155 228.028C364.826 230.663 365.022 235.055 363.514 237.502C362.571 239.033 360.473 238.745 358.972 238.346C357.158 237.865 354.786 237.084 353.299 235.962C351.229 234.395 350.132 230.971 350.006 228.493C349.896 226.358 350.999 223.111 353.586 222.689Z" fill="#FFC8AF"/>
<path fill-rule="evenodd" clip-rule="evenodd" d="M353.552 235.399C353.773 235.637 354.008 235.856 354.258 236.045C355.745 237.167 357.158 237.865 358.972 238.346C359.26 238.423 359.574 238.493 359.895 238.547L359.751 240.199C357.824 240.728 355.95 239.914 354.62 239.545C353.628 239.27 352.089 239.018 352.089 237.973L353.547 235.397L353.552 235.399Z" fill="#FFC8AF"/>
<path fill-rule="evenodd" clip-rule="evenodd" d="M351.445 223.174C349.794 224.27 349.919 226.763 350.006 228.492C350.132 230.97 351.229 234.395 353.3 235.962C354.443 236.825 354.495 236.922 356.029 237.401C356.171 237.334 356.516 237.093 356.913 236.804C357.771 236.177 358.175 235.075 357.861 234.063C357.553 233.063 357.522 231.867 358.087 231.559C359.01 231.055 359.626 232.846 359.626 232.846C360.158 232.651 360.969 232.035 360.521 230.972C360.073 229.908 360.521 228.789 360.521 228.789C362.157 228.821 362.918 226.594 363.436 226.302C364.54 225.681 364.912 225.434 364.734 224.385C364.617 223.696 364.336 223.014 363.826 222.538C363.249 221.999 361.305 221.262 360.54 221.07C355.993 219.93 352.488 220.742 351.445 223.174Z" fill="#56548C"/>
<path fill-rule="evenodd" clip-rule="evenodd" d="M351.063 316.578L352.944 314.907C354.986 313.093 357.955 312.279 358.227 310.413V310.41L358.228 310.4V310.393L358.229 310.39V310.388C358.26 310.571 358.26 310.779 358.227 311.019C357.955 312.883 354.986 313.699 352.944 315.511L351.063 317.183C349.468 318.599 347.784 317.589 348.148 315.491C347.981 316.728 349.71 317.779 351.063 316.578Z" fill="#112B46"/>
<path fill-rule="evenodd" clip-rule="evenodd" d="M348.184 271.06C346.211 273.851 351.141 281.578 349.793 291.197C348.878 297.72 347.097 308.672 347.522 314.854C347.599 315.978 352.001 316.784 353.194 311.336C355.223 302.07 357.765 296.288 358.659 289.099L358.185 268.248L348.184 271.06Z" fill="#2C2264"/>
<path fill-rule="evenodd" clip-rule="evenodd" d="M354.489 270.045C353.943 278.709 360.151 289.309 359.74 296.304C359.316 303.517 360.101 312.287 360.122 320.095C360.122 320.095 366.498 323.114 366.783 318.447C367.721 303.155 370.65 298.389 366.696 270.408L354.489 270.045Z" fill="#2C2264"/>
<path fill-rule="evenodd" clip-rule="evenodd" d="M366.04 261.661C366.263 253.313 364.706 245.087 364.706 245.087C363.955 244.006 363.05 243.079 361.984 242.312L359.943 239.842C357.343 239.203 354.799 238.432 352.314 237.524L348.615 238.642C345.606 239.915 344.614 243.809 345.953 247.696C345.92 247.87 349.013 256.693 349.36 259.959C349.393 260.28 347.079 268.941 346.573 272.472C346.573 272.472 348.772 274.482 349.379 274.99C353.852 280.54 368.474 273.81 369.024 270.853C369.23 269.749 367.434 266.314 366.04 261.661Z" fill="#EC827D"/>
<path d="M361.12 250.894C358.163 250.966 355.591 247.028 357.204 244.55C357.78 243.668 358.315 242.932 359.301 242.649C361.742 241.95 369.009 243.639 373.643 243.754C377.35 239.235 381.452 231.198 381.452 231.198C384.349 231.391 385.159 233.476 385.159 233.476C378.903 249.581 376.847 249.826 376.5 250.198C376.151 250.572 361.151 250.894 361.12 250.894Z" fill="#EC827D"/>
<path d="M418.095 368.996C418.112 369.222 418.112 369.463 418.095 369.689V368.996Z" fill="black"/>
<path d="M418.095 378.886C418.112 379.064 418.112 379.257 418.095 379.452V378.886Z" fill="black"/>
<path d="M418.096 378.886V379.451C418 381.706 416.453 383.945 413.506 385.653L298.007 452.343C291.869 455.886 281.818 455.886 275.679 452.343L194.637 405.546C191.528 403.758 189.998 401.375 190.03 399.022V389.196C190.046 391.515 191.577 393.835 194.637 395.591L275.679 442.387C281.818 445.931 291.869 445.931 298.007 442.387L413.506 375.697C416.373 374.037 417.919 371.879 418.096 369.689V378.886Z" fill="#56548C"/>
<path d="M390.213 349.36L398.814 354.338H398.83L413.506 362.81C416.453 364.517 418 366.741 418.096 368.996V369.689C417.919 371.879 416.373 374.037 413.506 375.697L298.007 442.387C291.869 445.931 281.818 445.931 275.679 442.387L194.637 395.591C191.577 393.835 190.046 391.515 190.03 389.196C190.015 386.845 191.545 384.493 194.637 382.704L310.168 316.015C316.307 312.471 326.342 312.471 332.479 316.015L355.756 329.449L347.137 334.442L321.3 319.527L209.312 384.186L295.461 433.914L407.448 369.253L381.61 354.338V354.32L390.196 349.344V349.36H390.213Z" fill="#6F6FA5"/>
<path d="M381.61 354.338V354.32L347.137 334.442L321.3 319.527L209.312 384.186L295.461 433.914L407.448 369.253L381.61 354.338Z" fill="white"/>
<path d="M381.564 332.991L381.532 344.104C381.534 343.532 381.158 342.959 380.403 342.525C378.903 341.659 376.474 341.659 374.985 342.525C374.24 342.957 373.866 343.525 373.865 344.09L373.897 332.976C373.898 332.41 374.27 331.845 375.016 331.41C376.506 330.544 378.935 330.544 380.434 331.41C381.189 331.847 381.565 332.419 381.564 332.991Z" fill="#EC827D"/>
<path d="M392.128 336.454L392.098 347.568C392.092 349.484 390.831 351.4 388.309 352.866L388.34 341.751C390.862 340.287 392.123 338.372 392.128 336.454Z" fill="#EC827D"/>
<path d="M388.34 341.751L388.308 352.866L385.252 354.641L385.284 343.529L388.34 341.751Z" fill="#EC827D"/>
<path d="M389.375 354.507C386.733 356.042 382.424 356.047 379.764 354.512L340.555 331.874C339.216 331.102 338.548 330.084 338.551 329.067L338.519 331.364C338.517 332.378 339.186 333.397 340.524 334.17L379.732 356.807C382.393 358.343 386.702 358.338 389.344 356.802L396.782 352.48L396.813 350.183L389.375 354.507Z" fill="#EC827D"/>
<path d="M375.025 334.555C376.524 335.421 378.952 335.421 380.452 334.548C381.941 333.684 381.934 332.275 380.434 331.41C378.935 330.544 376.506 330.544 375.016 331.41C373.518 332.281 373.526 333.689 375.025 334.555ZM385.284 343.528L396.813 350.183L389.375 354.507C386.733 356.042 382.424 356.047 379.764 354.512L340.555 331.873C337.896 330.339 337.88 327.837 340.524 326.302L347.961 321.978L359.499 328.642L362.555 326.865C367.628 323.916 375.861 323.916 380.958 326.858L388.29 331.092C393.387 334.035 393.413 338.804 388.34 341.751L385.284 343.528Z" fill="#F99898"/>
<path d="M244.772 374.035L288.977 399.556L291.298 398.21L247.093 372.687L244.772 374.035ZM257.421 366.684L326.545 406.594L328.872 405.243L259.746 365.334L257.421 366.684ZM270.074 359.331L339.2 399.241L341.52 397.892L272.393 357.983L270.074 359.331ZM282.729 351.977L351.854 391.887L354.175 390.54L285.048 350.629L282.729 351.977ZM297.703 343.275L295.376 344.628L364.502 384.537L366.828 383.186L297.703 343.275ZM366.29 368.222L323.536 343.537L321.217 344.887L363.97 369.57L366.29 368.222Z" fill="#CECCFF"/>
<path d="M312.228 198.321C312.362 197.836 312.524 197.352 312.741 196.869C312.81 196.719 312.887 196.564 313.022 196.466C313.519 196.107 314.981 196.634 315.481 196.855C317.497 197.744 318.599 200.025 319.809 201.726C321.027 203.434 322.24 205.202 323.671 206.743C325.622 208.848 323.298 209.685 320.37 209.592C318.39 209.529 317.03 207.929 315.604 206.796C314.472 205.896 312.692 205.728 311.843 204.493C311.214 203.581 311.377 202.359 311.604 201.273C311.817 200.262 311.964 199.285 312.228 198.321Z" fill="#56548C"/>
<path d="M298.943 208.427C299.079 207.929 299.246 207.435 299.469 206.94C299.539 206.785 299.618 206.626 299.756 206.527C300.266 206.16 301.763 206.701 302.276 206.927C304.341 207.836 305.469 210.173 306.71 211.915C307.956 213.667 309.199 215.476 310.664 217.055C312.664 219.211 310.284 220.068 307.284 219.973C305.256 219.909 303.861 218.269 302.402 217.108C301.243 216.188 299.419 216.016 298.548 214.75C297.905 213.816 298.072 212.563 298.306 211.453C298.524 210.415 298.673 209.415 298.943 208.427Z" fill="#56548C"/>
<path d="M279.923 169.887C279.923 169.887 300.002 179.228 303.051 184.183C306.1 189.136 305.655 209.125 305.655 209.125C300.98 211.107 298.442 209.125 298.442 209.125C295.862 195.961 295.188 190.453 295.188 190.453C280.29 183.589 275.615 181.884 279.923 169.887Z" fill="#112B46"/>
<path d="M292.035 168.025C292.035 168.025 310.118 171.985 314.784 174.989C319.451 177.992 318.027 198.207 318.027 198.207C314.542 200.091 311.555 198.207 311.555 198.207C310.275 188.226 308.712 183.525 308.712 183.525C308.712 183.525 292.844 179.94 288.152 177.648C280.69 174.004 289.853 167.6 292.035 168.025Z" fill="#112B46"/>
<path fill-rule="evenodd" clip-rule="evenodd" d="M295.797 138.584C298.059 139.661 297.86 155.531 298.006 157.424C298.154 159.317 307.786 171.489 307.786 171.489C306.541 174.135 302.97 174.592 302.97 174.592C302.472 173.924 294.774 166.069 291.888 160.518C289.001 154.97 289.958 135.81 295.797 138.584Z" fill="#56548C"/>
<path fill-rule="evenodd" clip-rule="evenodd" d="M293.861 137.592C289.328 137.366 281.349 139.669 277.864 144.064C274.379 148.458 276.576 153.891 277.755 158.6C278.933 163.305 277.454 171.866 277.451 172.999C282.803 176.589 292.263 173.312 293.744 168.008C294.375 162.23 293.283 163.167 293.23 159.784C293.443 152.52 299.852 139.775 293.861 137.592Z" fill="white"/>
<path fill-rule="evenodd" clip-rule="evenodd" d="M289.905 138.648C292.261 148.896 290.578 157.876 290.055 162.22C289.533 166.561 292.035 177.085 292.035 177.085C295.529 175.319 296.085 172.219 295.934 170.737C294.901 160.578 294.755 158.649 294.794 158.313C295.435 152.826 297.637 148.688 297.449 143.449C297.261 138.211 293.857 137.591 293.857 137.591L289.487 137.567L289.905 138.648Z" fill="#56548C"/>
<path fill-rule="evenodd" clip-rule="evenodd" d="M283.688 134.453C283.688 134.453 284.035 138.692 282.915 140.248C282.831 141.291 285.795 145.727 288.775 144.972C290.509 144.531 290.313 142.51 290.313 142.51C290.136 140.968 290.34 137.245 290.34 137.245L283.688 134.453Z" fill="#F4AE92"/>
<path fill-rule="evenodd" clip-rule="evenodd" d="M282.735 139.573C286.225 147.03 284.908 151.625 284.755 157.761C284.602 163.899 281.42 181.132 281.42 181.132C275.308 179.609 273.408 178.25 272.228 176.158C274.874 164.187 274.537 148.959 275.322 144.063C275.951 140.147 282.735 139.573 282.735 139.573Z" fill="#56548C"/>
<path fill-rule="evenodd" clip-rule="evenodd" d="M282.172 176.894C282.543 174.74 283.002 171.99 283.431 169.187C281.489 166.716 279.688 164.216 279.621 163.355C279.475 161.461 281.843 145.489 279.579 144.412C277.763 143.55 276.209 144.82 275.017 147.148C274.702 151.788 274.549 159.272 273.711 166.824C275.952 170.901 280.059 174.887 282.172 176.894Z" fill="#112B46"/>
<path fill-rule="evenodd" clip-rule="evenodd" d="M283.526 138.584C283.502 138.713 282.735 139.573 282.735 139.573C282.735 139.573 284.247 142.925 284.791 144.405C285.335 145.883 286.779 147.124 286.779 147.124L288.775 144.972C286.048 143.509 283.526 138.584 283.526 138.584Z" fill="#E8F2F9"/>
<path fill-rule="evenodd" clip-rule="evenodd" d="M290.078 139.688C289.899 139.46 289.439 143.86 288.775 144.972C290.038 146.173 290.794 146.499 290.794 146.499C290.794 146.499 291.578 141.577 290.078 139.688Z" fill="#E8F2F9"/>
<path fill-rule="evenodd" clip-rule="evenodd" d="M295.682 129.088C295.682 129.088 295.497 131.753 295.084 133.796C294.412 137.115 293.245 139.715 291.166 140.589C289.088 141.464 285.989 139.892 284.626 138.067C283.261 136.242 282.957 132.67 283.652 129.454C284.348 126.236 286.504 122.593 291.084 123.854C295.665 125.116 295.682 129.088 295.682 129.088Z" fill="#FFC8AF"/>
<path d="M295.944 130.846C296.098 132.826 289.589 132.073 287.86 131.379C287.465 133.087 286.883 133.832 286.268 133.992C285.652 134.152 285.012 136.873 284.638 137.778C282.292 135.272 282.476 131.7 282.758 127.593C283.039 123.487 286.628 123.599 286.628 123.599C289.063 123.92 295.517 125.354 295.944 130.846Z" fill="#2C2264"/>
<path d="M284.639 125.728C286.345 122.687 293.23 121.835 295.946 126.633C298.663 131.433 294.983 131.326 294.983 131.326L284.639 125.728Z" fill="#2C2264"/>
<path d="M286.59 134.152C286.933 132.152 286.66 131.354 285.618 131.832C284.575 132.312 284.302 134.792 285.618 135.152C286.933 135.512 286.59 134.152 286.59 134.152Z" fill="#FFC8AF"/>
<path fill-rule="evenodd" clip-rule="evenodd" d="M311.759 174.276L300.453 167.749L281.348 178.78L279.875 178.997V179.38C279.875 179.537 279.939 179.656 280.084 179.75L291.606 186.402C291.956 186.604 292.567 186.58 292.972 186.346L312.086 175.31C312.332 175.169 312.443 174.982 312.414 174.811V174.179L311.759 174.276Z" fill="#606BF1"/>
<path fill-rule="evenodd" clip-rule="evenodd" d="M312.086 174.679L292.972 185.714C292.567 185.948 291.956 185.973 291.606 185.771L279.875 178.997L300.453 167.118L312.183 173.89C312.534 174.092 312.49 174.444 312.086 174.679Z" fill="#2B3BBD"/>
<path fill-rule="evenodd" clip-rule="evenodd" d="M312.086 174.679L292.972 185.714C292.567 185.948 291.956 185.973 291.606 185.771L279.875 178.997L300.453 167.118L312.183 173.89C312.534 174.092 312.49 174.444 312.086 174.679Z" fill="#CECCFF"/>
<path fill-rule="evenodd" clip-rule="evenodd" d="M311.035 174.516L292.421 185.263L286.868 182.057L305.482 171.31L311.035 174.516Z" fill="#2C2264"/>
<path fill-rule="evenodd" clip-rule="evenodd" d="M297.754 174.107L293.319 176.667C293.067 176.812 292.687 176.829 292.469 176.702L290.342 175.475C290.124 175.349 290.151 175.13 290.403 174.984L294.838 172.424C295.089 172.278 295.47 172.263 295.689 172.388L297.814 173.616C298.032 173.742 298.005 173.961 297.754 174.107Z" fill="#606BF1"/>
<path fill-rule="evenodd" clip-rule="evenodd" d="M312.086 174.679L292.972 185.714L299.742 171.516C299.965 171.062 300.43 170.531 300.78 170.329L318.755 159.95C319.105 159.748 319.208 159.952 318.986 160.405L312.086 174.679Z" fill="#606BF1"/>
<path fill-rule="evenodd" clip-rule="evenodd" d="M287.142 172.701C287.142 172.701 288.611 173.318 289.788 173.697C290.965 174.077 292.283 174.839 292.883 175.183C293.484 175.527 292.983 175.866 292.161 175.871C291.34 175.876 290.144 175.436 290.144 175.436C290.144 175.436 292.032 176.252 292.649 176.56C293.267 176.867 294.716 177.936 294.679 178.28C294.642 178.625 293.447 178.154 293.447 178.154C293.447 178.154 294.026 178.534 294.208 178.897C294.389 179.259 293.827 179.513 293.212 179.24C292.595 178.968 290.675 178.335 290.675 178.335C290.675 178.335 292.645 179.295 292.883 179.656C293.121 180.019 292.414 180.255 291.671 179.91C290.93 179.567 289.57 179.042 289.57 179.042C289.57 179.042 290.965 179.757 291.111 180.078C291.256 180.4 290.458 180.41 289.697 180.078C288.937 179.747 285.876 178.009 285.15 177.302C284.427 176.595 283.811 175.098 283.811 175.098L287.142 172.701Z" fill="#FFC8AF"/>
<path fill-rule="evenodd" clip-rule="evenodd" d="M278.861 141.538C281.125 142.614 278.757 158.587 278.903 160.48C279.049 162.373 287.57 172.19 287.57 172.19C286.325 174.837 282.754 175.292 282.754 175.292C282.257 174.626 275.67 169.124 272.783 163.576C269.896 158.025 273.022 138.764 278.861 141.538Z" fill="#56548C"/>
<path fill-rule="evenodd" clip-rule="evenodd" d="M140.901 171.801C140.901 171.801 132.871 177.48 129.507 179.365C126.144 181.248 113.811 173.935 113.811 173.935C113.811 173.935 111.22 174.77 112.005 177.62C120.605 183.415 127.005 186.644 129.564 186.065C132.121 185.486 139.229 182.524 141.844 181.132C144.458 179.741 144.479 171.47 140.901 171.801Z" fill="#EC827D"/>
<path fill-rule="evenodd" clip-rule="evenodd" d="M142.372 259.324C142.208 261.648 141.994 263.971 141.994 263.971H141.477C141.477 263.971 141.479 260.458 140.928 261.198C141.005 259.283 142.372 259.324 142.372 259.324Z" fill="#2C2264"/>
<path fill-rule="evenodd" clip-rule="evenodd" d="M135.199 263.282C134.951 263.282 134.616 263.012 134.316 262.605C134.844 261.975 135.367 261.361 135.715 260.877C136.833 259.326 138.64 255.886 138.726 254.338C138.812 252.791 137.866 236.621 137.607 234.643C137.35 232.664 136.609 225.183 136.678 224.752C136.748 224.322 143.628 227.408 143.628 227.408C143.541 228.02 142.611 231.891 142.991 234.385C143.37 236.878 143.973 238.527 143.628 242.605C143.284 246.684 141.306 253.22 141.994 256.316C142.006 256.373 142.017 256.421 142.028 256.476C140.004 259.25 139.292 264.646 135.199 263.282Z" fill="#FFC8AF"/>
<path fill-rule="evenodd" clip-rule="evenodd" d="M134.316 262.605C134.616 263.012 134.951 263.282 135.199 263.282C139.292 264.646 140.004 259.25 142.028 256.475C142.669 259.419 142.384 259.764 141.85 260.187C141.306 260.617 139.414 262.939 139.069 264.573C138.726 266.208 133.565 266.035 132.619 265.69C131.967 265.454 133.151 263.996 134.316 262.605Z" fill="#2C2264"/>
<path fill-rule="evenodd" clip-rule="evenodd" d="M149.421 241.348C149.621 243.157 150.681 257.09 150.508 259.417C150.406 260.834 149.731 263.062 149.311 264.851C149.043 265.987 148.885 266.949 149.043 267.411C149.455 268.601 149.477 272.146 151.396 271.347C153.323 270.549 154.595 268.079 154.203 265.347C153.818 262.615 154.279 261.301 154.169 259.67C154.059 258.039 155.153 247.884 155.325 244.279C155.497 240.659 154.293 238.939 154.203 236.532C154.121 234.124 154.843 229.1 154.843 229.1C154.843 229.1 146.552 224.752 147.234 229.995C147.914 235.245 149.222 239.545 149.421 241.348Z" fill="#FFC8AF"/>
<path fill-rule="evenodd" clip-rule="evenodd" d="M157.991 201.436C159.118 206.57 156.432 209.991 155.937 211.157C155.442 212.322 157.018 226.869 157.018 226.869C152.658 232.936 137.433 229.202 134.94 225.391C135.281 216.427 136.138 201.745 136.056 200.19C135.974 198.634 157.991 201.436 157.991 201.436Z" fill="#2C2264"/>
<path fill-rule="evenodd" clip-rule="evenodd" d="M148.703 267.54C148.832 269.962 149.477 272.146 151.396 271.347C153.323 270.549 154.595 268.079 154.203 265.347C153.172 268.361 149.229 268.23 149.311 264.851C149.043 265.987 148.677 267.054 148.703 267.54Z" fill="#2C2264"/>
<path fill-rule="evenodd" clip-rule="evenodd" d="M143.139 153.123C140.516 155.622 139.644 157.803 140.027 160.256C140.408 162.709 140.845 165.816 139.59 166.744C142.262 168.816 147.319 165.816 147.217 165.272C147.113 164.727 144.402 156.821 144.149 156.767L143.139 153.123Z" fill="#2C2264"/>
<path fill-rule="evenodd" clip-rule="evenodd" d="M140.902 171.707C146.517 169.077 156.165 170.601 159.935 174.473C163.706 178.343 155.785 185.502 154.474 189.623C153.164 193.742 162.202 205.305 159.223 208.847C153.372 211.97 136.509 209.835 134.926 205.179C134.984 198.269 139.392 192.222 138.342 189.353C138.287 187.51 135.463 181.498 136.593 179.175C138.898 174.436 138.396 173.154 140.902 171.707Z" fill="#2C2264"/>
<path fill-rule="evenodd" clip-rule="evenodd" d="M141.566 156.461C141.566 156.461 140.801 159.164 141.089 161.265C141.376 163.366 141.567 167.549 143.429 168.889C145.291 170.228 147.959 168.674 149.727 167.173C151.494 165.673 153.366 162.905 153.409 159.558C153.45 156.21 152.141 152.109 147.314 152.318C142.487 152.528 141.566 156.461 141.566 156.461Z" fill="#FFC8AF"/>
<path fill-rule="evenodd" clip-rule="evenodd" d="M149.786 166.025C149.786 166.025 149.474 170.334 150.411 171.925C150.478 172.985 147.956 177.481 145.444 176.695C143.981 176.238 144.158 174.184 144.158 174.184C144.313 172.616 144.158 168.828 144.158 168.828L149.786 166.025Z" fill="#FFC8AF"/>
<path fill-rule="evenodd" clip-rule="evenodd" d="M145.997 156.603C146.977 160.037 150.003 160.855 150.003 160.855C150.494 165.436 149.412 168.683 147.932 169.399C151.929 170.852 154.251 169.739 155.341 167.591C156.433 165.441 157.282 156.277 152.784 153.496C148.286 150.715 145.997 156.603 145.997 156.603Z" fill="#2C2264"/>
<path fill-rule="evenodd" clip-rule="evenodd" d="M145.996 156.603C144.606 158.485 141.531 158.565 141.024 158.485C141.09 151.206 148.122 150.47 150.412 153.087C148.531 156.685 145.996 156.603 145.996 156.603Z" fill="#2C2264"/>
<path fill-rule="evenodd" clip-rule="evenodd" d="M151.446 190.392C151.172 190.269 152.809 177.311 152.809 177.311L141.391 175.052L140.9 195.062L151.258 197.485L151.446 190.392Z" fill="white"/>
<path fill-rule="evenodd" clip-rule="evenodd" d="M145.349 187.084C145.349 187.084 141.708 183.534 140.9 182.717C140.094 181.901 140.105 182.996 141.15 184.9C139.509 185.286 138.459 187.484 138.342 188.254C138.225 189.023 140.307 191.008 140.9 191.242C141.495 191.475 143.926 191.242 143.926 191.242L145.349 187.084Z" fill="#FFC8AF"/>
<path fill-rule="evenodd" clip-rule="evenodd" d="M158.088 173.86C154.971 174.082 154.47 190.948 154.47 190.948C154.47 190.948 145.942 186.981 145.349 187.084C142.188 187.77 143.926 191.242 143.926 191.242C150.602 196.312 153.3 199.226 156.559 198.599C159.819 197.972 162.281 186.317 162.165 181.061C162.048 175.806 160.061 173.718 158.088 173.86Z" fill="#EC827D"/>
<path fill-rule="evenodd" clip-rule="evenodd" d="M113.929 174.896C113.675 174.775 112.706 172.982 112.221 172.547C111.736 172.111 109.848 171.045 109.315 170.172C108.782 169.301 108.733 171.373 109.315 171.839C109.896 172.305 110.38 172.748 110.38 172.748C110.38 172.748 107.146 170.786 106.226 170.609C105.306 170.435 104.095 170.06 103.901 170.609C103.708 171.161 104.304 173.725 104.836 174.307C105.37 174.888 106.456 175.55 107.91 176.277C109.363 177.004 112.755 177.22 112.755 177.22C113.614 176.649 114.036 175.888 113.929 174.896Z" fill="#FFC8AF"/>
<path fill-rule="evenodd" clip-rule="evenodd" d="M287.874 348.45L303.021 339.705V256.289L287.874 265.034V348.45Z" fill="#EC827D"/>
<path fill-rule="evenodd" clip-rule="evenodd" d="M264.02 362.223L279.166 353.477V312.272L264.02 321.018V362.223Z" fill="#FBD15B"/>
<path fill-rule="evenodd" clip-rule="evenodd" d="M240.166 375.995L255.313 367.25V310.469L240.166 319.214V375.995Z" fill="#878CF0"/>
<path d="M309.845 274.816C309.845 274.816 308.62 266.834 306.843 264.61C305.064 262.384 306.773 268.36 306.491 268.853C304.649 269.659 303.344 271.944 304.441 273.77C305.538 275.596 306.942 275.582 306.942 275.582L309.845 274.816Z" fill="#FFC8AF"/>
<path d="M328.113 297.454C315.9 293.102 314.206 291.987 314.206 291.987C314.206 291.987 310.919 276.811 310.536 274.193C308.031 273.446 305.538 275.596 305.538 275.596C306.943 288.018 306.992 294.296 308.157 296.789C309.322 299.283 320.762 304.35 323.903 305.684C327.044 307.019 332.61 303.165 328.113 297.454Z" fill="#46467F"/>
<path fill-rule="evenodd" clip-rule="evenodd" d="M317.012 282.382C314.39 283.547 311.973 292.3 313.411 295.383C314.848 298.464 317.134 298.699 320.016 297.927C322.897 297.156 326.16 293.383 327.223 289.874C328.671 285.096 324.481 279.06 317.012 282.382Z" fill="#FFC8AF"/>
<path fill-rule="evenodd" clip-rule="evenodd" d="M313.935 387.952V388.643C312.555 389.451 309.462 389.024 308.653 388.643C308.122 387.837 306.679 388.05 305.87 388.371C302.777 388.643 301.646 388.184 300.612 387.429C300.088 387.045 299.15 386.049 299.263 384.99C302.944 385.835 313.935 387.952 313.935 387.952Z" fill="#112B46"/>
<path fill-rule="evenodd" clip-rule="evenodd" d="M308.653 382.6C308.653 382.6 305.275 383.551 303.276 383.837C301.278 384.122 299.851 383.789 299.375 384.502C298.899 385.217 299.945 387.073 301.706 387.69C303.467 388.309 307.082 387.596 308.415 387.881C309.747 388.166 313.126 388.784 313.934 387.952C314.743 387.12 313.934 383.076 313.934 383.076L308.653 382.6Z" fill="#56548C"/>
<path fill-rule="evenodd" clip-rule="evenodd" d="M327.381 378.147L321.337 371.38C318.927 370.691 316.391 370.548 316.713 372.772C316.999 374.747 320.143 375.611 322.304 377.53L324.297 379.299C325.728 380.57 327.559 379.458 327.381 378.147Z" fill="#56548C"/>
<path fill-rule="evenodd" clip-rule="evenodd" d="M321.66 293.369C321.426 293.619 321.177 293.851 320.914 294.052C319.338 295.241 317.842 295.981 315.922 296.49C315.617 296.569 315.285 296.642 314.945 296.702L315.099 298.45C317.138 299.01 319.121 298.148 320.531 297.757C321.58 297.465 323.208 297.198 323.208 296.093L321.666 293.367L321.66 293.369Z" fill="#FFC8AF"/>
<path fill-rule="evenodd" clip-rule="evenodd" d="M324.297 379.299L322.304 377.53C320.143 375.611 316.999 374.747 316.713 372.772V372.771L316.712 372.761V372.755L316.71 372.754V372.746C316.678 372.939 316.678 373.161 316.713 373.414C316.999 375.388 320.143 376.25 322.304 378.17L324.297 379.939C325.986 381.44 327.768 380.369 327.381 378.147C327.559 379.458 325.728 380.57 324.297 379.299Z" fill="#112B46"/>
<path fill-rule="evenodd" clip-rule="evenodd" d="M327.344 331.116C329.43 334.071 324.212 342.251 325.64 352.433C326.608 359.339 328.494 370.931 328.043 377.473C327.961 378.665 323.303 379.517 322.04 373.75C319.891 363.941 317.201 357.822 316.254 350.211L316.757 328.14L327.344 331.116Z" fill="#E56363"/>
<path fill-rule="evenodd" clip-rule="evenodd" d="M320.669 330.043C321.246 339.214 314.675 350.435 315.11 357.838C315.559 365.474 314.727 374.758 314.706 383.022C314.706 383.022 307.956 386.219 307.654 381.278C306.662 365.09 303.562 360.046 307.745 330.427L320.669 330.043Z" fill="#EC827D"/>
<path fill-rule="evenodd" clip-rule="evenodd" d="M308.441 321.168C308.206 312.332 309.853 303.624 309.853 303.624C310.648 302.479 311.607 301.499 312.735 300.687L314.895 298.071C316.43 297.695 317.946 297.274 319.443 296.809C321.865 296.057 324.459 296.067 326.886 296.8C330.073 298.15 330.683 300.298 329.265 304.412C329.3 304.596 326.465 315.91 326.098 319.367C326.064 319.706 328.513 328.872 329.049 332.612C329.049 332.612 326.72 334.74 326.078 335.277C321.341 341.153 305.866 334.027 305.282 330.899C305.064 329.729 306.966 326.092 308.441 321.168Z" fill="#56548C"/>
<path fill-rule="evenodd" clip-rule="evenodd" d="M316.038 282.927C316.038 282.927 315.265 283.639 314.785 285.167C314.306 286.694 314.435 287.724 314.39 288.509C314.347 289.294 314.027 289.73 314.187 290.124C314.347 290.516 315.308 288.378 316.225 288.16C317.141 287.941 317.008 290.699 315.003 291.477C314.143 292.786 314.827 296.002 315.308 296.708C315.788 297.412 318.758 298.304 321.266 297.421C323.776 296.54 325.434 294.008 327.508 290.691C329.581 287.373 327.508 284.974 327.508 284.974C328.533 282.704 320.764 279.779 317.533 279.692C315.525 279.735 316.038 282.927 316.038 282.927Z" fill="#112B46"/>
<path d="M294.897 322.258C294.897 322.209 289.261 322.333 288.462 321.41C287.664 320.489 287.64 316.747 287.64 316.747L287.066 314.876L287.015 314.702C287.015 314.702 287.066 314.677 287.165 314.677C287.414 314.677 287.889 314.726 288.163 315.074C288.387 315.35 288.637 315.899 288.837 316.397C288.936 316.598 288.986 316.771 289.061 316.921C289.136 317.095 289.185 317.246 289.21 317.295C289.236 317.344 289.384 317.42 289.609 317.494C289.759 317.545 289.908 317.595 290.084 317.67C290.782 317.868 291.73 318.143 292.377 318.319C292.627 318.368 292.802 318.417 292.927 318.442H292.952C293.051 318.468 293.101 318.493 293.101 318.493C293.101 318.493 294.872 322.258 294.897 322.258Z" fill="#FFC8AF"/>
<path fill-rule="evenodd" clip-rule="evenodd" d="M293.875 317.695C293.775 317.795 293.376 318.119 292.952 318.443H292.927C292.802 318.417 292.628 318.368 292.378 318.319L293.775 317.195L289.709 312.806L287.116 314.627L287.166 314.677C287.414 314.677 287.889 314.726 288.163 315.075C288.388 315.35 288.638 315.899 288.837 316.398L290.084 317.67C289.909 317.595 289.76 317.545 289.61 317.495C289.435 317.295 289.236 317.121 289.062 316.921C288.088 315.923 287.14 314.951 287.14 314.951C287.116 314.926 287.091 314.902 287.066 314.876C286.767 314.552 286.692 314.452 286.867 314.327C287.041 314.178 289.161 312.732 289.31 312.632C289.459 312.532 289.635 312.582 289.834 312.806C290.034 313.006 293.925 317.121 294.025 317.221C294.1 317.295 294.074 317.471 293.875 317.695Z" fill="#2C2264"/>
<path fill-rule="evenodd" clip-rule="evenodd" d="M293.775 317.195L292.378 318.319C291.73 318.143 290.782 317.868 290.084 317.67L288.837 316.397L287.166 314.677L287.117 314.626L289.709 312.806L293.775 317.195Z" fill="white"/>
<path d="M295.641 319.812C295.641 319.812 294.131 317.175 294.028 316.929C293.924 316.684 291.777 315.703 290.979 315.274C290.181 314.844 290.55 316.439 291.654 317.053C292.759 317.666 292.842 321.469 294.028 321.776C295.213 322.083 295.641 319.812 295.641 319.812Z" fill="#FFC8AF"/>
<path d="M317.954 307.545C318.826 304.538 315.488 300.842 312.517 301.827C311.459 302.178 310.56 302.527 310.006 303.46C308.631 305.77 308.4 313.663 307.268 318.44C302.488 319.508 295.213 318.316 295.213 318.316C293.571 320.87 293.955 322.685 294.418 322.887C305.265 327.72 311.565 325.524 312.041 325.269C312.517 325.014 317.945 307.578 317.954 307.545Z" fill="#66669E"/>
<path d="M306.131 33.5535H196.986C193.526 33.5535 190.695 30.7234 190.695 27.2634C190.695 23.8021 193.526 20.9707 196.986 20.9707H306.131C309.591 20.9707 312.422 23.8021 312.422 27.2634C312.422 30.7234 309.591 33.5535 306.131 33.5535Z" fill="#E5F3F9"/>
<path d="M294.33 27.2634H216.523C212.742 27.2634 209.649 24.1695 209.649 20.3888C209.649 16.6082 212.742 13.5156 216.523 13.5156H294.33C298.111 13.5156 301.204 16.6082 301.204 20.3888C301.204 24.1695 298.111 27.2634 294.33 27.2634Z" fill="#E5F3F9"/>
<path d="M275.539 18.1748H241.711C236.712 18.1748 232.623 14.0862 232.623 9.08741C232.623 4.08992 236.712 2.34629e-05 241.711 2.34629e-05H275.539C280.537 2.34629e-05 284.627 4.08992 284.627 9.08741C284.627 14.0862 280.537 18.1748 275.539 18.1748Z" fill="#E5F3F9"/>
<path d="M131.527 86.9797H44.5722C42.7078 86.9797 41.1816 85.4549 41.1816 83.5917C41.1816 81.726 42.7078 80.2011 44.5722 80.2011H131.527C133.391 80.2011 134.916 81.726 134.916 83.5917C134.916 85.4549 133.391 86.9797 131.527 86.9797Z" fill="#E5F3F9"/>
<path d="M116.915 85.3713H58.5031C55.1605 85.3713 52.4263 82.6372 52.4263 79.2933C52.4263 75.952 55.1605 73.2165 58.5031 73.2165H116.915C120.257 73.2165 122.992 75.952 122.992 79.2933C122.992 82.6372 120.257 85.3713 116.915 85.3713Z" fill="#E5F3F9"/>
<path d="M87.0377 75.3562H65.6478C63.6534 75.3562 62.0225 73.7253 62.0225 71.7321C62.0225 69.7376 63.6534 68.1067 65.6478 68.1067H87.0377C89.0309 68.1067 90.6618 69.7376 90.6618 71.7321C90.6618 73.7253 89.0309 75.3562 87.0377 75.3562Z" fill="#E5F3F9"/>
</svg>
