<svg width="24" height="25" viewBox="0 0 24 25" fill="none" xmlns="http://www.w3.org/2000/svg">
<g clip-path="url(#clip0)">
<path d="M21.7208 15.9809C21.7208 17.4227 20.5986 18.5916 19.2145 18.5916H2.85203L6.1519 15.1543L4.97057 13.9237L0.2446 18.8466C-0.0815332 19.1865 -0.0815332 19.7372 0.2446 20.0771L4.97057 25L6.1519 23.7695L2.85203 20.3321H19.2145C21.5203 20.3291 23.3888 18.3828 23.3917 15.9809V12.5H21.7208V15.9809Z" fill="#C04703"/>
<path d="M1.96577 9.01909C1.96577 7.57713 3.08775 6.40839 4.47203 6.40839H20.8346L17.5347 9.84576L18.716 11.0763L23.442 6.15344C23.7681 5.81351 23.7681 5.26282 23.442 4.92288L18.716 0L17.5347 1.23056L20.8346 4.66793H4.47203C2.16626 4.67069 0.297573 6.61724 0.294922 9.01909V12.5H1.96577V9.01909Z" fill="#C04703"/>
</g>
<defs>
<clipPath id="clip0">
<rect width="24" height="25" fill="white"/>
</clipPath>
</defs>
</svg>
