<svg width="14" height="10" viewBox="0 0 14 10" fill="none" xmlns="http://www.w3.org/2000/svg">
<path d="M13.3009 1.18852C13.1985 1.08609 13.0772 1.03486 12.9371 1.03486H3.22621C3.22074 0.997161 3.20862 0.928484 3.18976 0.828768C3.1709 0.728995 3.15612 0.649528 3.14532 0.590168C3.13448 0.531064 3.11437 0.459583 3.08466 0.376038C3.05501 0.292436 3.01998 0.226337 2.97957 0.177937C2.93921 0.129283 2.88531 0.0876233 2.81791 0.0524777C2.75057 0.0175587 2.6737 0 2.5875 0H0.517584C0.377342 0 0.256073 0.0513165 0.153667 0.15361C0.0512317 0.256016 0 0.377369 0 0.517498C0 0.657628 0.0512317 0.778924 0.153667 0.88133C0.256158 0.983765 0.377455 1.03494 0.517584 1.03494H2.16688L3.59797 7.68955C3.58727 7.71107 3.53201 7.8134 3.43224 7.99677C3.33252 8.18015 3.25303 8.34044 3.19378 8.47788C3.13451 8.61549 3.10486 8.72189 3.10486 8.7973C3.10486 8.93743 3.15609 9.05876 3.25847 9.16133C3.36101 9.26346 3.48225 9.31486 3.62241 9.31486H4.13988H11.3847H11.9018C12.042 9.31486 12.1633 9.26348 12.2657 9.16133C12.3682 9.05878 12.4194 8.93746 12.4194 8.7973C12.4194 8.65714 12.3682 8.53582 12.2657 8.43347C12.1633 8.33112 12.042 8.27975 11.9018 8.27975H4.46319C4.59261 8.02096 4.6573 7.84865 4.6573 7.76239C4.6573 7.70833 4.65056 7.649 4.63705 7.58445C4.62354 7.51991 4.6074 7.44837 4.58853 7.3701C4.56964 7.29216 4.55758 7.23419 4.5522 7.19641L12.9939 6.20998C13.1285 6.1937 13.2391 6.13595 13.3253 6.03609C13.4116 5.93646 13.4546 5.82193 13.4546 5.69248V1.55252C13.4545 1.41239 13.4034 1.2911 13.3009 1.18852Z" fill="white"/>
</svg>
