<svg width="10" height="10" viewBox="0 0 10 10" fill="none" xmlns="http://www.w3.org/2000/svg">
<path d="M4.99998 0C2.24299 0 0 2.24299 0 4.99998C0 7.75698 2.24299 9.99997 4.99998 9.99997C6.29854 9.99997 7.52902 9.50448 8.46484 8.60478C8.54587 8.52691 8.54841 8.39806 8.47051 8.31707C8.39267 8.23608 8.26386 8.2335 8.1828 8.31141C7.32319 9.13785 6.19286 9.59297 5.00002 9.59297C2.46742 9.59301 0.406996 7.53259 0.406996 4.99998C0.406996 2.46738 2.46742 0.406996 4.99998 0.406996C7.53255 0.406996 9.59297 2.46742 9.59297 4.99998C9.59297 5.5712 9.48946 6.12848 9.28532 6.65629C9.24479 6.76112 9.29688 6.87895 9.40172 6.91951C9.50659 6.95998 9.62438 6.90795 9.66494 6.80311C9.88726 6.22826 10 5.6216 10 4.99995C10 2.24299 7.75701 0 4.99998 0Z" fill="#E23C5E"/>
<path d="M5.68496 5.43113C5.60458 5.35248 5.47577 5.3539 5.39718 5.43418C5.31857 5.5145 5.31996 5.64335 5.40024 5.72196L7.00231 7.29012C7.04192 7.32889 7.0933 7.34819 7.14465 7.34819C7.19746 7.34819 7.25024 7.32773 7.29009 7.28703C7.36871 7.20672 7.36731 7.07787 7.28703 6.99925L5.68496 5.43113Z" fill="#E23C5E"/>
<path d="M4.5938 4.88162C4.63352 4.92134 4.68562 4.94121 4.73771 4.94121C4.78981 4.94121 4.84187 4.92134 4.88162 4.88162C4.96108 4.80216 4.96108 4.67331 4.88162 4.59384L3.34738 3.0596C3.26791 2.98013 3.13903 2.98013 3.0596 3.0596C2.98013 3.13907 2.98013 3.26791 3.0596 3.34738L4.5938 4.88162Z" fill="#E23C5E"/>
<path d="M7.63688 3.0596C7.55742 2.98013 7.42853 2.98013 7.3491 3.0596L3.0596 7.3491C2.98013 7.42857 2.98013 7.55742 3.0596 7.63688C3.09932 7.6766 3.15141 7.69647 3.20351 7.69647C3.2556 7.69647 3.30766 7.6766 3.34741 7.63688L7.63688 3.34741C7.71635 3.26791 7.71635 3.1391 7.63688 3.0596Z" fill="#E23C5E"/>
</svg>
