<svg width="25" height="25" viewBox="0 0 25 25" fill="none" xmlns="http://www.w3.org/2000/svg">
<g clip-path="url(#clip0)">
<path d="M24.8525 8.62652C24.5293 7.67087 23.7527 7.06869 23.0674 6.53695C22.7012 6.25315 22.3553 5.98486 22.1554 5.72192C21.9517 5.45363 21.7908 5.05311 21.6206 4.62869C21.3056 3.84392 20.9478 2.95489 20.12 2.37738C19.3098 1.81131 18.3333 1.75867 17.4718 1.71341C16.9876 1.68721 16.5301 1.6628 16.1817 1.55396C15.8626 1.45504 15.4938 1.2249 15.1037 0.981024C14.3683 0.52176 13.5345 0.00146484 12.4997 0.00146484C11.4645 0.00146484 10.6316 0.52176 9.89671 0.981024C9.5061 1.2249 9.13788 1.45453 8.81823 1.55447C8.47034 1.6628 8.01235 1.68721 7.52766 1.71341C6.6666 1.75969 5.6906 1.81131 4.87939 2.37738C4.05216 2.95489 3.69487 3.84392 3.37928 4.62818C3.20915 5.0526 3.04767 5.45363 2.84347 5.72294C2.64359 5.98639 2.29775 6.25468 1.93105 6.53847C1.24724 7.0697 0.47061 7.67138 0.147905 8.62601C-0.166663 9.55395 0.0858556 10.4702 0.308621 11.2784C0.432719 11.7285 0.549951 12.1529 0.549951 12.5008C0.549951 12.8492 0.432719 13.2736 0.308621 13.7242C0.0858556 14.5319 -0.166155 15.4478 0.147905 16.3765C0.471118 17.3312 1.24724 17.9326 1.93207 18.4638C2.29826 18.7479 2.6441 19.0159 2.84398 19.2789C3.04767 19.5476 3.20865 19.9482 3.37928 20.3731C3.69436 21.1581 4.05266 22.0471 4.88092 22.6257C5.69111 23.1907 6.6666 23.2429 7.52766 23.2881C8.01235 23.3141 8.47034 23.3387 8.81823 23.4471C9.13737 23.5465 9.5056 23.7766 9.89518 24.0203C10.6306 24.4798 11.4645 25.0001 12.4997 25.0001C13.535 25.0001 14.3693 24.4798 15.1047 24.0203C15.4948 23.7766 15.8631 23.547 16.1822 23.4471C16.5301 23.3387 16.9881 23.3141 17.4728 23.2881C18.3338 23.2424 19.3093 23.1902 20.12 22.6252C20.9483 22.0471 21.3056 21.1571 21.6217 20.3716C21.7918 19.9477 21.9528 19.5466 22.1554 19.2796C22.3553 19.0159 22.7012 18.7479 23.0674 18.4643C23.7522 17.9331 24.5293 17.3312 24.8525 16.3765C25.1671 15.4478 24.9141 14.5319 24.6913 13.7234C24.5667 13.2736 24.4495 12.8481 24.4495 12.5003C24.4495 12.1524 24.5667 11.7272 24.6913 11.2773C24.9141 10.4702 25.1666 9.55344 24.8525 8.62652ZM22.6831 14.2778C22.8329 14.8225 22.9888 15.386 22.8794 15.7082C22.7574 16.0693 22.2663 16.45 21.7913 16.8183C21.3346 17.1722 20.8628 17.5379 20.4961 18.0208C20.1244 18.5109 19.9024 19.0624 19.6885 19.5952C19.4609 20.1602 19.2463 20.694 18.9274 20.9168C18.6052 21.1424 18.0015 21.1741 17.3619 21.2085C16.7704 21.2403 16.1588 21.2726 15.563 21.4584C14.9875 21.6377 14.4865 21.9503 14.0016 22.2529C13.4549 22.5944 12.9386 22.9169 12.4997 22.9169C12.0613 22.9169 11.5451 22.5944 10.9988 22.2539C10.5139 21.9513 10.0129 21.6377 9.43744 21.459C8.84111 21.2731 8.23003 21.2403 7.63853 21.209C6.99897 21.1752 6.39527 21.1429 6.07358 20.9181C5.75418 20.695 5.5398 20.1613 5.31221 19.5962C5.09758 19.0635 4.87558 18.5114 4.50277 18.0208C4.13709 17.5384 3.66537 17.1722 3.20865 16.8183C2.73412 16.4505 2.24307 16.0693 2.12101 15.7087C2.01166 15.386 2.16704 14.8225 2.31682 14.277C2.46482 13.7402 2.63266 13.1309 2.63266 12.5013C2.63266 11.8716 2.46482 11.2628 2.31682 10.7253C2.16704 10.1805 2.01166 9.61753 2.12101 9.29406C2.24307 8.93371 2.73362 8.55303 3.20814 8.18531C3.66486 7.83057 4.1376 7.46412 4.50277 6.98222C4.87558 6.49117 5.09809 5.93909 5.31272 5.40583C5.5398 4.84128 5.75418 4.30802 6.07205 4.08601C6.39527 3.85994 6.99948 3.82765 7.63904 3.79332C8.23003 3.76153 8.84111 3.72872 9.43694 3.54385C10.0129 3.36482 10.5144 3.05127 10.9999 2.74866C11.5461 2.40637 12.0618 2.08468 12.4997 2.08468C12.9381 2.08468 13.4538 2.40637 14.0006 2.74764C14.486 3.05076 14.9875 3.36431 15.563 3.54232C16.1593 3.72771 16.7699 3.76102 17.3609 3.7923C18.0005 3.82612 18.6047 3.85842 18.9274 4.085C19.2463 4.30751 19.4601 4.84027 19.6872 5.40481C19.9018 5.93807 20.1238 6.49016 20.4966 6.98121C20.8628 7.46285 21.3346 7.82904 21.7913 8.18328C22.2658 8.55099 22.7569 8.93219 22.8794 9.29355C22.9888 9.616 22.8329 10.179 22.6831 10.7237C22.5346 11.2613 22.3663 11.8706 22.3663 12.5008C22.3663 13.1309 22.5346 13.7402 22.6831 14.2778Z" fill="#C04703"/>
<path d="M17.1867 12.5007C17.1867 15.0854 15.0842 17.1879 12.4995 17.1879C9.91476 17.1879 7.81222 15.0854 7.81222 12.5007C7.81222 9.91599 9.91476 7.81344 12.4995 7.81344H13.5411V5.73022H12.4995C8.76635 5.73022 5.729 8.76757 5.729 12.5007C5.729 16.2338 8.76635 19.2711 12.4995 19.2711C16.2326 19.2711 19.2699 16.2338 19.2699 12.5007V11.4591H17.1867V12.5007Z" fill="#C04703"/>
<path d="M11.458 9.98615L9.98511 11.459L12.4996 13.9733L18.139 8.33423L16.6661 6.86133L12.4996 11.0278L11.458 9.98615Z" fill="#C04703"/>
</g>
<defs>
<clipPath id="clip0">
<rect width="25" height="25" fill="white"/>
</clipPath>
</defs>
</svg>
