<svg width="26" height="31" viewBox="0 0 26 31" fill="none" xmlns="http://www.w3.org/2000/svg">
<path d="M13.2112 0L11.4525 0.882692L12.3121 2.60288L13.2112 2.15L23.7881 7.43846V14.5365C23.7803 17.8638 22.2145 20.9954 19.5573 22.9981L13.2112 27.7577L6.86503 22.9981C4.20788 20.9954 2.64207 17.8638 2.63426 14.5365V7.43846L3.71214 6.9L2.85253 5.17981L0.711182 6.25V14.5365C0.720497 18.4688 2.57098 22.1697 5.71118 24.5365L13.2112 30.1615L20.7112 24.5365C23.8514 22.1697 25.7019 18.4688 25.7112 14.5365V6.25L13.2112 0Z" fill="#C04703"/>
<path d="M10.5922 3.45632L9.73218 1.73633L8.01217 2.59633L8.87217 4.31632L10.5922 3.45632Z" fill="#C04703"/>
<path d="M7.15247 5.17923L6.29248 3.45923L4.57249 4.31923L5.43249 6.03923L7.15247 5.17923Z" fill="#C04703"/>
<path d="M6 18.4249L13.2115 22.8634L20.4231 18.4249V10.1557L13.2115 5.71533L6 10.1528V18.4249ZM18.5 17.3509L14.1731 20.0173V15.074L18.5 12.4105V17.3509ZM13.2115 7.97302L17.6269 10.6903L13.2115 13.4076L8.79615 10.6903L13.2115 7.97302ZM7.92308 12.4105L12.25 15.074V20.0173L7.92308 17.3548V12.4105Z" fill="#C04703"/>
</svg>
