<svg width="308" height="82" viewBox="0 0 308 82" fill="none" xmlns="http://www.w3.org/2000/svg">
<path d="M11.916 38.217L6.20611 31H1L9.73279 42.066V48H14.2672V42.066L23 31H17.7939L11.916 38.217Z" fill="#5C53AE"/>
<path d="M49 30C41.7353 30 36 34.4828 36 40C36 45.5172 41.9264 50 49 50C56.2647 50 62 45.5172 62 40C62 34.4828 56.2647 30 49 30ZM49 46.0345C44.6029 46.0345 41.1617 43.2759 41.1617 40C41.1617 36.7241 44.6029 33.9655 49 33.9655C53.397 33.9655 56.8382 36.7241 56.8382 40C56.8382 43.2759 53.397 46.0345 49 46.0345Z" fill="#5C53AE"/>
<path d="M94.5313 40.4144C94.5313 41.7838 94.0156 42.8108 93.1563 43.6667C90.5781 46.5766 85.5938 46.5766 83.0156 43.6667C82.1563 42.8108 81.8125 41.6126 81.6407 40.4144V31H77V40.7568C77 42.982 77.8594 44.8649 79.2344 46.4054C80.2656 47.6036 81.6406 48.4595 83.0156 48.973C86.1094 50.3423 89.8906 50.3423 92.9844 48.973C94.3594 48.4595 95.7344 47.4324 96.7656 46.4054C98.1406 44.8649 99 42.8108 99 40.7568V31H94.3594V40.4144H94.5313Z" fill="#5C53AE"/>
<path d="M128.69 41.0093C131.699 40.3738 134 38.4673 134 36.0841C134 33.2243 130.814 31 126.92 31H114V48H118.602V41.3271H121.965L128.69 48H134L127.274 41.3271C127.628 41.1682 128.159 41.1682 128.69 41.0093ZM127.097 37.6729H118.602V34.4953H127.097C128.336 34.4953 129.221 35.2897 129.221 36.0841C129.221 36.8785 128.336 37.6729 127.097 37.6729Z" fill="#5C53AE"/>
<path d="M189.254 37.7359H175.746V31H171V48H175.746V41.2642H189.254V48H194V31H189.254V37.7359Z" fill="#5C53AE"/>
<path d="M221 30C214.294 30 209 34.4828 209 40C209 45.5172 214.471 50 221 50C227.706 50 233 45.5172 233 40C233 34.4828 227.706 30 221 30ZM221 46.0345C216.941 46.0345 213.765 43.2759 213.765 40C213.765 36.7241 216.941 33.9655 221 33.9655C225.059 33.9655 228.235 36.7241 228.235 40C228.235 43.2759 225.059 46.0345 221 46.0345Z" fill="#5C53AE"/>
<path d="M260 43.8692L252.014 31H247V48H251.829V38.785L257.586 48H262.6L268.171 38.785V48H273V31H267.986L260 43.8692Z" fill="#5C53AE"/>
<path d="M288 48H308V44.4717H292.602V41.2642H305.699V37.7359H292.602V34.5283H308V31H288V48Z" fill="#5C53AE"/>
<path d="M23.4946 13.2076L18.8315 0H13.9891L9.32608 13.2076L4.66306 0H0L6.99456 20H11.837L16.5 6.79245L21.1631 20H26.0054L33 0H28.1576L23.4946 13.2076Z" fill="#BEC5E3"/>
<path d="M46 20H67V15.8491H50.8319V12.0755H64.5841V7.92454H50.8319V4.15095H67V0H46V20Z" fill="#BEC5E3"/>
<path d="M116.5 15.1402L108.821 0H104V20H108.821V9.15888L114.179 20H119L124.357 9.15888V20H129V0H124.179L116.5 15.1402Z" fill="#BEC5E3"/>
<path d="M153.669 0L144 20H148.662L150.561 16.0748H161.439L163.338 20H168L158.331 0H153.669ZM152.46 11.7757L155.914 4.67291L159.367 11.7757H152.46Z" fill="#BEC5E3"/>
<path d="M199.349 0H193.294L185.771 8.41123V0H181V20H185.771V15.1402L188.339 12.3364L194.945 20H201L191.275 8.97195L199.349 0Z" fill="#BEC5E3"/>
<path d="M215 20H235V15.8491H219.602V12.0755H232.699V7.92454H219.602V4.15095H235V0H215V20Z" fill="#BEC5E3"/>
<path d="M12.3538 69.9286C10.6615 69.7562 5.41541 69.9286 5.41541 68.205C5.41541 66.8261 8.12312 66.1366 10.8308 66.1366C15.4 65.9643 17.9385 68.205 18.1077 68.3773L22 66.309C21.8308 66.1367 21.6616 65.9643 21.4923 65.7919C19.4616 64.0683 17.0924 62.8618 14.5539 62.3447C13.3693 62.1724 12.1846 62 11 62C8.46154 62 6.09231 62.5171 4.23077 63.3789C1.01538 64.9301 0.676964 66.9984 0.676964 68.205C0.676964 70.9627 4.06156 73.7205 10.4923 73.7205C16.5846 73.7205 17.4307 74.5823 17.4307 75.6164C17.4307 76.6506 15.4001 77.5124 12.0154 77.6848C8.4616 77.8571 5.0769 76.823 3.89229 75.6164L0 77.6848C0.846154 78.7189 4.90773 82.1661 11.677 81.9938C19.4616 81.649 22 78.3742 22 75.7888C22 72.8587 19.6307 70.4456 12.3538 69.9286Z" fill="#322D80"/>
<path d="M50 76.6262L42.0143 63H37V81H42.0143V71.243L47.5857 81H52.6L58.1715 71.243V81H63V63H57.9858L50 76.6262Z" fill="#322D80"/>
<path d="M87.0719 63L77 81H81.8561L83.8345 77.4673H95.1655L97.144 81H102L91.9281 63H87.0719ZM85.9928 73.5981L89.59 67.2056L93.1871 73.5981H85.9928Z" fill="#322D80"/>
<path d="M129.69 73.5981C132.699 72.9252 135 70.9065 135 68.3832C135 65.3551 131.814 63 127.92 63H115V81H119.602V73.9346H122.965L129.69 81H135L128.274 73.9346C128.805 73.7664 129.159 73.7663 129.69 73.5981ZM128.097 70.0654H119.602V66.7009H128.097C129.336 66.7009 130.221 67.5421 130.221 68.3832C130.221 69.2243 129.336 70.0654 128.097 70.0654Z" fill="#322D80"/>
<path d="M149 66.7359H157.256V81H161.923V66.7359H170V63H149V66.7359Z" fill="#322D80"/>
<path d="M186 81H205V77.2642H190.54V73.8679H202.814V70.1321H190.54V66.7359H205V63H186V81Z" fill="#322D80"/>
<path d="M235.425 73.5981C238.584 72.9252 241 70.9065 241 68.3832C241 65.3551 237.655 63 233.566 63H220V81H224.832V73.9346H228.363L235.425 81H241L233.938 73.9346C234.496 73.7664 235.053 73.7663 235.425 73.5981ZM233.938 70.0654H225.018V66.7009H233.938C235.239 66.7009 236.168 67.5421 236.168 68.3832C236.168 69.2243 235.053 70.0654 233.938 70.0654Z" fill="#322D80"/>
</svg>
