<svg width="59" height="59" viewBox="0 0 59 59" fill="none" xmlns="http://www.w3.org/2000/svg">
<g clip-path="url(#clip0)">
<path d="M11.8237 36.4114C11.9835 36.4114 10.0479 36.8737 45.4744 28.1743C45.9439 28.0591 46.2311 27.5851 46.1154 27.1156C46.0006 26.6461 45.5257 26.3585 45.0567 26.4742L11.6157 34.6855C10.6164 34.9309 10.7974 36.4114 11.8237 36.4114Z" fill="#0388C0"/>
<path d="M18.0445 11.5987C17.2995 11.1477 16.424 11.0135 15.5787 11.2215L7.29259 13.2561C5.54337 13.6855 4.47475 15.4496 4.90463 17.1989L5.92778 21.3666C6.35631 23.1118 8.11724 24.1854 9.87051 23.7546L18.1566 21.72C19.9058 21.2901 20.9744 19.5269 20.5446 17.7773C19.4908 13.4852 19.5133 12.4882 18.0445 11.5987ZM9.45324 22.054C8.6439 22.253 7.82735 21.7592 7.62839 20.9489L6.60479 16.7811C6.40583 15.9718 6.90008 15.1552 7.70987 14.9563L9.90608 14.417C11.7395 21.8834 11.6152 21.4031 11.6598 21.512L9.45324 22.054ZM11.6067 13.9997C16.3844 12.8267 16.1058 12.8776 16.3588 12.8776C17.025 12.8776 17.6493 13.3286 17.8208 14.0272L18.0868 15.1102L12.2324 16.548L11.6067 13.9997ZM18.6697 19.3361C18.4609 19.6804 18.1305 19.9231 17.7389 20.0194L13.3393 21.0997C13.328 20.9831 13.3631 21.1537 12.6496 18.2481L18.5045 16.8104C18.8183 18.0888 19.0843 18.6519 18.6697 19.3361Z" fill="#0388C0"/>
<path d="M9.02207 28.9157C8.55258 29.031 8.26539 29.5054 8.38108 29.9749L8.80555 31.7029C8.90323 32.1022 9.26109 32.3696 9.65496 32.3696C10.2239 32.3696 10.6408 31.8357 10.5057 31.2852L10.0812 29.5572C9.966 29.0877 9.49156 28.8 9.02207 28.9157Z" fill="#0388C0"/>
<path d="M12.6116 31.6696C13.0811 31.5544 13.3683 31.08 13.2526 30.6105L12.8281 28.8824C12.7133 28.4129 12.2389 28.1257 11.7694 28.2414C11.2999 28.3562 11.0127 28.8307 11.128 29.3001L11.5525 31.0282C11.6672 31.4954 12.1394 31.7853 12.6116 31.6696Z" fill="#0388C0"/>
<path d="M15.3597 30.9949C15.8291 30.8797 16.1163 30.4053 16.0006 29.9358L15.5762 28.2077C15.4614 27.7382 14.9869 27.4511 14.5175 27.5667C14.048 27.682 13.7608 28.156 13.876 28.6255L14.3005 30.3535C14.4153 30.8207 14.8875 31.1111 15.3597 30.9949Z" fill="#0388C0"/>
<path d="M17.897 30.3458C18.4664 30.3458 18.8832 29.812 18.7477 29.2615L18.3233 27.5329C18.208 27.0634 17.7336 26.7763 17.2645 26.8919C16.795 27.0072 16.5079 27.4812 16.6231 27.9507L17.0476 29.6787C17.1453 30.0785 17.5031 30.3458 17.897 30.3458Z" fill="#0388C0"/>
<path d="M23.3921 28.9963C23.9615 28.9963 24.3783 28.4624 24.2433 27.9119L23.8188 26.1839C23.7036 25.7144 23.2291 25.4267 22.7596 25.5424C22.2902 25.6577 22.003 26.1321 22.1182 26.6016L22.5427 28.3297C22.6408 28.7289 22.9987 28.9963 23.3921 28.9963Z" fill="#0388C0"/>
<path d="M25.5077 24.8676C25.0382 24.9829 24.751 25.4573 24.8663 25.9268L25.2907 27.6549C25.3889 28.0541 25.7463 28.3215 26.1401 28.3215C26.7096 28.3215 27.1264 27.7876 26.9909 27.2371L26.5664 25.5091C26.4512 25.0396 25.9772 24.7519 25.5077 24.8676Z" fill="#0388C0"/>
<path d="M28.2548 24.1929C27.7853 24.3082 27.4981 24.7826 27.6133 25.2521L28.0378 26.9801C28.1521 27.4474 28.6248 27.7373 29.0965 27.6216C29.566 27.5064 29.8532 27.0319 29.738 26.5624L29.3135 24.8344C29.1983 24.3649 28.7243 24.0777 28.2548 24.1929Z" fill="#0388C0"/>
<path d="M31.0025 23.5182C30.533 23.6335 30.2459 24.1079 30.3615 24.5774L30.786 26.3055C30.8837 26.7052 31.2416 26.9726 31.6354 26.9726C32.2044 26.9726 32.6212 26.4383 32.4862 25.8877L32.0617 24.1597C31.9465 23.6902 31.472 23.403 31.0025 23.5182Z" fill="#0388C0"/>
<path d="M36.5682 22.1519C36.0988 22.2667 35.8116 22.7412 35.9268 23.2107L36.3513 24.9387C36.4494 25.3384 36.8073 25.6058 37.2007 25.6058C37.7696 25.6058 38.1869 25.072 38.0514 24.5214L37.6274 22.7934C37.5122 22.3235 37.0382 22.0363 36.5682 22.1519Z" fill="#0388C0"/>
<path d="M39.3153 21.4774C38.8458 21.5926 38.5586 22.0666 38.6739 22.5361L39.0984 24.2642C39.2131 24.7328 39.6867 25.0213 40.1571 24.9056C40.6266 24.7904 40.9137 24.3164 40.7985 23.8469L40.3745 22.1188C40.2592 21.6489 39.7853 21.3617 39.3153 21.4774Z" fill="#0388C0"/>
<path d="M42.0624 20.8025C41.5929 20.9177 41.3057 21.3917 41.4209 21.8612L41.8454 23.5892C41.9602 24.0583 42.4337 24.3464 42.9041 24.2307C43.3736 24.1154 43.6608 23.6415 43.5456 23.172L43.1211 21.4439C43.0059 20.974 42.5319 20.6868 42.0624 20.8025Z" fill="#0388C0"/>
<path d="M45.6522 23.5559C46.1217 23.4406 46.4089 22.9666 46.2936 22.4971L45.8692 20.7691C45.7539 20.2996 45.2795 20.0119 44.8104 20.1276C44.3409 20.2429 44.0538 20.7169 44.169 21.1864L44.593 22.9144C44.7083 23.3835 45.1813 23.6715 45.6522 23.5559Z" fill="#0388C0"/>
<path d="M43.1705 11.8618L40.648 9.2317C40.1735 8.7361 39.4646 8.52949 38.797 8.69334L35.4593 9.51303C35.3044 9.24925 35.4453 9.42166 32.6684 6.52549C32.1931 6.02989 31.4841 5.82373 30.817 5.98758L27.2776 6.85679C26.611 7.02019 26.0776 7.53154 25.8862 8.19099L24.8689 11.6908C24.6776 12.3498 24.8536 13.0673 25.329 13.5629C25.329 13.5629 27.8511 16.1935 27.8515 16.1939C28.3282 16.6909 29.0381 16.8948 29.7025 16.7314L33.0402 15.9122C33.1987 16.1822 33.0681 16.0179 35.8311 18.8997C36.3078 19.3971 37.0181 19.6015 37.6825 19.4376L41.2219 18.5684C41.8885 18.4046 42.4215 17.8936 42.6133 17.2342L43.6301 13.7344C43.8219 13.075 43.6459 12.3579 43.1705 11.8618ZM33.9693 10.5398C32.8651 14.3394 32.9628 14.1278 32.8242 14.162C29.1079 15.0745 29.2271 15.0983 29.1151 14.9817C26.3755 12.1243 26.511 12.3156 26.5502 12.1792C27.6548 8.37914 27.5567 8.59071 27.6953 8.55695C31.4103 7.64452 31.2924 7.62022 31.4045 7.73725C34.144 10.5943 34.0089 10.403 33.9693 10.5398ZM40.932 16.7454C40.8915 16.8858 41.072 16.8025 37.2648 17.737C37.2044 17.7523 37.1387 17.7334 37.0951 17.6879C34.3564 14.8318 34.4906 15.0222 34.5302 14.8854C35.6245 11.1196 35.5335 11.2978 35.6753 11.2632C35.7068 11.2551 39.2237 10.389 39.2566 10.389C39.3732 10.389 39.2138 10.2652 41.907 13.0741C42.0186 13.1906 42.0002 13.0696 40.932 16.7454Z" fill="#0388C0"/>
<path d="M54.6382 27.5311L51.5575 26.8051C51.5575 24.7434 52.5311 29.1759 46.4539 4.42975C45.8318 1.89234 43.573 0.119264 40.9631 0.119264C39.9814 0.119264 42.0426 -0.313765 8.44273 7.93675C7.97234 8.05199 7.68515 8.52598 7.80083 8.99637C7.91652 9.46586 8.39141 9.75305 8.85955 9.63736C42.558 1.36299 40.2812 1.86984 40.9631 1.86984C42.7641 1.86984 44.3238 3.09465 44.7546 4.84658L49.7376 25.145C50.2499 27.2174 49.0025 29.3488 46.8752 29.8718C43.6693 30.6587 14.8045 37.7465 11.5784 38.5387C9.50369 39.0514 7.37366 37.8014 6.8506 35.6768C1.44314 13.653 1.75283 15.1146 1.75283 14.443C1.75283 12.6407 2.97719 11.0823 4.72957 10.652L5.45924 10.4733C5.92828 10.3576 6.21546 9.88359 6.09978 9.4132C5.98544 8.94416 5.51145 8.65697 5.04106 8.7722L4.31274 8.95091C1.25408 9.70173 -0.580669 12.7762 0.166554 15.7961L5.15089 36.0936C5.59698 37.9144 6.88436 39.3395 8.53951 40.0016L8.20911 41.4034L8.21001 41.4038L7.65949 43.7391C6.94108 46.7793 8.82129 49.8276 11.8678 50.5461L47.243 58.8889C50.2818 59.6073 53.3315 57.7266 54.0499 54.6805L54.6004 52.3448H54.6009L56.4496 44.5052L58.8474 34.3376C59.5649 31.2942 57.6843 28.2486 54.6382 27.5311ZM57.1432 33.9361L54.7454 44.1033L39.6195 40.5364C39.1491 40.4252 38.6774 40.7169 38.5653 41.1878C38.4545 41.6581 38.7462 42.1294 39.2166 42.2406L54.3429 45.8079L53.2982 50.2391L17.7943 41.8657C17.3225 41.7536 16.8521 42.0457 16.7414 42.517C16.6302 42.9874 16.921 43.4591 17.3914 43.5699L52.8962 51.9428L52.3452 54.2777C51.855 56.3618 49.7637 57.6856 47.6445 57.1846L12.2702 48.8418C10.169 48.3471 8.86585 46.2455 9.3637 44.142L9.91467 41.8058C14.3768 42.8587 14.0397 42.7889 14.1846 42.7889C15.2163 42.7889 15.3924 41.2989 14.3854 41.0613L11.3866 40.3541C11.8192 40.2974 11.1323 40.4518 21.1757 37.9855L35.8082 41.4362C36.2795 41.5483 36.7512 41.2566 36.862 40.7858C36.9731 40.3145 36.6815 39.8428 36.2106 39.732L24.9136 37.0681L33.3838 34.988C52.1017 39.4016 50.9782 39.1482 51.1245 39.1482C52.1553 39.1482 52.3304 37.6591 51.3239 37.4197L37.1212 34.0702L43.1004 32.6019C48.3643 33.8434 48.0212 33.7727 48.1666 33.7727C49.1979 33.7727 49.3739 32.2823 48.3674 32.0451L46.8369 31.6845L47.292 31.5724C48.9989 31.1534 50.3588 29.9952 51.0673 28.4886L54.2367 29.2353C56.3442 29.7323 57.6375 31.8389 57.1432 33.9361Z" fill="#0388C0"/>
<path d="M13.0041 46.079C12.8929 46.5494 13.1846 47.0207 13.655 47.1319C49.104 55.4923 47.2135 55.0597 47.3719 55.0597C47.7685 55.0597 48.1281 54.7878 48.2231 54.3849C48.3343 53.9145 48.0426 53.4428 47.5722 53.3316L14.0574 45.4277C13.5866 45.3165 13.1153 45.6082 13.0041 46.079Z" fill="#0388C0"/>
</g>
<defs>
<clipPath id="clip0">
<rect width="59" height="59" fill="white"/>
</clipPath>
</defs>
</svg>
