<svg width="59" height="59" viewBox="0 0 59 59" fill="none" xmlns="http://www.w3.org/2000/svg">
<path d="M52.5991 16.5003C52.5988 16.5001 52.5986 16.4998 52.5983 16.4995L37.3398 1.31325C36.9426 0.916147 36.2986 0.916147 35.9014 1.31325L32.5506 4.67928V1.01723C32.5506 0.455467 32.0952 0 31.5334 0H7.11977C6.55801 0 6.10254 0.455467 6.10254 1.01723V43.7411C6.10254 44.3029 6.55801 44.7583 7.11977 44.7583H8.13701V46.2567C8.12874 50.744 9.64163 55.1014 12.4287 58.6182C12.7798 59.057 13.4201 59.1279 13.859 58.7768C14.2978 58.4258 14.3687 57.7854 14.0176 57.3466C11.5182 54.1914 10.1623 50.2819 10.1715 46.2567V44.7583H14.2404V51.7172C14.2404 52.279 14.6959 52.7345 15.2577 52.7345C15.8194 52.7345 16.2749 52.279 16.2749 51.7172V39.6894C16.2749 38.5658 17.1857 37.655 18.3094 37.655C19.433 37.655 20.3438 38.5658 20.3438 39.6894V48.6482C20.3438 48.917 20.4503 49.1748 20.6398 49.3654L21.1118 49.8404C23.2368 52.0168 24.4223 54.9406 24.4128 57.9824C24.4128 58.5442 24.8682 58.9996 25.43 58.9996C25.9918 58.9996 26.4472 58.5442 26.4472 57.9824C26.4463 55.7534 25.9068 53.5575 24.8746 51.5819C26.3236 49.5795 27.2009 47.2209 27.4126 44.7583H31.5334C32.0952 44.7583 32.5506 44.3029 32.5506 43.7411V38.0588L52.5983 17.9389C52.9958 17.542 52.9962 16.8978 52.5991 16.5003ZM23.6793 49.7224C23.3344 49.2588 22.9585 48.8191 22.5543 48.4061L22.3783 48.2281V44.7583H25.3649C25.189 46.5199 24.6125 48.2179 23.6793 49.7224ZM30.5162 42.7239H22.3783V39.6894C22.4025 37.4491 20.6059 35.6134 18.3656 35.5892C16.4905 35.569 14.8459 36.8366 14.3879 38.6549H12.2059V34.586C12.2059 34.0242 11.7505 33.5687 11.1887 33.5687C10.6269 33.5687 10.1715 34.0242 10.1715 34.586V39.6722C10.1715 40.2339 10.6269 40.6894 11.1887 40.6894H14.2404V42.7239H8.13701V2.03447H30.5162V42.7239ZM32.5506 35.175V31.9554L46.4939 18.0122C46.891 17.6149 46.891 16.971 46.4939 16.5738L44.4594 14.5393C44.0553 14.149 43.4114 14.1602 43.021 14.5643C42.6403 14.9584 42.6403 15.5834 43.021 15.9777L44.3363 17.293L32.5506 29.0787V13.6452L36.6196 9.57625L37.9349 10.8915C38.339 11.2819 38.9829 11.2707 39.3732 10.8666C39.7541 10.4724 39.7541 9.84734 39.3732 9.45316L37.3388 7.41869C36.9415 7.02159 36.2976 7.02159 35.9004 7.41869L32.5506 10.7684V7.55907L36.6196 3.47284L50.4387 17.2238L32.5506 35.175Z" fill="#0388C0"/>
<path d="M19.327 12.2068C14.2708 12.2068 10.1719 16.3056 10.1719 21.3619C10.1775 26.4158 14.2731 30.5114 19.327 30.517C24.3833 30.517 28.4821 26.4181 28.4821 21.3619C28.4821 16.3056 24.3833 12.2068 19.327 12.2068ZM19.327 14.2413C20.8158 14.2416 22.2668 14.7115 23.4732 15.584C21.7912 16.1516 20.4401 17.4241 19.7725 19.0691C18.7533 17.0251 16.4879 15.921 14.25 16.3775C15.5859 15.0111 17.4161 14.2409 19.327 14.2413ZM12.2063 21.3619C12.2063 19.6765 13.5726 18.3102 15.258 18.3102C16.9435 18.3102 18.3098 19.6765 18.3098 21.3619C18.3098 23.0473 16.9435 24.4136 15.258 24.4136C13.5726 24.4136 12.2063 23.0473 12.2063 21.3619ZM19.327 28.4826C17.4161 28.4829 15.5857 27.7128 14.25 26.3464C16.4879 26.8028 18.7533 25.6988 19.7725 23.6548C20.4401 25.2998 21.7912 26.5722 23.4732 27.1398C22.2668 28.0123 20.816 28.4822 19.327 28.4826ZM25.1802 25.4064C22.9464 25.2837 21.2352 23.3734 21.3579 21.1396C21.4712 19.0775 23.118 17.4307 25.1802 17.3174C26.0062 18.5042 26.4485 19.9159 26.4476 21.3619C26.4485 22.8079 26.0062 24.2196 25.1802 25.4064Z" fill="#0388C0"/>
<path d="M13.2236 4.06897H11.1891C10.6273 4.06897 10.1719 4.52444 10.1719 5.0862V10.1724C10.1719 10.7341 10.6273 11.1896 11.1891 11.1896C11.7509 11.1896 12.2063 10.7341 12.2063 10.1724V6.10344H13.2236C13.7853 6.10344 14.2408 5.64797 14.2408 5.0862C14.2408 4.52444 13.7853 4.06897 13.2236 4.06897Z" fill="#0388C0"/>
<path d="M27.4648 33.5687C26.903 33.5687 26.4476 34.0242 26.4476 34.586V38.6549H25.4303C24.8686 38.6549 24.4131 39.1104 24.4131 39.6721C24.4131 40.2339 24.8686 40.6894 25.4303 40.6894H27.4648C28.0266 40.6894 28.482 40.2339 28.482 39.6721V34.586C28.482 34.0242 28.0266 33.5687 27.4648 33.5687Z" fill="#0388C0"/>
<path d="M27.4648 4.06897H25.4303C24.8686 4.06897 24.4131 4.52444 24.4131 5.0862C24.4131 5.64797 24.8686 6.10344 25.4303 6.10344H26.4476V10.1724C26.4476 10.7341 26.903 11.1896 27.4648 11.1896C28.0266 11.1896 28.482 10.7341 28.482 10.1724V5.0862C28.482 4.52444 28.0266 4.06897 27.4648 4.06897Z" fill="#0388C0"/>
</svg>
