<svg width="59" height="59" viewBox="0 0 59 59" fill="none" xmlns="http://www.w3.org/2000/svg">
<g clip-path="url(#clip0)">
<path d="M45.4786 52.8542H39.3329V47.9376H36.8746V52.8542H8.60409C7.92525 52.8542 7.3749 53.4046 7.3749 54.0834C7.3749 55.4411 6.27431 56.5417 4.91664 56.5417C3.55896 56.5417 2.45838 55.4411 2.45838 54.0834V3.04541L6.91892 4.83014C7.21173 4.9471 7.53818 4.9471 7.83099 4.83014L13.5207 2.55371L19.2105 4.83014C19.5033 4.9471 19.8297 4.9471 20.1225 4.83014L25.8123 2.55371L31.502 4.83014C31.7948 4.9471 32.1213 4.9471 32.4141 4.83014L36.8746 3.04541V11.0632H39.3329V1.22992C39.3329 1.07355 39.3031 0.918673 39.2452 0.77348C38.9933 0.143041 38.2781 -0.163823 37.6477 0.0880755L31.958 2.3645L26.2682 0.0880755C25.9754 -0.0288858 25.649 -0.0288858 25.3562 0.0880755L19.6664 2.3645L13.9767 0.0880755C13.6839 -0.0288858 13.3574 -0.0288858 13.0646 0.0880755L7.3749 2.3645L1.68516 0.0880755C1.53997 0.0301134 1.3851 0.000268076 1.22873 0.000383309C0.549891 0.000613774 -0.000230393 0.551081 7.23863e-08 1.22992V54.0834C7.23863e-08 56.7987 2.20129 59 4.91664 59H41.7911C44.5065 59 46.7078 56.7987 46.7078 54.0834C46.7078 53.4046 46.1574 52.8542 45.4786 52.8542ZM41.7911 56.5417H9.17322C9.39677 56.157 9.56628 55.7433 9.67714 55.3125H43.9188C43.4799 56.0728 42.669 56.5412 41.7911 56.5417Z" fill="#0388C0"/>
<path d="M57.77 13.5215H19.6663V11.0632H17.208V14.7507V44.2503V47.9377H19.6663V45.4795H57.77C58.4488 45.4795 58.9992 44.9291 58.9992 44.2503V14.7507C58.9991 14.0718 58.4488 13.5215 57.77 13.5215ZM56.5408 20.7719C54.1346 20.281 52.2396 18.386 51.7487 15.9799H56.5408V20.7719ZM19.6663 15.9798H49.2562C49.7993 19.7449 52.7758 22.7212 56.5408 23.2643V34.4974C52.0963 35.0565 48.5764 38.5764 48.0172 43.021H19.6663V15.9798ZM50.5 43.0211C51.0208 39.9352 53.4549 37.5011 56.5408 36.9804V43.0211H50.5Z" fill="#0388C0"/>
<path d="M49.1657 29.5005C49.1657 23.3909 44.2129 18.4381 38.1034 18.4381C31.9938 18.4381 27.041 23.3909 27.041 29.5005C27.041 35.61 31.9938 40.5628 38.1034 40.5628C44.2101 40.556 49.1589 35.6072 49.1657 29.5005ZM38.1034 38.1044C33.3515 38.1044 29.4993 34.2523 29.4993 29.5004C29.4993 24.7484 33.3514 20.8963 38.1034 20.8963C42.8527 20.9024 46.7013 24.7509 46.7074 29.5004C46.7074 34.2523 42.8552 38.1044 38.1034 38.1044Z" fill="#0388C0"/>
<path d="M38.1035 25.8129C38.7823 25.8129 39.3327 26.3633 39.3327 27.0421H41.7909C41.7909 25.4367 40.7647 24.0717 39.3327 23.5653V22.1255H36.8744V23.5653C35.4424 24.0717 34.4161 25.4367 34.4161 27.0421C34.4161 29.0786 36.0671 30.7296 38.1036 30.7296C38.7824 30.7296 39.3328 31.2799 39.3328 31.9588C39.3328 32.6376 38.7824 33.1879 38.1036 33.1879C37.4247 33.1879 36.8744 32.6376 36.8744 31.9588H34.416C34.416 33.5642 35.4423 34.9292 36.8743 35.4356V36.8754H39.3325V35.4356C40.7645 34.9292 41.7908 33.5642 41.7908 31.9588C41.7908 29.9222 40.1399 28.2713 38.1033 28.2713C37.4245 28.2713 36.8742 27.721 36.8742 27.0421C36.8743 26.3632 37.4246 25.8129 38.1035 25.8129Z" fill="#0388C0"/>
<path d="M7.37525 40.5627H4.91699V43.021H7.37525V40.5627Z" fill="#0388C0"/>
<path d="M7.37525 45.4794H4.91699V47.9376H7.37525V45.4794Z" fill="#0388C0"/>
<path d="M12.2913 45.4794H9.83301V47.9376H12.2913V45.4794Z" fill="#0388C0"/>
<path d="M14.7502 11.0632H4.91699V13.5215H14.7502V11.0632Z" fill="#0388C0"/>
<path d="M14.7502 15.9797H4.91699V18.438H14.7502V15.9797Z" fill="#0388C0"/>
<path d="M9.83363 20.8964H4.91699V23.3546H9.83363V20.8964Z" fill="#0388C0"/>
</g>
<defs>
<clipPath id="clip0">
<rect width="59" height="59" fill="white"/>
</clipPath>
</defs>
</svg>
