<svg width="20" height="20" viewBox="0 0 20 20" fill="none" xmlns="http://www.w3.org/2000/svg">
<g clip-path="url(#clip0)">
<path d="M10.0007 0C4.47807 0 0.00100708 4.4774 0.00100708 9.9998C0.00100708 15.5222 4.47807 20 10.0007 20C15.5233 20 20.0009 15.5225 20.0009 9.9998C20.0009 4.47713 15.5233 0 10.0007 0ZM15.1307 14.9347C15.1306 15.5076 14.666 15.9722 14.0931 15.9722H5.90907C5.33621 15.9722 4.8716 15.5076 4.8716 14.9347V5.02153C4.8716 4.44867 5.33621 3.98407 5.90907 3.98407H14.0932C14.6661 3.98407 15.1307 4.44867 15.1307 5.02153V14.9347Z" fill="white"/>
<path d="M12.2174 10.7666H7.78276C7.52149 10.7666 7.31003 10.9784 7.31003 11.2393V13.9908C7.31003 14.2521 7.52169 14.4635 7.78276 14.4635H12.2174C12.4787 14.4635 12.6902 14.2519 12.6902 13.9908V11.2393C12.6904 10.9782 12.4787 10.7666 12.2174 10.7666Z" fill="white"/>
<path d="M6.54508 7.52881H5.65167V8.56628H6.54508V7.52881Z" fill="white"/>
<path d="M6.54508 5.57642H5.65167V6.61388H6.54508V5.57642Z" fill="white"/>
<path d="M6.54508 13.3862H5.65167V14.4237H6.54508V13.3862Z" fill="white"/>
<path d="M6.54508 11.4336H5.65167V12.471H6.54508V11.4336Z" fill="white"/>
<path d="M6.54508 9.4812H5.65167V10.5187H6.54508V9.4812Z" fill="white"/>
<path d="M12.2174 5.49316H7.78276C7.52149 5.49316 7.31003 5.70496 7.31003 5.9659V8.71737C7.31003 8.97864 7.52169 9.1901 7.78276 9.1901H12.2174C12.4787 9.1901 12.6902 8.97844 12.6902 8.71737V5.96583C12.6904 5.70476 12.4787 5.49316 12.2174 5.49316Z" fill="white"/>
<path d="M14.3547 5.57642H13.4613V6.61388H14.3547V5.57642Z" fill="white"/>
<path d="M14.3547 13.3862H13.4613V14.4237H14.3547V13.3862Z" fill="white"/>
<path d="M14.3547 7.52881H13.4613V8.56628H14.3547V7.52881Z" fill="white"/>
<path d="M14.3547 11.4336H13.4613V12.471H14.3547V11.4336Z" fill="white"/>
<path d="M14.3547 9.4812H13.4613V10.5187H14.3547V9.4812Z" fill="white"/>
</g>
<defs>
<clipPath id="clip0">
<rect width="20" height="20" fill="white"/>
</clipPath>
</defs>
</svg>
