<svg width="17" height="15" viewBox="0 0 17 15" fill="none" xmlns="http://www.w3.org/2000/svg">
<path d="M13.0769 13.0771C13.0769 13.4382 13.205 13.7463 13.4602 14.0015C13.7154 14.257 14.0237 14.3848 14.385 14.3848C14.7457 14.3848 15.0541 14.257 15.3093 14.0015C15.5647 13.7463 15.6925 13.4382 15.6925 13.0771C15.6925 12.716 15.5649 12.4079 15.3093 12.1524C15.0541 11.8972 14.7457 11.7694 14.385 11.7694C14.0237 11.7694 13.7154 11.8972 13.4602 12.1524C13.205 12.4079 13.0769 12.716 13.0769 13.0771Z" fill="#C04703"/>
<path d="M16.8058 1.50171C16.6764 1.37228 16.5232 1.30755 16.3461 1.30755H4.07634C4.06944 1.25992 4.05412 1.17315 4.03029 1.04716C4.00646 0.921092 3.98778 0.820685 3.97415 0.745683C3.96044 0.671004 3.93504 0.580688 3.8975 0.475128C3.86004 0.369496 3.81577 0.285978 3.76471 0.224825C3.71372 0.16335 3.64562 0.110713 3.56046 0.066306C3.47537 0.0221855 3.37825 0 3.26933 0H0.653973C0.476775 0 0.323551 0.0648389 0.194159 0.194087C0.0647317 0.323479 0 0.476809 0 0.653864C0 0.830919 0.0647317 0.984178 0.194159 1.11357C0.323659 1.243 0.476918 1.30766 0.653973 1.30766H2.73788L4.54607 9.71582C4.53254 9.74301 4.46273 9.8723 4.33667 10.104C4.21067 10.3357 4.11023 10.5382 4.03537 10.7119C3.96048 10.8857 3.92301 11.0202 3.92301 11.1155C3.92301 11.2925 3.98775 11.4458 4.1171 11.5754C4.24667 11.7045 4.39986 11.7694 4.57695 11.7694H5.23078H14.3846H15.0381C15.2151 11.7694 15.3684 11.7045 15.4978 11.5754C15.6273 11.4459 15.692 11.2926 15.692 11.1155C15.692 10.9384 15.6273 10.7851 15.4978 10.6558C15.3685 10.5264 15.2152 10.4615 15.0381 10.4615H5.63928C5.80281 10.1346 5.88454 9.91685 5.88454 9.80785C5.88454 9.73954 5.87602 9.66458 5.85895 9.58303C5.84188 9.50148 5.82149 9.41109 5.79766 9.31219C5.77379 9.21371 5.75855 9.14046 5.75175 9.09273L16.4179 7.84637C16.588 7.82579 16.7277 7.75283 16.8367 7.62666C16.9456 7.50077 17 7.35607 17 7.1925V1.96163C16.9999 1.78457 16.9354 1.63131 16.8058 1.50171Z" fill="#C04703"/>
<path d="M3.92285 13.0771C3.92285 13.4382 4.05049 13.7463 4.30595 14.0015C4.56147 14.257 4.86953 14.3848 5.23062 14.3848C5.59149 14.3848 5.89973 14.257 6.15508 14.0015C6.41053 13.7463 6.53831 13.4382 6.53831 13.0771C6.53831 12.716 6.41064 12.4079 6.15508 12.1524C5.89969 11.8972 5.59149 11.7694 5.23062 11.7694C4.86957 11.7694 4.56133 11.8972 4.30595 12.1524C4.05063 12.4079 3.92285 12.716 3.92285 13.0771Z" fill="#C04703"/>
</svg>
