<svg width="22" height="24" viewBox="0 0 22 24" fill="none" xmlns="http://www.w3.org/2000/svg">
<path d="M19.9994 6.54825C19.9921 6.45056 19.9104 6.375 19.8125 6.375H16.4375V5.4375C16.4375 2.43919 13.9981 0 11 0C8.00188 0 5.5625 2.43919 5.5625 5.4375V6.375H2.1875C2.08963 6.375 2.00788 6.45056 2.00057 6.54825L0.688068 23.7983C0.684131 23.8502 0.701943 23.9016 0.737568 23.9398C0.773006 23.9783 0.82288 24 0.875005 24H21.125C21.1771 24 21.227 23.9783 21.2624 23.94C21.2979 23.9018 21.3159 23.8504 21.3119 23.7984L19.9994 6.54825ZM7.0625 5.4375C7.0625 3.26644 8.82875 1.5 11 1.5C13.1712 1.5 14.9375 3.26644 14.9375 5.4375V6.375H7.0625V5.4375ZM6.3125 11.625C5.27844 11.625 4.4375 10.7839 4.4375 9.75C4.4375 9.00169 4.8125 8.32744 5.5625 8.03156V9.75C5.5625 10.1636 5.89906 10.5 6.3125 10.5C6.72594 10.5 7.0625 10.1636 7.0625 9.75V8.03269C7.8125 8.32856 8.1875 9.00788 8.1875 9.75C8.1875 10.7839 7.34656 11.625 6.3125 11.625ZM15.6875 11.625C14.6534 11.625 13.8125 10.7839 13.8125 9.75C13.8125 9.00169 14.1875 8.32744 14.9375 8.03156V9.75C14.9375 10.1636 15.2741 10.5 15.6875 10.5C16.1009 10.5 16.4375 10.1636 16.4375 9.75V8.03269C17.1875 8.32856 17.5625 9.00788 17.5625 9.75C17.5625 10.7839 16.7216 11.625 15.6875 11.625Z" fill="#0388C0"/>
</svg>
