<svg width="11" height="11" viewBox="0 0 11 11" fill="none" xmlns="http://www.w3.org/2000/svg">
<path d="M10.7534 8.69324L9.05459 6.99428C8.71623 6.65727 8.15589 6.66751 7.80574 7.01779L6.94989 7.87345C6.89581 7.84365 6.83985 7.81252 6.781 7.7795C6.24054 7.48003 5.50083 7.06958 4.72244 6.29062C3.94174 5.51002 3.53091 4.76916 3.23053 4.22836C3.19883 4.17106 3.16846 4.11582 3.13847 4.06336L3.71287 3.48981L3.99527 3.20707C4.34596 2.85628 4.35563 2.2961 4.01805 1.95812L2.31928 0.258961C1.9817 -0.0785502 1.42111 -0.0683111 1.07042 0.282473L0.591648 0.763996L0.604732 0.776985C0.444192 0.98183 0.310041 1.21809 0.21021 1.47287C0.118184 1.71538 0.0608894 1.9468 0.0346911 2.1787C-0.189621 4.0383 0.660162 5.73784 2.96636 8.04407C6.15424 11.2317 8.72324 10.9909 8.83407 10.9792C9.07545 10.9503 9.30678 10.8926 9.54187 10.8013C9.79443 10.7027 10.0305 10.5687 10.2352 10.4085L10.2457 10.4178L10.7307 9.94286C11.0807 9.59214 11.0908 9.03176 10.7534 8.69324Z" fill="white"/>
</svg>
