<svg width="11" height="11" viewBox="0 0 11 11" fill="none" xmlns="http://www.w3.org/2000/svg">
<path d="M9.48096 1.38678C8.46903 0.46226 7.21033 0 5.70714 0C4.12698 0 2.78 0.525092 1.66845 1.57752C0.556905 2.62995 0 3.93819 0 5.50449C0 7.00571 0.529739 8.296 1.58695 9.3776C2.64869 10.4592 4.07491 11 5.87014 11C6.95225 11 8.01399 10.7801 9.05536 10.338C9.39494 10.1944 9.5602 9.80845 9.4221 9.4696C9.27948 9.11954 8.87652 8.95798 8.52562 9.10608C7.62009 9.49204 6.73266 9.68503 5.86787 9.68503C4.49146 9.68503 3.42519 9.26989 2.66907 8.43737C1.91521 7.6071 1.53715 6.63097 1.53715 5.51122C1.53715 4.29498 1.94237 3.2807 2.75057 2.46614C3.55649 1.65381 4.55032 1.24541 5.72752 1.24541C6.8119 1.24541 7.72875 1.57976 8.47582 2.24847C9.22289 2.91718 9.59642 3.75867 9.59642 4.77295C9.59642 5.46634 9.42437 6.04529 9.08253 6.5053C8.74069 6.96756 8.38526 7.19645 8.01626 7.19645C7.81704 7.19645 7.71743 7.09098 7.71743 6.87781C7.71743 6.70502 7.73101 6.50306 7.75592 6.26969L8.17699 2.85659H6.72813L6.63532 3.19094C6.26631 2.89249 5.86108 2.74215 5.4219 2.74215C4.72463 2.74215 4.12698 3.01816 3.6312 3.56793C3.13316 4.11771 2.8864 4.82681 2.8864 5.69298C2.8864 6.53896 3.10599 7.22338 3.54744 7.74174C3.98889 8.26234 4.51863 8.5204 5.13892 8.5204C5.69356 8.5204 6.1667 8.28927 6.56061 7.82925C6.85717 8.27132 7.29409 8.49123 7.87137 8.49123C8.72031 8.49123 9.4538 8.12546 10.0718 7.39168C10.6899 6.66014 11 5.77601 11 4.74153C11 3.43105 10.4952 2.3113 9.48096 1.38678ZM6.14406 6.55018C5.88825 6.89127 5.58263 7.06406 5.22721 7.06406C4.98498 7.06406 4.79029 6.93839 4.64314 6.68707C4.49372 6.43574 4.41902 6.12383 4.41902 5.74908C4.41902 5.28682 4.52315 4.91432 4.73143 4.63158C4.9397 4.34884 5.19778 4.20522 5.50566 4.20522C5.77279 4.20522 6.0105 4.31069 6.21877 4.52387C6.42704 4.73705 6.53118 5.01979 6.53118 5.37434C6.52892 5.8164 6.39988 6.20685 6.14406 6.55018Z" fill="white"/>
</svg>
