<svg width="246" height="63" viewBox="0 0 246 63" fill="none" xmlns="http://www.w3.org/2000/svg">
<path d="M86.9186 45.0428L86.0345 42.6775H85.1163L84.2322 45.0428L83.348 42.6775H82.4639L83.7901 46.2593H84.7082L85.5924 43.8939L86.4765 46.2593H87.3947L88.7209 42.6775H87.8028L86.9186 45.0428Z" fill="#4FABFF"/>
<path d="M91.3053 46.2593H95.148V45.5159H92.1895V44.8401H94.7059V44.0967H92.1895V43.4209H95.148V42.6775H91.3053V46.2593Z" fill="#4FABFF"/>
<path d="M104.568 45.4145L103.105 42.6775H102.187V46.2931H103.105V44.3332L104.125 46.2931H105.044L106.064 44.3332V46.2931H106.948V42.6775H106.03L104.568 45.4145Z" fill="#4FABFF"/>
<path d="M111.471 42.6775L109.566 46.2931H110.485L110.859 45.5835H113.001L113.375 46.2931H114.293L112.389 42.6775H111.471ZM111.233 44.8063L111.913 43.5223L112.593 44.8063H111.233Z" fill="#4FABFF"/>
<path d="M120.278 42.6775H119.156L117.762 44.1981V42.6775H116.878V46.2931H117.762V45.4145L118.238 44.9077L119.462 46.2931H120.584L118.782 44.2994L120.278 42.6775Z" fill="#4FABFF"/>
<path d="M123.169 46.2593H127.011V45.5159H124.053V44.8401H126.569V44.0967H124.053V43.4209H127.011V42.6775H123.169V46.2593Z" fill="#4FABFF"/>
<path d="M136.057 44.1981L134.901 42.6775H133.846L135.615 45.009V46.2593H136.533V45.009L138.301 42.6775H137.247L136.057 44.1981Z" fill="#4FABFF"/>
<path d="M142.96 42.5083C141.668 42.5083 140.648 43.3869 140.648 44.4682C140.648 45.5495 141.702 46.428 142.96 46.428C144.252 46.428 145.272 45.5495 145.272 44.4682C145.272 43.3869 144.252 42.5083 142.96 42.5083ZM142.96 45.6508C142.178 45.6508 141.566 45.1102 141.566 44.4682C141.566 43.8261 142.178 43.2855 142.96 43.2855C143.742 43.2855 144.354 43.8261 144.354 44.4682C144.354 45.1102 143.742 45.6508 142.96 45.6508Z" fill="#4FABFF"/>
<path d="M151.563 44.536C151.563 44.8063 151.461 45.009 151.291 45.178C150.781 45.7524 149.795 45.7524 149.285 45.178C149.115 45.009 149.047 44.7725 149.013 44.536V42.6775H148.095V44.6035C148.095 45.0428 148.265 45.4145 148.537 45.7186C148.741 45.9552 149.013 46.1241 149.285 46.2255C149.897 46.4958 150.645 46.4958 151.257 46.2255C151.529 46.1241 151.801 45.9214 152.005 45.7186C152.278 45.4145 152.448 45.009 152.448 44.6035V42.6775H151.529V44.536H151.563Z" fill="#4FABFF"/>
<path d="M158.127 44.8063C158.705 44.6711 159.147 44.2656 159.147 43.7588C159.147 43.1506 158.535 42.6775 157.786 42.6775H155.304V46.2931H156.188V44.8739H156.834L158.127 46.2931H159.147L157.854 44.8739C157.923 44.8401 158.025 44.8401 158.127 44.8063ZM157.82 44.0967H156.188V43.4209H157.82C158.059 43.4209 158.229 43.5898 158.229 43.7588C158.229 43.9277 158.059 44.0967 157.82 44.0967Z" fill="#4FABFF"/>
<path d="M169.586 44.0967H167.07V42.6775H166.186V46.2593H167.07V44.8401H169.586V46.2593H170.471V42.6775H169.586V44.0967Z" fill="#4FABFF"/>
<path d="M175.605 42.5083C174.313 42.5083 173.293 43.3869 173.293 44.4682C173.293 45.5495 174.347 46.428 175.605 46.428C176.898 46.428 177.918 45.5495 177.918 44.4682C177.918 43.3869 176.898 42.5083 175.605 42.5083ZM175.605 45.6508C174.823 45.6508 174.211 45.1102 174.211 44.4682C174.211 43.8261 174.823 43.2855 175.605 43.2855C176.388 43.2855 177 43.8261 177 44.4682C177 45.1102 176.388 45.6508 175.605 45.6508Z" fill="#4FABFF"/>
<path d="M183.121 45.4145L181.659 42.6775H180.74V46.2931H181.624V44.3332L182.679 46.2931H183.597L184.617 44.3332V46.2931H185.501V42.6775H184.583L183.121 45.4145Z" fill="#4FABFF"/>
<path d="M188.324 46.2593H192.166V45.5159H189.208V44.8401H191.724V44.0967H189.208V43.4209H192.166V42.6775H188.324V46.2593Z" fill="#4FABFF"/>
<path d="M201.688 44.0627C201.348 44.0289 200.294 44.0627 200.294 43.7248C200.294 43.4544 200.838 43.3193 201.382 43.3193C202.3 43.2855 202.81 43.7248 202.844 43.7586L203.626 43.3531C203.592 43.3193 203.558 43.2855 203.524 43.2517C203.116 42.9138 202.64 42.6773 202.13 42.5759C201.892 42.5421 201.654 42.5083 201.416 42.5083C200.906 42.5083 200.43 42.6097 200.056 42.7786C199.409 43.0827 199.341 43.4882 199.341 43.7248C199.341 44.2654 200.022 44.8061 201.314 44.8061C202.538 44.8061 202.708 44.975 202.708 45.1778C202.708 45.3805 202.3 45.5494 201.62 45.5832C200.906 45.617 200.226 45.4143 199.988 45.1778L199.205 45.5832C199.375 45.786 200.192 46.4618 201.552 46.428C203.116 46.3604 203.626 45.7184 203.626 45.2115C203.626 44.6371 203.15 44.164 201.688 44.0627Z" fill="#4FABFF"/>
<path d="M208.829 45.4145L207.367 42.6775H206.449V46.2931H207.367V44.3332L208.387 46.2931H209.305L210.325 44.3332V46.2931H211.209V42.6775H210.291L208.829 45.4145Z" fill="#4FABFF"/>
<path d="M215.698 42.6775L213.794 46.2931H214.712L215.086 45.5835H217.228L217.603 46.2931H218.521L216.616 42.6775H215.698ZM215.494 44.8063L216.174 43.5223L216.854 44.8063H215.494Z" fill="#4FABFF"/>
<path d="M223.962 44.8063C224.54 44.6711 224.982 44.2656 224.982 43.7588C224.982 43.1506 224.37 42.6775 223.622 42.6775H221.139V46.2931H222.023V44.8739H222.669L223.962 46.2931H224.982L223.69 44.8739C223.792 44.8401 223.86 44.8401 223.962 44.8063ZM223.656 44.0967H222.023V43.4209H223.656C223.894 43.4209 224.064 43.5898 224.064 43.7588C224.064 43.9277 223.894 44.0967 223.656 44.0967Z" fill="#4FABFF"/>
<path d="M227.634 43.4209H229.198V46.2593H230.083V43.4209H231.613V42.6775H227.634V43.4209Z" fill="#4FABFF"/>
<path d="M234.435 46.2593H238.278V45.5159H235.354V44.8401H237.836V44.0967H235.354V43.4209H238.278V42.6775H234.435V46.2593Z" fill="#4FABFF"/>
<path d="M243.923 44.8063C244.501 44.6711 244.943 44.2656 244.943 43.7588C244.943 43.1506 244.331 42.6775 243.583 42.6775H241.1V46.2931H241.985V44.8739H242.631L243.923 46.2931H244.943L243.651 44.8739C243.753 44.8401 243.855 44.8401 243.923 44.8063ZM243.651 44.0967H242.019V43.4209H243.651C243.889 43.4209 244.059 43.5898 244.059 43.7588C244.059 43.9277 243.855 44.0967 243.651 44.0967Z" fill="#4FABFF"/>
<path d="M133.676 34.8719L127.896 28.4855C128.474 28.4855 128.984 28.4179 129.46 28.2828C129.834 28.2152 130.208 28.1138 130.582 27.9787C133.268 27.0325 135.139 24.8699 135.139 22.3357C135.139 18.9228 131.738 16.1858 127.589 16.1858H111.199L110.213 20.4096H115.279L127.861 20.3758C129.12 20.3758 130.14 21.2544 130.14 22.3019C130.14 23.3832 129.12 24.2279 127.861 24.2279H123.713H121.74C116.606 24.2279 112.151 27.8097 111.063 32.8107L110.281 36.4939L115.143 36.5277L115.687 33.9258C116.368 30.7495 119.224 28.4517 122.489 28.4517H122.523H122.557L129.494 36.4939H129.868H133.778H135.173L133.676 34.8719Z" fill="white"/>
<path d="M106.2 20.4096L107.118 16.1858H82.3618V36.5615H107.118V32.3039H87.3607V28.4855H104.5L105.418 24.2279H87.3607V20.4096H106.2Z" fill="white"/>
<path d="M206.381 31.6956L198.355 16.1858H193.356V36.5615H198.219V25.6471L203.864 36.5615H208.897L214.542 25.6471V36.5615H219.439V16.1858H214.406L206.381 31.6956Z" fill="white"/>
<path d="M245.997 30.4453C245.929 27.3704 243.311 24.6333 235.217 24.1603C233.279 24.0589 227.634 24.1941 227.6 22.2004C227.566 20.7136 230.627 19.9365 233.653 19.8351C238.652 19.6661 241.509 22.0991 241.747 22.3356L245.997 20.0716C245.827 19.8689 245.623 19.6661 245.385 19.4634C243.141 17.5035 240.488 16.1857 237.7 15.6789C236.442 15.4423 235.149 15.341 233.823 15.3747C231.069 15.4085 228.416 16.0168 226.444 16.9967C222.941 18.6524 222.431 21.0178 222.465 22.3018C222.533 25.3767 226.206 28.4517 233.245 28.3841C239.944 28.3165 240.862 29.3978 240.862 30.5467C240.896 31.7293 238.618 32.7093 234.809 32.8444C230.831 32.9796 227.124 31.8983 225.9 30.4791L221.717 32.7093C222.669 33.9257 227.192 37.6427 234.673 37.4061C243.311 37.102 246.099 33.3513 245.997 30.4453Z" fill="white"/>
<path d="M150.407 15.3071C143.232 15.3071 137.383 20.2405 137.383 26.3566C137.383 32.4727 143.198 37.4061 150.407 37.4061C157.582 37.4061 163.431 32.4727 163.431 26.3566C163.397 20.2743 157.582 15.3071 150.407 15.3071ZM150.407 33.0471C146.054 33.0471 142.552 30.0736 142.552 26.3904C142.552 22.7072 146.089 19.7337 150.407 19.7337C154.76 19.7337 158.263 22.7072 158.263 26.3904C158.263 30.0398 154.726 33.0471 150.407 33.0471Z" fill="white"/>
<path d="M178.054 15.3071C170.879 15.3071 165.03 20.2405 165.03 26.3566C165.03 32.4727 170.845 37.4061 178.054 37.4061C185.229 37.4061 191.078 32.4727 191.078 26.3566C191.078 20.2743 185.229 15.3071 178.054 15.3071ZM178.054 33.0471C173.701 33.0471 170.199 30.0736 170.199 26.3904C170.199 22.7072 173.735 19.7337 178.054 19.7337C182.407 19.7337 185.909 22.7072 185.909 26.3904C185.909 30.0398 182.407 33.0471 178.054 33.0471Z" fill="white"/>
<path d="M63.8627 5.54152H64.2368V4.29127H64.9169V5.54152H65.291V4.69676L65.767 5.54152H66.1751L66.6172 4.69676V5.54152H67.0252V3.95337H66.6172L65.9711 5.16983L65.325 3.95337H63.1486V4.29127H63.8627V5.54152Z" fill="white"/>
<path d="M39.5826 8.65041L57.9457 15.9492C58.8638 16.3208 59.85 16.3884 60.8022 16.1857L71.0719 13.8204L36.2841 0.067627L36.4881 3.37909C36.7261 5.8458 37.7463 7.94081 39.5826 8.65041Z" fill="white"/>
<path d="M13.1602 15.9829L31.5233 8.6842C33.3936 7.94081 34.5838 5.87959 34.8218 3.41288V0.067627L0.0679932 13.8204L10.3377 16.1857C11.2899 16.4222 12.242 16.3546 13.1602 15.9829Z" fill="white"/>
<path d="M31.0812 25.9511L9.35157 17.4697L6.01901 16.1856L0 13.8203C0 13.8203 0 16.3208 0 19.2606V43.4546C0 46.3943 1.70029 49.03 3.80864 49.8748L28.8708 59.674L34.8899 62.0393V32.8106C34.8899 29.837 33.1896 26.7959 31.0812 25.9511ZM28.1907 52.2063L7.92333 44.2993C7.27722 44.029 6.73313 43.0829 6.73313 42.1705V24.0588L27.0005 31.9658C27.6466 32.2361 28.1907 33.1823 28.1907 34.0946V52.2063Z" fill="white"/>
<path d="M61.8564 17.4697L40.1268 25.9511C38.0184 26.7621 36.3181 29.837 36.3181 32.7768V62.0056L42.3371 59.6402L67.3993 49.841C69.5077 49.03 71.208 46.3943 71.208 43.4208V19.2606C71.208 16.3208 71.208 13.8203 71.208 13.8203L65.189 16.1856L61.8564 17.4697ZM64.4749 42.1367C64.4749 43.0491 63.9308 43.9952 63.2847 44.2655L43.0172 52.1725V34.0946C43.0172 33.1823 43.5613 32.2361 44.2074 31.9658L64.4749 24.0588V42.1367Z" fill="white"/>
</svg>
