<svg width="14" height="14" viewBox="0 0 14 14" fill="none" xmlns="http://www.w3.org/2000/svg">
<path d="M13.8711 10.2015C13.7599 10.0902 13.5795 10.0902 13.4683 10.2015L10.6425 13.0273V0.284898C10.6425 0.127587 10.5149 0 10.3576 0C10.2003 0 10.0727 0.127587 10.0727 0.284898V13.0273L7.24683 10.2014C7.13562 10.0902 6.95518 10.0902 6.84393 10.2015C6.73268 10.3127 6.73268 10.4931 6.84398 10.6044L10.1562 13.9165C10.2118 13.9721 10.2847 14 10.3576 14C10.4305 14 10.5034 13.9721 10.559 13.9165L13.8711 10.6043C13.9824 10.4931 13.9824 10.3127 13.8711 10.2015Z" fill="white"/>
<path d="M0.330309 0.569798H8.88377C9.04108 0.569798 9.16866 0.44221 9.16866 0.284899C9.16866 0.127587 9.04108 0 8.88377 0H0.330309C0.172997 0 0.0454102 0.127587 0.0454102 0.284899C0.0454102 0.44221 0.172997 0.569798 0.330309 0.569798Z" fill="white"/>
<path d="M0.330309 3.90451H8.88377C9.04108 3.90451 9.16866 3.77693 9.16866 3.61962C9.16866 3.4623 9.04108 3.33472 8.88377 3.33472H0.330309C0.172997 3.33472 0.0454102 3.4623 0.0454102 3.61962C0.0454102 3.77693 0.172997 3.90451 0.330309 3.90451Z" fill="white"/>
<path d="M0.330309 7.23899H8.88377C9.04108 7.23899 9.16866 7.1114 9.16866 6.95409C9.16866 6.79678 9.04108 6.66919 8.88377 6.66919H0.330309C0.172997 6.66919 0.0454102 6.79678 0.0454102 6.95409C0.0454102 7.1114 0.172997 7.23899 0.330309 7.23899Z" fill="white"/>
<path d="M5.90871 10.0039H0.330308C0.172997 10.0039 0.0454102 10.1315 0.0454102 10.2888C0.0454102 10.4461 0.172997 10.5737 0.330308 10.5737H5.90871C6.06602 10.5737 6.19361 10.4461 6.19361 10.2888C6.19361 10.1315 6.06607 10.0039 5.90871 10.0039Z" fill="white"/>
<path d="M5.90871 13.3384H0.330308C0.172997 13.3384 0.0454102 13.466 0.0454102 13.6233C0.0454102 13.7806 0.172997 13.9082 0.330308 13.9082H5.90871C6.06602 13.9082 6.19361 13.7806 6.19361 13.6233C6.19361 13.466 6.06607 13.3384 5.90871 13.3384Z" fill="white"/>
</svg>
