<svg width="267" height="68" viewBox="0 0 267 68" fill="none" xmlns="http://www.w3.org/2000/svg">
<path d="M94.0261 48.6527L93.0696 46.094H92.0764L91.12 48.6527L90.1635 46.094H89.2071L90.6417 49.9687H91.635L92.5914 47.4099L93.5479 49.9687H94.5411L95.9758 46.094H94.9825L94.0261 48.6527Z" fill="#4FABFF"/>
<path d="M98.7715 49.9687H102.928V49.1645H99.728V48.4334H102.45V47.6292H99.728V46.8982H102.928V46.094H98.7715V49.9687Z" fill="#4FABFF"/>
<path d="M113.118 49.0548L111.536 46.094H110.543V50.0052H111.536V47.8851L112.64 50.0052H113.633L114.737 47.8851V50.0052H115.693V46.094H114.7L113.118 49.0548Z" fill="#4FABFF"/>
<path d="M120.586 46.094L118.526 50.0052H119.519L119.924 49.2376H122.241L122.646 50.0052H123.639L121.579 46.094H120.586ZM120.328 48.3969L121.064 47.0078L121.8 48.3969H120.328Z" fill="#4FABFF"/>
<path d="M130.114 46.094H128.9L127.391 47.7389V46.094H126.435V50.0052H127.391V49.0548L127.906 48.5065L129.231 50.0052H130.445L128.495 47.8486L130.114 46.094Z" fill="#4FABFF"/>
<path d="M133.24 49.9687H137.397V49.1645H134.197V48.4334H136.919V47.6292H134.197V46.8982H137.397V46.094H133.24V49.9687Z" fill="#4FABFF"/>
<path d="M147.182 47.7389L145.932 46.094H144.791L146.704 48.6162V49.9687H147.697V48.6162L149.61 46.094H148.47L147.182 47.7389Z" fill="#4FABFF"/>
<path d="M154.65 45.9113C153.252 45.9113 152.149 46.8616 152.149 48.0314C152.149 49.2011 153.289 50.1515 154.65 50.1515C156.048 50.1515 157.152 49.2011 157.152 48.0314C157.152 46.8616 156.048 45.9113 154.65 45.9113ZM154.65 49.3107C153.804 49.3107 153.142 48.7259 153.142 48.0314C153.142 47.3368 153.804 46.752 154.65 46.752C155.496 46.752 156.158 47.3368 156.158 48.0314C156.158 48.7259 155.496 49.3107 154.65 49.3107Z" fill="#4FABFF"/>
<path d="M163.957 48.1044C163.957 48.3969 163.847 48.6162 163.663 48.799C163.111 49.4204 162.044 49.4204 161.492 48.799C161.308 48.6162 161.235 48.3603 161.198 48.1044V46.094H160.205V48.1775C160.205 48.6527 160.389 49.0548 160.683 49.3838C160.904 49.6397 161.198 49.8225 161.492 49.9321C162.155 50.2245 162.964 50.2245 163.626 49.9321C163.92 49.8225 164.215 49.6031 164.435 49.3838C164.73 49.0548 164.913 48.6162 164.913 48.1775V46.094H163.92V48.1044H163.957Z" fill="#4FABFF"/>
<path d="M171.057 48.3969C171.682 48.2507 172.16 47.812 172.16 47.2637C172.16 46.6057 171.498 46.094 170.689 46.094H168.004V50.0052H168.96V48.47H169.659L171.057 50.0052H172.16L170.763 48.47C170.836 48.4334 170.946 48.4334 171.057 48.3969ZM170.726 47.6292H168.96V46.8982H170.726C170.983 46.8982 171.167 47.0809 171.167 47.2637C171.167 47.4465 170.983 47.6292 170.726 47.6292Z" fill="#4FABFF"/>
<path d="M183.454 47.6292H180.732V46.094H179.775V49.9687H180.732V48.4334H183.454V49.9687H184.41V46.094H183.454V47.6292Z" fill="#4FABFF"/>
<path d="M189.965 45.9113C188.567 45.9113 187.464 46.8616 187.464 48.0314C187.464 49.2011 188.604 50.1515 189.965 50.1515C191.363 50.1515 192.467 49.2011 192.467 48.0314C192.467 46.8616 191.363 45.9113 189.965 45.9113ZM189.965 49.3107C189.119 49.3107 188.457 48.7259 188.457 48.0314C188.457 47.3368 189.119 46.752 189.965 46.752C190.811 46.752 191.473 47.3368 191.473 48.0314C191.473 48.7259 190.811 49.3107 189.965 49.3107Z" fill="#4FABFF"/>
<path d="M198.095 49.0548L196.513 46.094H195.52V50.0052H196.476V47.8851L197.617 50.0052H198.61L199.713 47.8851V50.0052H200.67V46.094H199.677L198.095 49.0548Z" fill="#4FABFF"/>
<path d="M203.723 49.9687H207.88V49.1645H204.68V48.4334H207.402V47.6292H204.68V46.8982H207.88V46.094H203.723V49.9687Z" fill="#4FABFF"/>
<path d="M218.18 47.5927C217.812 47.5562 216.672 47.5927 216.672 47.2272C216.672 46.9348 217.261 46.7885 217.849 46.7885C218.842 46.752 219.394 47.2272 219.431 47.2637L220.277 46.8251C220.24 46.7885 220.204 46.752 220.167 46.7154C219.725 46.3499 219.21 46.094 218.658 45.9844C218.401 45.9478 218.143 45.9113 217.886 45.9113C217.334 45.9113 216.819 46.0209 216.414 46.2037C215.716 46.5327 215.642 46.9713 215.642 47.2272C215.642 47.812 216.378 48.3969 217.776 48.3969C219.1 48.3969 219.284 48.5797 219.284 48.799C219.284 49.0183 218.842 49.2011 218.107 49.2376C217.334 49.2742 216.598 49.0549 216.341 48.799L215.495 49.2376C215.679 49.457 216.562 50.188 218.033 50.1515C219.725 50.0784 220.277 49.3839 220.277 48.8355C220.277 48.2141 219.762 47.7024 218.18 47.5927Z" fill="#4FABFF"/>
<path d="M225.905 49.0548L224.324 46.094H223.33V50.0052H224.324V47.8851L225.427 50.0052H226.42L227.524 47.8851V50.0052H228.48V46.094H227.487L225.905 49.0548Z" fill="#4FABFF"/>
<path d="M233.336 46.094L231.276 50.0052H232.269L232.674 49.2376H234.992L235.396 50.0052H236.39L234.329 46.094H233.336ZM233.116 48.3969L233.851 47.0078L234.587 48.3969H233.116Z" fill="#4FABFF"/>
<path d="M242.275 48.3969C242.901 48.2507 243.379 47.812 243.379 47.2637C243.379 46.6057 242.717 46.094 241.907 46.094H239.222V50.0052H240.179V48.47H240.877L242.275 50.0052H243.379L241.981 48.47C242.091 48.4334 242.165 48.4334 242.275 48.3969ZM241.944 47.6292H240.179V46.8982H241.944C242.202 46.8982 242.386 47.0809 242.386 47.2637C242.386 47.4465 242.202 47.6292 241.944 47.6292Z" fill="#4FABFF"/>
<path d="M246.248 46.8982H247.94V49.9687H248.897V46.8982H250.552V46.094H246.248V46.8982Z" fill="#4FABFF"/>
<path d="M253.606 49.9687H257.762V49.1645H254.599V48.4334H257.284V47.6292H254.599V46.8982H257.762V46.094H253.606V49.9687Z" fill="#4FABFF"/>
<path d="M263.869 48.3969C264.494 48.2507 264.973 47.812 264.973 47.2637C264.973 46.6057 264.31 46.094 263.501 46.094H260.816V50.0052H261.772V48.47H262.471L263.869 50.0052H264.973L263.575 48.47C263.685 48.4334 263.795 48.4334 263.869 48.3969ZM263.575 47.6292H261.809V46.8982H263.575C263.832 46.8982 264.016 47.0809 264.016 47.2637C264.016 47.4465 263.795 47.6292 263.575 47.6292Z" fill="#4FABFF"/>
<path d="M144.607 37.6502L138.354 30.7415C138.979 30.7415 139.531 30.6684 140.046 30.5222C140.451 30.4491 140.855 30.3395 141.26 30.1932C144.166 29.1697 146.189 26.8303 146.189 24.0888C146.189 20.3969 142.511 17.436 138.023 17.436H120.292L119.225 22.0052H124.706L138.317 21.9687C139.678 21.9687 140.782 22.9191 140.782 24.0522C140.782 25.222 139.678 26.1358 138.317 26.1358H133.829H131.695C126.141 26.1358 121.322 30.0105 120.144 35.4204L119.298 39.4047L124.559 39.4413L125.147 36.6267C125.883 33.1906 128.973 30.705 132.505 30.705H132.541H132.578L140.083 39.4047H140.487H144.718H146.226L144.607 37.6502Z" fill="white"/>
<path d="M114.884 22.0052L115.877 17.436H89.0967V39.4779H115.877V34.8721H94.5043V30.7415H113.045L114.038 26.1358H94.5043V22.0052H114.884Z" fill="white"/>
<path d="M223.257 34.2141L214.575 17.436H209.168V39.4779H214.428V27.671L220.535 39.4779H225.979L232.086 27.671V39.4779H237.383V17.436H231.938L223.257 34.2141Z" fill="white"/>
<path d="M266.113 32.8616C266.039 29.5353 263.207 26.5744 254.452 26.0627C252.355 25.953 246.248 26.0992 246.211 23.9426C246.175 22.3342 249.485 21.4935 252.759 21.3838C258.167 21.201 261.257 23.8329 261.515 24.0888L266.113 21.6397C265.929 21.4204 265.708 21.201 265.451 20.9817C263.023 18.8616 260.154 17.436 257.137 16.8877C255.776 16.6318 254.378 16.5222 252.943 16.5587C249.964 16.5953 247.094 17.2533 244.961 18.3133C241.172 20.1044 240.62 22.6632 240.657 24.0522C240.73 27.3786 244.703 30.705 252.318 30.6319C259.565 30.5588 260.558 31.7285 260.558 32.9713C260.595 34.2507 258.13 35.3107 254.01 35.4569C249.706 35.6032 245.696 34.4334 244.372 32.8982L239.847 35.3107C240.877 36.6267 245.77 40.6475 253.863 40.3917C263.207 40.0627 266.223 36.0052 266.113 32.8616Z" fill="white"/>
<path d="M162.706 16.4856C154.944 16.4856 148.617 21.8224 148.617 28.4386C148.617 35.0548 154.908 40.3916 162.706 40.3916C170.468 40.3916 176.795 35.0548 176.795 28.4386C176.759 21.859 170.468 16.4856 162.706 16.4856ZM162.706 35.6762C157.998 35.6762 154.209 32.4595 154.209 28.4752C154.209 24.4908 158.034 21.2741 162.706 21.2741C167.415 21.2741 171.204 24.4908 171.204 28.4752C171.204 32.423 167.378 35.6762 162.706 35.6762Z" fill="white"/>
<path d="M192.614 16.4856C184.852 16.4856 178.524 21.8224 178.524 28.4386C178.524 35.0548 184.815 40.3916 192.614 40.3916C200.376 40.3916 206.703 35.0548 206.703 28.4386C206.703 21.859 200.376 16.4856 192.614 16.4856ZM192.614 35.6762C187.905 35.6762 184.116 32.4595 184.116 28.4752C184.116 24.4908 187.942 21.2741 192.614 21.2741C197.322 21.2741 201.111 24.4908 201.111 28.4752C201.111 32.423 197.322 35.6762 192.614 35.6762Z" fill="white"/>
<path d="M69.0849 5.92163H69.4895V4.56915H70.2253V5.92163H70.6299V5.00779L71.1449 5.92163H71.5864L72.0646 5.00779V5.92163H72.506V4.20361H72.0646L71.3657 5.51954L70.6667 4.20361H68.3124V4.56915H69.0849V5.92163Z" fill="white"/>
<path d="M42.8194 9.28461L62.684 17.1802C63.6773 17.5823 64.7441 17.6554 65.7741 17.4361L76.8836 14.8773L39.2511 0L39.4718 3.58225C39.7293 6.25066 40.8329 8.51699 42.8194 9.28461Z" fill="white"/>
<path d="M14.2363 17.2167L34.101 9.32116C36.1242 8.51698 37.4118 6.28722 37.6693 3.6188V0L0.0735474 14.8773L11.183 17.4361C12.2131 17.6919 13.2431 17.6188 14.2363 17.2167Z" fill="white"/>
<path d="M33.6228 28.0001L10.1163 18.8251L6.5112 17.4361L0 14.8773C0 14.8773 0 17.5823 0 20.7624V46.9348C0 50.115 1.83932 52.9662 4.12008 53.88L31.2317 64.4805L37.7429 67.0393V35.4204C37.7429 32.2037 35.9035 28.9139 33.6228 28.0001ZM30.4959 56.4022L8.57123 47.8487C7.87229 47.5562 7.28371 46.5327 7.28371 45.5458V25.9531L29.2084 34.5066C29.9074 34.799 30.4959 35.8225 30.4959 36.8095V56.4022Z" fill="white"/>
<path d="M66.9145 18.8251L43.408 28.0001C41.1272 28.8773 39.2879 32.2037 39.2879 35.3839V67.0027L45.7991 64.444L72.9107 53.8435C75.1915 52.9662 77.0308 50.115 77.0308 46.8983V20.7624C77.0308 17.5823 77.0308 14.8773 77.0308 14.8773L70.5196 17.4361L66.9145 18.8251ZM69.7471 45.5092C69.7471 46.4962 69.1585 47.5197 68.4595 47.8121L46.5348 56.3657V36.8095C46.5348 35.8225 47.1234 34.799 47.8224 34.5066L69.7471 25.9531V45.5092Z" fill="white"/>
</svg>
