<svg width="442" height="610" viewBox="0 0 442 610" fill="none" xmlns="http://www.w3.org/2000/svg">
<path d="M323.53 46.1992L48.2495 153.569C21.5399 163.836 0 202.763 0 239.979V610L76.2514 580.056L393.75 456.003C420.46 445.736 442 412.37 442 374.727V68.871C442 31.655 442 0 442 0L365.749 29.9439L323.53 46.1992ZM356.702 358.471C356.702 370.021 349.809 381.999 341.624 385.421L84.8674 485.519V256.662C84.8674 245.112 91.7602 233.135 99.9454 229.712L356.702 129.614V358.471Z" fill="white" fill-opacity="0.55"/>
<path d="M288.683 152.386L113.674 220.68C96.694 227.21 83 251.971 83 275.642V511L131.477 491.954L333.326 413.048C350.306 406.518 364 385.295 364 361.351V166.806C364 143.135 364 123 364 123L315.523 142.046L288.683 152.386ZM309.772 351.011C309.772 358.358 305.39 365.976 300.186 368.153L136.954 431.822V286.254C136.954 278.907 141.336 271.289 146.54 269.112L309.772 205.443V351.011Z" fill="#0B99D7"/>
</svg>
