<svg width="17" height="15" viewBox="0 0 17 15" fill="none" xmlns="http://www.w3.org/2000/svg">
<path d="M10.5958 10.6875L13.7875 6.4375L17 10.6875H14.875V11.75C14.875 13.5079 13.4454 14.9375 11.6875 14.9375H5.3125C3.55459 14.9375 2.125 13.5079 2.125 11.75V10.6875H4.25V11.75C4.25 12.3354 4.72706 12.8125 5.3125 12.8125H11.6875C12.2729 12.8125 12.75 12.3354 12.75 11.75V10.6875H10.5958Z" fill="#037BC0"/>
<path d="M6.40422 4.3125L3.21247 8.5625L0 4.3125H2.125V3.25C2.125 1.49209 3.55459 0.0625 5.3125 0.0625H11.6875C13.4454 0.0625 14.875 1.49209 14.875 3.25V4.3125H12.75V3.25C12.75 2.66456 12.2729 2.1875 11.6875 2.1875H5.3125C4.72706 2.1875 4.25 2.66456 4.25 3.25V4.3125H6.40422Z" fill="#037BC0"/>
</svg>
