<svg width="20" height="20" viewBox="0 0 20 20" fill="none" xmlns="http://www.w3.org/2000/svg">
<path d="M19.7494 9.76582C20.112 9.36709 20.0769 8.75595 19.6712 8.40116L10.733 0.580135C10.3273 0.225345 9.67683 0.232777 9.27966 0.59689L0.311026 8.81815C-0.0861398 9.18226 -0.105633 9.79261 0.267867 10.1808L0.492724 10.415C0.865768 10.8033 1.46875 10.8496 1.83867 10.5181L2.50893 9.91785V18.7056C2.50893 19.2447 2.9458 19.6812 3.48457 19.6812H6.98057C7.51934 19.6812 7.95621 19.2447 7.95621 18.7056V12.5577H12.4154V18.7056C12.4076 19.2444 12.7931 19.6808 13.3319 19.6808H17.0368C17.5756 19.6808 18.0124 19.2444 18.0124 18.7052V10.0416C18.0124 10.0416 18.1976 10.2038 18.426 10.4045C18.6539 10.6049 19.1328 10.4442 19.4953 10.0451L19.7494 9.76582Z" fill="#0B99D7"/>
</svg>
