<svg width="20" height="20" viewBox="0 0 20 20" fill="none" xmlns="http://www.w3.org/2000/svg">
<path d="M17.37 0H2.6295C1.17686 0 0 1.17711 0 2.62925V17.3707C0 18.8229 1.17686 20 2.6295 20H17.37C18.8227 20 20 18.8229 20 17.3707V2.62925C20 1.17711 18.8227 0 17.37 0ZM18.1665 16.25C18.1665 17.3069 17.3064 18.1667 16.2497 18.1667H3.74989C2.69318 18.1667 1.83309 17.3069 1.83309 16.25V3.74997C1.83309 2.69301 2.69314 1.83338 3.74989 1.83338H16.2497C17.3064 1.83338 18.1665 2.69301 18.1665 3.74997V16.25Z" fill="#0B99D7"/>
<path d="M16.2497 3.1665H3.74988C3.42823 3.1665 3.16656 3.42825 3.16656 3.74982V16.2498C3.16656 16.5714 3.42823 16.8332 3.74988 16.8332H16.2497C16.5712 16.8332 16.8333 16.5714 16.8333 16.2498V3.74982C16.8333 3.42825 16.5712 3.1665 16.2497 3.1665ZM15.0037 10.6665H13.9607C13.8568 11.2879 13.6105 11.8605 13.2549 12.3508L13.9979 13.0939C14.2582 13.3544 14.2582 13.7763 13.9979 14.0366C13.8676 14.1669 13.6969 14.232 13.5265 14.232C13.3558 14.232 13.1853 14.1669 13.0552 14.0366L12.3062 13.288C11.8162 13.633 11.2459 13.8691 10.6288 13.9663V15.0415C10.6288 15.4097 10.3306 15.7082 9.96188 15.7082C9.5934 15.7082 9.29531 15.4097 9.29531 15.0415V13.9549C8.6886 13.8468 8.13 13.603 7.64948 13.255L6.86826 14.0363C6.73801 14.1666 6.56723 14.2316 6.39677 14.2316C6.22644 14.2316 6.05562 14.1666 5.92553 14.0363C5.66515 13.7759 5.66515 13.354 5.92553 13.0936L6.71184 12.3072C6.37342 11.8267 6.14028 11.2694 6.03872 10.6665H4.92041C4.55172 10.6665 4.2535 10.368 4.2535 9.99983C4.2535 9.63168 4.55172 9.33317 4.92041 9.33317H6.03872C6.14028 8.7306 6.37342 8.1737 6.71184 7.69322L5.92553 6.9067C5.66515 6.64633 5.66515 6.22444 5.92553 5.96402C6.1857 5.70364 6.60784 5.70364 6.86826 5.96402L7.64869 6.74495C8.13 6.39696 8.68855 6.15318 9.29531 6.04508V4.95819C9.29531 4.59004 9.5934 4.29153 9.96188 4.29153C10.3306 4.29153 10.6288 4.59004 10.6288 4.95819V6.03374C11.2458 6.13103 11.8163 6.36703 12.3069 6.71249L13.0558 5.96344C13.3161 5.70306 13.7379 5.70306 13.9985 5.96344C14.2589 6.22381 14.2589 6.6457 13.9985 6.90617L13.2548 7.64963C13.6105 8.13983 13.8561 8.71218 13.9607 9.33321H15.0036C15.372 9.33321 15.6703 9.63172 15.6703 9.99987C15.6703 10.368 15.3721 10.6665 15.0037 10.6665Z" fill="#0B99D7"/>
<path d="M9.99977 7.31299C8.51819 7.31299 7.31239 8.51875 7.31239 10.0005C7.31239 11.4823 8.51819 12.6877 9.99977 12.6877C11.4817 12.6877 12.6874 11.4823 12.6874 10.0005C12.6874 8.51875 11.4817 7.31299 9.99977 7.31299ZM9.99977 11.0679C9.40996 11.0679 8.93205 10.5901 8.93205 10.0005C8.93205 9.41064 9.40996 8.93282 9.99977 8.93282C10.5896 8.93282 11.0675 9.41064 11.0675 10.0005C11.0675 10.5901 10.5896 11.0679 9.99977 11.0679Z" fill="#0B99D7"/>
</svg>
