<svg width="155" height="52" viewBox="0 0 155 52" fill="none" xmlns="http://www.w3.org/2000/svg">
<path d="M6.36 32.72C8.2 32.72 9.54 33.12 10.38 33.92C11.2333 34.7067 11.66 35.7933 11.66 37.18C11.66 38.0067 11.4867 38.7867 11.14 39.52C10.7933 40.24 10.2133 40.82 9.4 41.26C8.6 41.7 7.50667 41.92 6.12 41.92H4.82V47H1.8V32.72H6.36ZM6.2 35.2H4.82V39.44H5.82C6.67333 39.44 7.34667 39.2733 7.84 38.94C8.34667 38.5933 8.6 38.04 8.6 37.28C8.6 35.8933 7.8 35.2 6.2 35.2ZM22.5786 47H14.3586V32.72H22.5786V35.2H17.3786V38.34H22.2186V40.82H17.3786V44.5H22.5786V47ZM37.19 47H33.75L28.57 39.76V47H25.55V32.72H28.57V39.64L33.69 32.72H36.91L31.71 39.58L37.19 47ZM51.5569 39.84C51.5569 41.32 51.3102 42.6133 50.8169 43.72C50.3369 44.8133 49.5969 45.6667 48.5969 46.28C47.5969 46.8933 46.3169 47.2 44.7569 47.2C43.2102 47.2 41.9302 46.8933 40.9169 46.28C39.9169 45.6667 39.1702 44.8067 38.6769 43.7C38.1969 42.5933 37.9569 41.3 37.9569 39.82C37.9569 38.34 38.1969 37.0533 38.6769 35.96C39.1702 34.8667 39.9169 34.02 40.9169 33.42C41.9302 32.8067 43.2169 32.5 44.7769 32.5C46.3235 32.5 47.5969 32.8067 48.5969 33.42C49.5969 34.02 50.3369 34.8733 50.8169 35.98C51.3102 37.0733 51.5569 38.36 51.5569 39.84ZM41.1369 39.84C41.1369 41.3333 41.4235 42.5133 41.9969 43.38C42.5702 44.2333 43.4902 44.66 44.7569 44.66C46.0502 44.66 46.9769 44.2333 47.5369 43.38C48.0969 42.5133 48.3769 41.3333 48.3769 39.84C48.3769 38.3333 48.0969 37.1533 47.5369 36.3C46.9769 35.4467 46.0569 35.02 44.7769 35.02C43.4969 35.02 42.5702 35.4467 41.9969 36.3C41.4235 37.1533 41.1369 38.3333 41.1369 39.84ZM60.5548 47L57.1148 35.8H57.0348C57.0482 36.0667 57.0682 36.4667 57.0948 37C57.1215 37.5333 57.1482 38.1067 57.1748 38.72C57.2015 39.32 57.2148 39.8667 57.2148 40.36V47H54.5148V32.72H58.6348L62.0148 43.64H62.0748L65.6548 32.72H69.7748V47H66.9548V40.24C66.9548 39.7867 66.9615 39.2667 66.9748 38.68C67.0015 38.0933 67.0215 37.54 67.0348 37.02C67.0615 36.4867 67.0815 36.0867 67.0948 35.82H67.0148L63.3348 47H60.5548ZM81.602 47H73.382V32.72H81.602V35.2H76.402V38.34H81.242V40.82H76.402V44.5H81.602V47ZM96.2734 47H93.2534V40.84H87.5934V47H84.5734V32.72H87.5934V38.32H93.2534V32.72H96.2734V47ZM111.046 32.72V44.48H112.946V51.16H110.026V47H101.086V51.16H98.1664V44.48H99.2664C99.7731 43.48 100.246 42.4133 100.686 41.28C101.126 40.1333 101.52 38.86 101.866 37.46C102.226 36.06 102.513 34.48 102.726 32.72H111.046ZM108.026 35.24H105.126C105.006 36.16 104.813 37.16 104.546 38.24C104.293 39.3067 103.986 40.38 103.626 41.46C103.266 42.5267 102.873 43.5333 102.446 44.48H108.026V35.24ZM126.6 32.72L122.18 42.82C121.78 43.7267 121.353 44.5133 120.9 45.18C120.46 45.8333 119.893 46.3333 119.2 46.68C118.507 47.0267 117.6 47.2 116.48 47.2C116.133 47.2 115.753 47.1733 115.34 47.12C114.927 47.0667 114.547 46.9933 114.2 46.9V44.3C114.52 44.4333 114.873 44.5267 115.26 44.58C115.647 44.6333 116.007 44.66 116.34 44.66C117.007 44.66 117.487 44.5 117.78 44.18C118.073 43.8467 118.307 43.4467 118.48 42.98L113.54 32.72H116.74L119.4 38.9C119.493 39.1 119.62 39.3867 119.78 39.76C119.94 40.12 120.06 40.4267 120.14 40.68H120.24C120.32 40.44 120.433 40.1267 120.58 39.74C120.74 39.3533 120.88 39.0133 121 38.72L123.48 32.72H126.6ZM136.622 47H128.402V32.72H136.622V35.2H131.422V38.34H136.262V40.82H131.422V44.5H136.622V47ZM145.093 47H142.073V35.24H138.193V32.72H148.973V35.24H145.093V47Z" fill="#C04703"/>
<path d="M48.5751 19.6949L43.1445 13.6956C43.6876 13.6956 44.1668 13.6321 44.614 13.5051C44.9654 13.4416 45.3168 13.3464 45.6682 13.2194C48.1918 12.3306 49.9488 10.2991 49.9488 7.9184C49.9488 4.71239 46.7543 2.14124 42.857 2.14124H27.4596L26.5332 6.10907H31.293L43.1126 6.07732C44.2945 6.07732 45.2529 6.90263 45.2529 7.88665C45.2529 8.90242 44.2945 9.69598 43.1126 9.69598H39.2153H37.3625C32.5388 9.69598 28.3541 13.0607 27.3318 17.7586L26.5971 21.2186L31.1652 21.2503L31.6763 18.8061C32.3152 15.8223 34.9986 13.6638 38.0653 13.6638H38.0972H38.1292L44.6459 21.2186H44.9973H48.671H49.9807L48.5751 19.6949Z" fill="black"/>
<path d="M22.7637 6.10907L23.6262 2.14124H0.370361V21.2821H23.6262V17.2825H5.06625V13.6956H21.1664L22.0289 9.69599H5.06625V6.10907H22.7637Z" fill="black"/>
<path d="M116.873 16.7111L109.334 2.14124H104.638V21.2821H109.206V11.0292L114.509 21.2821H119.237L124.54 11.0292V21.2821H129.14V2.14124H124.412L116.873 16.7111Z" fill="black"/>
<path d="M154.089 15.5366C154.025 12.648 151.565 10.0768 143.962 9.63245C142.141 9.53722 136.839 9.66419 136.807 7.79138C136.775 6.3947 139.65 5.66462 142.493 5.56939C147.189 5.41068 149.872 7.69615 150.096 7.91835L154.089 5.79159C153.929 5.60114 153.737 5.41068 153.514 5.22022C151.405 3.37915 148.914 2.14119 146.294 1.66505C145.112 1.44285 143.898 1.34762 142.653 1.37936C140.065 1.41111 137.573 1.98247 135.721 2.90301C132.43 4.4584 131.951 6.68039 131.983 7.88661C132.047 10.7752 135.497 13.6638 142.11 13.6003C148.403 13.5368 149.265 14.5526 149.265 15.6318C149.297 16.7428 147.157 17.6633 143.579 17.7903C139.841 17.9173 136.359 16.9015 135.209 15.5683L131.28 17.6633C132.175 18.8061 136.423 22.2978 143.451 22.0756C151.565 21.7899 154.185 18.2664 154.089 15.5366Z" fill="black"/>
<path d="M64.2919 1.31592C57.5516 1.31592 52.0571 5.95035 52.0571 11.6958C52.0571 17.4412 57.5196 22.0756 64.2919 22.0756C71.0323 22.0756 76.5268 17.4412 76.5268 11.6958C76.4948 5.98209 71.0323 1.31592 64.2919 1.31592ZM64.2919 17.9808C60.203 17.9808 56.9127 15.1875 56.9127 11.7275C56.9127 8.26756 60.2349 5.4742 64.2919 5.4742C68.3808 5.4742 71.6712 8.26756 71.6712 11.7275C71.6712 15.1557 68.3489 17.9808 64.2919 17.9808Z" fill="black"/>
<path d="M90.2631 1.31592C83.5227 1.31592 78.0282 5.95035 78.0282 11.6958C78.0282 17.4412 83.4908 22.0756 90.2631 22.0756C97.0034 22.0756 102.498 17.4412 102.498 11.6958C102.498 5.98209 97.0034 1.31592 90.2631 1.31592ZM90.2631 17.9808C86.1741 17.9808 82.8838 15.1875 82.8838 11.7275C82.8838 8.26756 86.2061 5.4742 90.2631 5.4742C94.352 5.4742 97.6423 8.26756 97.6423 11.7275C97.6423 15.1557 94.352 17.9808 90.2631 17.9808Z" fill="black"/>
</svg>
